<svg width="598" height="218" xmlns="http://www.w3.org/2000/svg" xmlns:xlink="http://www.w3.org/1999/xlink" xml:space="preserve" overflow="hidden"><g><path d="M56.1405 91.1371 331.739 91.1371 331.739 146.548 56.1405 146.548Z" fill="#FF0000" transform="matrix(1.00146 0 0 1 -55.4921 -43.7458)"/><path d="M56.1405 77.2843 331.739 77.2843 331.739 91.1371 56.1405 91.1371Z" fill="#0A558C" transform="matrix(1.00146 0 0 1 -55.4921 -43.7458)"/><text fill="#FFFFFF" font-family="Calibri,Calibri_MSFontService,sans-serif" font-weight="400" font-size="19" transform="matrix(0.730159 0 0 0.729097 213.246 98)">p</text><text fill="#FFFFFF" font-family="Calibri,Calibri_MSFontService,sans-serif" font-weight="400" font-size="19" transform="matrix(0.730159 0 0 0.729097 220.425 98)">-</text><text fill="#FFFFFF" font-family="Calibri,Calibri_MSFontService,sans-serif" font-weight="400" font-size="19" transform="matrix(0.730159 0 0 0.729097 224.563 98)">substrate</text><text fill="#FFFFFF" font-family="Calibri,Calibri_MSFontService,sans-serif" font-weight="400" font-size="19" transform="matrix(0.730159 0 0 0.729097 254.524 44)">FOX</text><path d="M368.923 91.1371 644.522 91.1371 644.522 146.548 368.923 146.548Z" fill="#FF0000" transform="matrix(1.00146 0 0 1 -55.4921 -43.7458)"/><path d="M368.923 77.2843 644.522 77.2843 644.522 91.1371 368.923 91.1371Z" fill="#0A558C" transform="matrix(1.00146 0 0 1 -55.4921 -43.7458)"/><text fill="#FFFFFF" font-family="Calibri,Calibri_MSFontService,sans-serif" font-weight="400" font-size="19" transform="matrix(0.730159 0 0 0.729097 526.95 98)">p</text><text fill="#FFFFFF" font-family="Calibri,Calibri_MSFontService,sans-serif" font-weight="400" font-size="19" transform="matrix(0.730159 0 0 0.729097 534.129 98)">-</text><text fill="#FFFFFF" font-family="Calibri,Calibri_MSFontService,sans-serif" font-weight="400" font-size="19" transform="matrix(0.730159 0 0 0.729097 538.267 98)">substrate</text><text fill="#FFFFFF" font-family="Calibri,Calibri_MSFontService,sans-serif" font-weight="400" font-size="19" transform="matrix(0.730159 0 0 0.729097 568.228 44)">FOX</text><path d="M438.187 63.4314 575.987 63.4314 575.987 77.2843 438.187 77.2843Z" fill="#388600" transform="matrix(1.00146 0 0 1 -55.4921 -43.7458)"/><text fill="#FFFFFF" font-family="Calibri,Calibri_MSFontService,sans-serif" font-weight="400" font-size="19" transform="matrix(0.730159 0 0 0.729097 435.068 31)">Activ</text><text fill="#FFFFFF" font-family="Calibri,Calibri_MSFontService,sans-serif" font-weight="400" font-size="19" transform="matrix(0.730159 0 0 0.729097 462.561 31)">e</text><path d="M55.4114 198.314 331.01 198.314 331.01 253.726 55.4114 253.726Z" fill="#FF0000" transform="matrix(1.00146 0 0 1 -55.4921 -43.7458)"/><path d="M262.239 185.191 331.01 185.191 331.01 198.314 262.239 198.314ZM55.4114 185.191 124.439 185.191 124.439 198.314 55.4114 198.314Z" fill="#0A558C" fill-rule="evenodd" transform="matrix(1.00146 0 0 1 -55.4921 -43.7458)"/><text fill="#FFFFFF" font-family="Calibri,Calibri_MSFontService,sans-serif" font-weight="400" font-size="19" transform="matrix(0.730159 0 0 0.729097 212.988 206)">p</text><text fill="#FFFFFF" font-family="Calibri,Calibri_MSFontService,sans-serif" font-weight="400" font-size="19" transform="matrix(0.730159 0 0 0.729097 220.168 206)">-</text><text fill="#FFFFFF" font-family="Calibri,Calibri_MSFontService,sans-serif" font-weight="400" font-size="19" transform="matrix(0.730159 0 0 0.729097 224.305 206)">substrate</text><text fill="#FFFFFF" font-family="Calibri,Calibri_MSFontService,sans-serif" font-weight="400" font-size="19" transform="matrix(0.730159 0 0 0.729097 254.267 152)">FOX</text><path d="M368.923 198.314 644.522 198.314 644.522 253.726 368.923 253.726Z" fill="#FF0000" transform="matrix(1.00146 0 0 1 -55.4921 -43.7458)"/><path d="M575.75 185.191 644.522 185.191 644.522 198.314 575.75 198.314ZM368.923 185.191 437.951 185.191 437.951 198.314 368.923 198.314Z" fill="#0A558C" fill-rule="evenodd" transform="matrix(1.00146 0 0 1 -55.4921 -43.7458)"/><text fill="#FFFFFF" font-family="Calibri,Calibri_MSFontService,sans-serif" font-weight="400" font-size="19" transform="matrix(0.730159 0 0 0.729097 526.692 206)">p</text><text fill="#FFFFFF" font-family="Calibri,Calibri_MSFontService,sans-serif" font-weight="400" font-size="19" transform="matrix(0.730159 0 0 0.729097 533.872 206)">-</text><text fill="#FFFFFF" font-family="Calibri,Calibri_MSFontService,sans-serif" font-weight="400" font-size="19" transform="matrix(0.730159 0 0 0.729097 538.009 206)">substrate</text><text fill="#FFFFFF" font-family="Calibri,Calibri_MSFontService,sans-serif" font-weight="400" font-size="19" transform="matrix(0.730159 0 0 0.729097 567.971 152)">FOX</text><path d="M438.187 185.191 575.987 185.191 575.987 199.043 438.187 199.043Z" fill="#32B4C8" transform="matrix(1.00146 0 0 1 -55.4921 -43.7458)"/><text fill="#FFFFFF" font-family="Calibri,Calibri_MSFontService,sans-serif" font-weight="400" font-size="19" transform="matrix(0.730159 0 0 0.729097 501.539 152)">n</text><text fill="#FFFFFF" font-family="Calibri,Calibri_MSFontService,sans-serif" font-weight="400" font-size="19" transform="matrix(0.730159 0 0 0.729097 508.718 152)">+</text><path d="M410.482 49.5786 602.963 49.5786 602.963 63.4314 410.482 63.4314Z" fill="#32B4C8" transform="matrix(1.00146 0 0 1 -55.4921 -43.7458)"/><text fill="#FFFFFF" font-family="Calibri,Calibri_MSFontService,sans-serif" font-weight="400" font-size="19" transform="matrix(0.730159 0 0 0.729097 430.06 17)">n</text><text fill="#FFFFFF" font-family="Calibri,Calibri_MSFontService,sans-serif" font-weight="400" font-size="19" transform="matrix(0.730159 0 0 0.729097 437.24 17)">-</text><text fill="#FFFFFF" font-family="Calibri,Calibri_MSFontService,sans-serif" font-weight="400" font-size="19" transform="matrix(0.730159 0 0 0.729097 441.377 17)">select</text><path d="M96.9699 171.338 290.181 171.338 290.181 184.462 96.9699 184.462Z" fill="#32B4C8" transform="matrix(1.00146 0 0 1 -55.4921 -43.7458)"/><text fill="#FFFFFF" font-family="Calibri,Calibri_MSFontService,sans-serif" font-weight="400" font-size="19" transform="matrix(0.730159 0 0 0.729097 185.435 139)">n</text><text fill="#FFFFFF" font-family="Calibri,Calibri_MSFontService,sans-serif" font-weight="400" font-size="19" transform="matrix(0.730159 0 0 0.729097 192.616 139)">-</text><text fill="#FFFFFF" font-family="Calibri,Calibri_MSFontService,sans-serif" font-weight="400" font-size="19" transform="matrix(0.730159 0 0 0.729097 196.753 139)">select</text></g></svg>