<svg width="477" height="306" xmlns="http://www.w3.org/2000/svg" xmlns:xlink="http://www.w3.org/1999/xlink" xml:space="preserve" overflow="hidden"><g><path d="M38 0 227 0 227 302 38 302Z" fill="#388600"/><text fill="#FFFFFF" font-family="Calibri,Calibri_MSFontService,sans-serif" font-weight="400" font-size="19" transform="translate(172.118 289)">Active</text><path d="M0 88 265 88 265 214 0 214Z" fill="#920426"/><text fill="#FFFFFF" font-family="Calibri,Calibri_MSFontService,sans-serif" font-weight="400" font-size="19" transform="translate(198.305 201)">PolyGat</text><path d="M265 141 326 141 326 161 265 161Z" fill="#920426"/><path d="M326 113 402 113 402 189 326 189Z" fill="#920426"/><path d="M333.167 108 395.424 108 395.424 109 333.167 109ZM334.5 112.5 326.5 108.5 334.5 104.5ZM394.091 104.5 402.091 108.5 394.091 112.5Z" fill="#0A558C"/><text fill="#0A558C" font-family="Calibri,Calibri_MSFontService,sans-serif" font-weight="400" font-size="19" transform="translate(351.546 105)">0</text><text fill="#0A558C" font-family="Calibri,Calibri_MSFontService,sans-serif" font-weight="400" font-size="19" transform="translate(361.176 105)">.</text><text fill="#0A558C" font-family="Calibri,Calibri_MSFontService,sans-serif" font-weight="400" font-size="19" transform="translate(365.972 105)">5</text><path d="M355 143 372 143 372 159 355 159Z" fill="#0A558C"/><path d="M355 132 473 132 473 170 355 170Z" fill="#32B4C8" fill-opacity="0.501961"/><text font-family="Calibri,Calibri_MSFontService,sans-serif" font-weight="400" font-size="19" transform="translate(411.127 158)">Metal</text><text font-family="Calibri,Calibri_MSFontService,sans-serif" font-weight="400" font-size="19" transform="translate(456.317 158)">1</text></g></svg>