<svg width="586" height="377" xmlns="http://www.w3.org/2000/svg" xmlns:xlink="http://www.w3.org/1999/xlink" xml:space="preserve" overflow="hidden"><defs><clipPath id="clip0"><rect x="0" y="0" width="586" height="377"/></clipPath></defs><g clip-path="url(#clip0)"><path d="M78.3177 69.8717 658.79 69.8717 658.79 128.226 78.3177 128.226Z" fill="#FF0000" transform="matrix(1.00026 0 0 1 -78.3381 -27.6415)"/><text fill="#FFFFFF" font-family="Calibri,Calibri_MSFontService,sans-serif" font-weight="400" font-size="19" transform="matrix(0.768021 0 0 0.767821 508.153 91)">p</text><text fill="#FFFFFF" font-family="Calibri,Calibri_MSFontService,sans-serif" font-weight="400" font-size="19" transform="matrix(0.768021 0 0 0.767821 515.706 91)">-</text><text fill="#FFFFFF" font-family="Calibri,Calibri_MSFontService,sans-serif" font-weight="400" font-size="19" transform="matrix(0.768021 0 0 0.767821 520.058 91)">substrate</text><path d="M397.731 56.8187 629.613 56.8187 629.613 99.8167 397.731 99.8167Z" fill="#00915A" transform="matrix(1.00026 0 0 1 -78.3381 -27.6415)"/><text fill="#FFFFFF" font-family="Calibri,Calibri_MSFontService,sans-serif" font-weight="400" font-size="19" transform="matrix(0.768021 0 0 0.767821 510.411 55)">NWell</text><text fill="#FFFFFF" font-family="Calibri,Calibri_MSFontService,sans-serif" font-weight="400" font-size="19" transform="matrix(0.768021 0 0 0.767821 554.128 41)">FOX</text><path d="M78.3177 27.6415 658.79 27.6415 658.79 56.8187 78.3177 56.8187Z" fill="#268796" transform="matrix(1.00026 0 0 1 -78.3381 -27.6415)"/><text fill="#FFFFFF" font-family="Calibri,Calibri_MSFontService,sans-serif" font-weight="400" font-size="19" transform="matrix(0.768021 0 0 0.767821 522.735 19)">Insulator</text><path d="M585.599 56.0509 658.022 56.0509 658.022 70.6395 585.599 70.6395ZM367.786 56.0509 440.48 56.0509 440.48 70.6395 367.786 70.6395Z" fill="#0A558C" fill-rule="evenodd" transform="matrix(1.00026 0 0 1 -78.3381 -27.6415)"/><text fill="#FFFFFF" font-family="Calibri,Calibri_MSFontService,sans-serif" font-weight="400" font-size="19" transform="matrix(0.768021 0 0 0.767821 551.161 41)">FOX</text><path d="M499.083 42.2301 528.261 42.2301 528.261 56.8187 499.083 56.8187Z" fill="#FFC000" transform="matrix(1.00026 0 0 1 -78.3381 -27.6415)"/><text fill="#FFC000" font-family="Calibri,Calibri_MSFontService,sans-serif" font-weight="400" font-size="19" transform="matrix(0.768021 0 0 0.767821 450.106 27)">PolyGa</text><text fill="#FFC000" font-family="Calibri,Calibri_MSFontService,sans-serif" font-weight="400" font-size="19" transform="matrix(0.768021 0 0 0.767821 490.519 27)">t</text><path d="M440.729 56.0509 585.847 56.0509 585.847 70.6395 440.729 70.6395Z" fill="#F6AE7B" transform="matrix(1.00026 0 0 1 -78.3381 -27.6415)"/><text fill="#FFFFFF" font-family="Calibri,Calibri_MSFontService,sans-serif" font-weight="400" font-size="19" transform="matrix(0.768021 0 0 0.767821 486.835 41)">p</text><text fill="#FFFFFF" font-family="Calibri,Calibri_MSFontService,sans-serif" font-weight="400" font-size="19" transform="matrix(0.768021 0 0 0.767821 494.502 41)">+</text><path d="M499.083 56.0509 528.261 56.0509 528.261 70.6395 499.083 70.6395Z" fill="#00915A" transform="matrix(1.00026 0 0 1 -78.3381 -27.6415)"/><path d="M150.493 56.0509 295.611 56.0509 295.611 70.6395 150.493 70.6395Z" fill="#F6AE7B" transform="matrix(1.00026 0 0 1 -78.3381 -27.6415)"/><text fill="#FFFFFF" font-family="Calibri,Calibri_MSFontService,sans-serif" font-weight="400" font-size="19" transform="matrix(0.768021 0 0 0.767821 196.764 40)">n</text><text fill="#FFFFFF" font-family="Calibri,Calibri_MSFontService,sans-serif" font-weight="400" font-size="19" transform="matrix(0.768021 0 0 0.767821 204.431 40)">+</text><path d="M208.079 42.2301 237.257 42.2301 237.257 56.8187 208.079 56.8187Z" fill="#FFC000" transform="matrix(1.00026 0 0 1 -78.3381 -27.6415)"/><text fill="#FFC000" font-family="Calibri,Calibri_MSFontService,sans-serif" font-weight="400" font-size="19" transform="matrix(0.768021 0 0 0.767821 159.819 25)">PolyGa</text><text fill="#FFC000" font-family="Calibri,Calibri_MSFontService,sans-serif" font-weight="400" font-size="19" transform="matrix(0.768021 0 0 0.767821 200.232 25)">t</text><path d="M208.847 56.0509 237.257 56.0509 237.257 70.6395 208.847 70.6395Z" fill="#FF0000" transform="matrix(1.00026 0 0 1 -78.3381 -27.6415)"/><path d="M295.554 56.0509 367.786 56.0509 367.786 70.6395 295.554 70.6395ZM78.3177 56.0509 150.82 56.0509 150.82 70.6395 78.3177 70.6395Z" fill="#0A558C" fill-rule="evenodd" transform="matrix(1.00026 0 0 1 -78.3381 -27.6415)"/><path d="M78.3177 195.794 658.79 195.794 658.79 254.149 78.3177 254.149Z" fill="#FF0000" transform="matrix(1.00026 0 0 1 -78.3381 -27.6415)"/><text fill="#FFFFFF" font-family="Calibri,Calibri_MSFontService,sans-serif" font-weight="400" font-size="19" transform="matrix(0.768021 0 0 0.767821 508.424 217)">p</text><text fill="#FFFFFF" font-family="Calibri,Calibri_MSFontService,sans-serif" font-weight="400" font-size="19" transform="matrix(0.768021 0 0 0.767821 515.976 217)">-</text><text fill="#FFFFFF" font-family="Calibri,Calibri_MSFontService,sans-serif" font-weight="400" font-size="19" transform="matrix(0.768021 0 0 0.767821 520.329 217)">substrate</text><path d="M397.731 181.974 630.381 181.974 630.381 225.739 397.731 225.739Z" fill="#00915A" transform="matrix(1.00026 0 0 1 -78.3381 -27.6415)"/><text fill="#FFFFFF" font-family="Calibri,Calibri_MSFontService,sans-serif" font-weight="400" font-size="19" transform="matrix(0.768021 0 0 0.767821 510.682 180)">NWell</text><text fill="#FFFFFF" font-family="Calibri,Calibri_MSFontService,sans-serif" font-weight="400" font-size="19" transform="matrix(0.768021 0 0 0.767821 554.399 166)">FOX</text><path d="M78.3177 152.796 658.79 152.796 658.79 181.206 78.3177 181.206Z" fill="#268796" transform="matrix(1.00026 0 0 1 -78.3381 -27.6415)"/><text fill="#FFFFFF" font-family="Calibri,Calibri_MSFontService,sans-serif" font-weight="400" font-size="19" transform="matrix(0.768021 0 0 0.767821 523.006 144)">Insulator</text><path d="M585.599 181.206 658.022 181.206 658.022 195.794 585.599 195.794ZM367.786 181.206 440.48 181.206 440.48 195.794 367.786 195.794Z" fill="#0A558C" fill-rule="evenodd" transform="matrix(1.00026 0 0 1 -78.3381 -27.6415)"/><text fill="#FFFFFF" font-family="Calibri,Calibri_MSFontService,sans-serif" font-weight="400" font-size="19" transform="matrix(0.768021 0 0 0.767821 551.432 166)">FOX</text><path d="M499.083 166.617 528.261 166.617 528.261 181.206 499.083 181.206Z" fill="#FFC000" transform="matrix(1.00026 0 0 1 -78.3381 -27.6415)"/><path d="M440.729 181.206 585.847 181.206 585.847 195.794 440.729 195.794Z" fill="#F6AE7B" transform="matrix(1.00026 0 0 1 -78.3381 -27.6415)"/><text fill="#FFFFFF" font-family="Calibri,Calibri_MSFontService,sans-serif" font-weight="400" font-size="19" transform="matrix(0.768021 0 0 0.767821 487.106 166)">p</text><text fill="#FFFFFF" font-family="Calibri,Calibri_MSFontService,sans-serif" font-weight="400" font-size="19" transform="matrix(0.768021 0 0 0.767821 494.772 166)">+</text><path d="M499.083 181.206 528.261 181.206 528.261 198.098 499.083 198.098Z" fill="#00915A" transform="matrix(1.00026 0 0 1 -78.3381 -27.6415)"/><path d="M150.493 181.206 295.611 181.206 295.611 195.794 150.493 195.794Z" fill="#F6AE7B" transform="matrix(1.00026 0 0 1 -78.3381 -27.6415)"/><text fill="#FFFFFF" font-family="Calibri,Calibri_MSFontService,sans-serif" font-weight="400" font-size="19" transform="matrix(0.768021 0 0 0.767821 197.035 166)">n</text><text fill="#FFFFFF" font-family="Calibri,Calibri_MSFontService,sans-serif" font-weight="400" font-size="19" transform="matrix(0.768021 0 0 0.767821 204.702 166)">+</text><path d="M208.847 166.617 238.024 166.617 238.024 181.206 208.847 181.206Z" fill="#FFC000" transform="matrix(1.00026 0 0 1 -78.3381 -27.6415)"/><path d="M208.847 181.974 238.024 181.974 238.024 196.562 208.847 196.562Z" fill="#FF0000" transform="matrix(1.00026 0 0 1 -78.3381 -27.6415)"/><path d="M296.13 181.206 368.554 181.206 368.554 195.794 296.13 195.794ZM78.3177 181.206 151.012 181.206 151.012 195.794 78.3177 195.794Z" fill="#0A558C" fill-rule="evenodd" transform="matrix(1.00026 0 0 1 -78.3381 -27.6415)"/><path d="M172.76 152.029 186.58 152.029 186.58 181.206 172.76 181.206Z" fill="#FFFFFF" transform="matrix(1.00026 0 0 1 -78.3381 -27.6415)"/><path d="M259.523 152.029 274.112 152.029 274.112 181.206 259.523 181.206Z" fill="#FFFFFF" transform="matrix(1.00026 0 0 1 -78.3381 -27.6415)"/><path d="M215.758 152.029 230.346 152.029 230.346 166.617 215.758 166.617Z" fill="#FFFFFF" transform="matrix(1.00026 0 0 1 -78.3381 -27.6415)"/><path d="M462.996 152.029 476.817 152.029 476.817 181.206 462.996 181.206Z" fill="#FFFFFF" transform="matrix(1.00026 0 0 1 -78.3381 -27.6415)"/><path d="M549.76 152.029 564.348 152.029 564.348 181.206 549.76 181.206Z" fill="#FFFFFF" transform="matrix(1.00026 0 0 1 -78.3381 -27.6415)"/><path d="M505.994 152.029 520.582 152.029 520.582 166.617 505.994 166.617Z" fill="#FFFFFF" transform="matrix(1.00026 0 0 1 -78.3381 -27.6415)"/><text fill="#FFC000" font-family="Calibri,Calibri_MSFontService,sans-serif" font-weight="400" font-size="19" transform="matrix(0.768021 0 0 0.767821 196.218 151)">PolyGa</text><text fill="#FFC000" font-family="Calibri,Calibri_MSFontService,sans-serif" font-weight="400" font-size="19" transform="matrix(0.768021 0 0 0.767821 236.631 151)">t</text><text fill="#FFC000" font-family="Calibri,Calibri_MSFontService,sans-serif" font-weight="400" font-size="19" transform="matrix(0.768021 0 0 0.767821 486.882 153)">PolyGa</text><text fill="#FFC000" font-family="Calibri,Calibri_MSFontService,sans-serif" font-weight="400" font-size="19" transform="matrix(0.768021 0 0 0.767821 527.296 153)">t</text><path d="M78.3177 343.216 658.79 343.216 658.79 401.57 78.3177 401.57Z" fill="#FF0000" transform="matrix(1.00026 0 0 1 -78.3381 -27.6415)"/><text fill="#FFFFFF" font-family="Calibri,Calibri_MSFontService,sans-serif" font-weight="400" font-size="19" transform="matrix(0.768021 0 0 0.767821 508.424 364)">p</text><text fill="#FFFFFF" font-family="Calibri,Calibri_MSFontService,sans-serif" font-weight="400" font-size="19" transform="matrix(0.768021 0 0 0.767821 515.976 364)">-</text><text fill="#FFFFFF" font-family="Calibri,Calibri_MSFontService,sans-serif" font-weight="400" font-size="19" transform="matrix(0.768021 0 0 0.767821 520.329 364)">substrate</text><path d="M397.731 330.163 630.381 330.163 630.381 373.161 397.731 373.161Z" fill="#00915A" transform="matrix(1.00026 0 0 1 -78.3381 -27.6415)"/><text fill="#FFFFFF" font-family="Calibri,Calibri_MSFontService,sans-serif" font-weight="400" font-size="19" transform="matrix(0.768021 0 0 0.767821 510.682 329)">NWell</text><text fill="#FFFFFF" font-family="Calibri,Calibri_MSFontService,sans-serif" font-weight="400" font-size="19" transform="matrix(0.768021 0 0 0.767821 554.399 314)">FOX</text><path d="M78.3177 300.218 658.79 300.218 658.79 329.395 78.3177 329.395Z" fill="#268796" transform="matrix(1.00026 0 0 1 -78.3381 -27.6415)"/><text fill="#FFFFFF" font-family="Calibri,Calibri_MSFontService,sans-serif" font-weight="400" font-size="19" transform="matrix(0.768021 0 0 0.767821 523.006 292)">Insulator</text><path d="M585.599 329.395 658.022 329.395 658.022 343.984 585.599 343.984ZM367.786 329.395 440.48 329.395 440.48 343.984 367.786 343.984Z" fill="#0A558C" fill-rule="evenodd" transform="matrix(1.00026 0 0 1 -78.3381 -27.6415)"/><text fill="#FFFFFF" font-family="Calibri,Calibri_MSFontService,sans-serif" font-weight="400" font-size="19" transform="matrix(0.768021 0 0 0.767821 551.432 313)">FOX</text><path d="M499.083 314.039 528.261 314.039 528.261 328.627 499.083 328.627Z" fill="#FFC000" transform="matrix(1.00026 0 0 1 -78.3381 -27.6415)"/><path d="M440.729 329.395 585.847 329.395 585.847 343.984 440.729 343.984Z" fill="#F6AE7B" transform="matrix(1.00026 0 0 1 -78.3381 -27.6415)"/><text fill="#FFFFFF" font-family="Calibri,Calibri_MSFontService,sans-serif" font-weight="400" font-size="19" transform="matrix(0.768021 0 0 0.767821 487.106 313)">p</text><text fill="#FFFFFF" font-family="Calibri,Calibri_MSFontService,sans-serif" font-weight="400" font-size="19" transform="matrix(0.768021 0 0 0.767821 494.772 313)">+</text><path d="M499.083 328.627 528.261 328.627 528.261 345.519 499.083 345.519Z" fill="#00915A" transform="matrix(1.00026 0 0 1 -78.3381 -27.6415)"/><path d="M150.493 329.395 295.611 329.395 295.611 343.984 150.493 343.984Z" fill="#F6AE7B" transform="matrix(1.00026 0 0 1 -78.3381 -27.6415)"/><text fill="#FFFFFF" font-family="Calibri,Calibri_MSFontService,sans-serif" font-weight="400" font-size="19" transform="matrix(0.768021 0 0 0.767821 197.035 313)">n</text><text fill="#FFFFFF" font-family="Calibri,Calibri_MSFontService,sans-serif" font-weight="400" font-size="19" transform="matrix(0.768021 0 0 0.767821 204.702 313)">+</text><path d="M208.847 314.807 238.024 314.807 238.024 329.395 208.847 329.395Z" fill="#FFC000" transform="matrix(1.00026 0 0 1 -78.3381 -27.6415)"/><path d="M208.847 329.395 238.024 329.395 238.024 343.984 208.847 343.984Z" fill="#FF0000" transform="matrix(1.00026 0 0 1 -78.3381 -27.6415)"/><path d="M296.13 329.395 368.554 329.395 368.554 343.984 296.13 343.984ZM78.3177 329.395 151.012 329.395 151.012 343.984 78.3177 343.984Z" fill="#0A558C" fill-rule="evenodd" transform="matrix(1.00026 0 0 1 -78.3381 -27.6415)"/><path d="M172.76 299.45 186.58 299.45 186.58 328.627 172.76 328.627Z" fill="#FFFF00" transform="matrix(1.00026 0 0 1 -78.3381 -27.6415)"/><path d="M259.523 299.45 274.112 299.45 274.112 328.627 259.523 328.627Z" fill="#FFFF00" transform="matrix(1.00026 0 0 1 -78.3381 -27.6415)"/><path d="M215.758 299.45 230.346 299.45 230.346 314.039 215.758 314.039Z" fill="#FFFFFF" transform="matrix(1.00026 0 0 1 -78.3381 -27.6415)"/><path d="M462.996 299.45 476.817 299.45 476.817 328.627 462.996 328.627Z" fill="#FFFF00" transform="matrix(1.00026 0 0 1 -78.3381 -27.6415)"/><path d="M549.76 300.218 564.348 300.218 564.348 329.395 549.76 329.395Z" fill="#FFFF00" transform="matrix(1.00026 0 0 1 -78.3381 -27.6415)"/><path d="M505.994 299.45 520.582 299.45 520.582 314.039 505.994 314.039Z" fill="#FFFFFF" transform="matrix(1.00026 0 0 1 -78.3381 -27.6415)"/><text fill="#FFC000" font-family="Calibri,Calibri_MSFontService,sans-serif" font-weight="400" font-size="19" transform="matrix(0.768021 0 0 0.767821 196.84 299)">PolyGa</text><text fill="#FFC000" font-family="Calibri,Calibri_MSFontService,sans-serif" font-weight="400" font-size="19" transform="matrix(0.768021 0 0 0.767821 237.253 299)">t</text><text fill="#FFC000" font-family="Calibri,Calibri_MSFontService,sans-serif" font-weight="400" font-size="19" transform="matrix(0.768021 0 0 0.767821 486.242 300)">PolyGa</text><text fill="#FFC000" font-family="Calibri,Calibri_MSFontService,sans-serif" font-weight="400" font-size="19" transform="matrix(0.768021 0 0 0.767821 526.655 300)">t</text><path d="M78.3177 285.629 194.259 285.629 194.259 300.218 78.3177 300.218Z" fill="#FFFF00" transform="matrix(1.00026 0 0 1 -78.3381 -27.6415)"/><path d="M252.613 285.629 484.495 285.629 484.495 300.218 252.613 300.218Z" fill="#FFFF00" transform="matrix(1.00026 0 0 1 -78.3381 -27.6415)"/><path d="M542.849 285.629 658.79 285.629 658.79 300.218 542.849 300.218Z" fill="#FFFF00" transform="matrix(1.00026 0 0 1 -78.3381 -27.6415)"/><text fill="#191919" font-family="Calibri,Calibri_MSFontService,sans-serif" font-weight="400" font-size="19" transform="matrix(0.768021 0 0 0.767821 500.065 270)">Metal </text><text fill="#191919" font-family="Calibri,Calibri_MSFontService,sans-serif" font-weight="400" font-size="19" transform="matrix(0.768021 0 0 0.767821 538.071 270)">1</text></g></svg>