<svg xmlns="http://www.w3.org/2000/svg" xmlns:xlink="http://www.w3.org/1999/xlink" width="900" height="895" version="1.1">
<style type="text/css">
.l0{
  fill: #000000;
  stroke: #000000;
  stroke-linecap:round;
  stroke-linejoin:round;
  stroke-width: 0.801735;
}
.l1{
  fill: #00ccee;
  stroke: #00ccee;
  stroke-linecap:round;
  stroke-linejoin:round;
  stroke-width: 0.801735;
}
.l2{
  fill: #4f4f4f; fill-opacity: 0.2;
  stroke: #4f4f4f;
  stroke-linecap:round;
  stroke-linejoin:round;
  stroke-width: 0.801735;
}
.l3{
  fill: #cccccc; fill-opacity: 0.5;
  stroke: #cccccc;
  stroke-linecap:round;
  stroke-linejoin:round;
  stroke-width: 0.801735;
}
.l4{
  fill: #88dd00;
  stroke: #88dd00;
  stroke-linecap:round;
  stroke-linejoin:round;
  stroke-width: 0.801735;
}
.l5{
  fill: #bb2200;
  stroke: #bb2200;
  stroke-linecap:round;
  stroke-linejoin:round;
  stroke-width: 0.801735;
}
.l6{
  fill: #00ccee; fill-opacity: 0.5;
  stroke: #00ccee;
  stroke-linecap:round;
  stroke-linejoin:round;
  stroke-width: 0.801735;
}
.l7{
  fill: #ff0000; fill-opacity: 0.5;
  stroke: #ff0000;
  stroke-linecap:round;
  stroke-linejoin:round;
  stroke-width: 0.801735;
}
.l8{
  fill: #ffff00; fill-opacity: 0.5;
  stroke: #ffff00;
  stroke-linecap:round;
  stroke-linejoin:round;
  stroke-width: 0.801735;
}
.l9{
  fill: #ffffff; fill-opacity: 0.5;
  stroke: #ffffff;
  stroke-linecap:round;
  stroke-linejoin:round;
  stroke-width: 0.801735;
}
.l10{
  fill: #ff00ff;
  stroke: #ff00ff;
  stroke-linecap:round;
  stroke-linejoin:round;
  stroke-width: 0.801735;
}
.l11{
  fill: #00ff00; fill-opacity: 0.5;
  stroke: #00ff00;
  stroke-linecap:round;
  stroke-linejoin:round;
  stroke-width: 0.801735;
}
.l12{
  fill: #0000ff; fill-opacity: 0.5;
  stroke: #0000ff;
  stroke-linecap:round;
  stroke-linejoin:round;
  stroke-width: 0.801735;
}
.l13{
  fill: #aaaa00; fill-opacity: 0.5;
  stroke: #aaaa00;
  stroke-linecap:round;
  stroke-linejoin:round;
  stroke-width: 0.801735;
}
.l14{
  fill: #aaccaa; fill-opacity: 0.2;
  stroke: #aaccaa;
  stroke-linecap:round;
  stroke-linejoin:round;
  stroke-width: 0.801735;
}
.l15{
  fill: #ff7777; fill-opacity: 0.5;
  stroke: #ff7777;
  stroke-linecap:round;
  stroke-linejoin:round;
  stroke-width: 0.801735;
}
.l16{
  fill: #bfff81; fill-opacity: 0.5;
  stroke: #bfff81;
  stroke-linecap:round;
  stroke-linejoin:round;
  stroke-width: 0.801735;
}
.l17{
  fill: #00ffcc; fill-opacity: 0.2;
  stroke: #00ffcc;
  stroke-linecap:round;
  stroke-linejoin:round;
  stroke-width: 0.801735;
}
.l18{
  fill: #ce0097; fill-opacity: 0.5;
  stroke: #ce0097;
  stroke-linecap:round;
  stroke-linejoin:round;
  stroke-width: 0.801735;
}
.l19{
  fill: #d2d46b; fill-opacity: 0.2;
  stroke: #d2d46b;
  stroke-linecap:round;
  stroke-linejoin:round;
  stroke-width: 0.801735;
}
.l20{
  fill: #ef6158; fill-opacity: 0.2;
  stroke: #ef6158;
  stroke-linecap:round;
  stroke-linejoin:round;
  stroke-width: 0.801735;
}
.l21{
  fill: #fdb200; fill-opacity: 0.2;
  stroke: #fdb200;
  stroke-linecap:round;
  stroke-linejoin:round;
  stroke-width: 0.801735;
}
text {font-family: Sans-Serif;}
</style>
<rect class="l0" x="0" y="0" width="900" height="895"/>
<text fill="#00ccee"  xml:space="preserve" font-size="10.4226" transform="translate(200.633, 558.096)" >v_out</text>
<text fill="#00ccee"  xml:space="preserve" font-size="10.4226" transform="translate(29.893, 417.05)" >Vdd</text>
<text fill="#00ccee"  xml:space="preserve" font-size="10.4226" transform="translate(89.2808, 417.05)" >Vss</text>
<text fill="#00ccee"  xml:space="preserve" font-size="10.4226" transform="translate(172.051, 537.389) rotate(270)" >Vdd</text>
<text fill="#00ccee"  xml:space="preserve" font-size="10.4226" transform="translate(172.051, 602.642) rotate(270)" >Vss</text>
<text fill="#00ccee"  xml:space="preserve" font-size="10.4226" transform="translate(71.9925, 558.096)" >v_in</text>
<text fill="#00ccee"  xml:space="preserve" font-size="7.72041" transform="translate(33.6047, 475.732)" >GND</text>
<text fill="#00ccee"  xml:space="preserve" font-size="7.72041" transform="translate(92.9925, 475.732)" >GND</text>
<text fill="#00ccee"  xml:space="preserve" font-size="10.4226" transform="translate(156.092, 417.05)" >v_in</text>
<text fill="#00ccee"  xml:space="preserve" font-size="7.72041" transform="translate(159.804, 475.732)" >GND</text>
<text fill="#cccccc"  xml:space="preserve" font-size="7.72041" transform="translate(42.8841, 435.831)" >Vdd1</text>
<text fill="#cccccc"  xml:space="preserve" font-size="7.72041" transform="translate(42.8841, 454.39)" >1.5</text>
<text fill="#cccccc"  xml:space="preserve" font-size="7.72041" transform="translate(102.272, 435.831)" >Vss1</text>
<text fill="#cccccc"  xml:space="preserve" font-size="7.72041" transform="translate(102.272, 454.39)" >0</text>
<text fill="#cccccc"  xml:space="preserve" font-size="11.5806" transform="translate(402.922, 134.046)" >NGSPICE1</text>
<text fill="#cccccc"  xml:space="preserve" font-size="11.5806" style="font-family:Monospace;" transform="translate(410.346, 165.887)" >*Vin v_in 0 dc 0 pulse(0 1.5 0 1n 1n 4n 10n)</text>
<text fill="#cccccc"  xml:space="preserve" font-size="11.5806" style="font-family:Monospace;" transform="translate(410.346, 192.453)" >.control</text>
<text fill="#cccccc"  xml:space="preserve" font-size="11.5806" style="font-family:Monospace;" transform="translate(410.346, 205.736)" >reset</text>
<text fill="#cccccc"  xml:space="preserve" font-size="11.5806" style="font-family:Monospace;" transform="translate(410.346, 219.019)" >dc vin 0 1.5 0.01 </text>
<text fill="#cccccc"  xml:space="preserve" font-size="11.5806" style="font-family:Monospace;" transform="translate(410.346, 232.302)" >save all</text>
<text fill="#cccccc"  xml:space="preserve" font-size="11.5806" style="font-family:Monospace;" transform="translate(410.346, 245.585)" >let VP = 1.5</text>
<text fill="#cccccc"  xml:space="preserve" font-size="11.5806" style="font-family:Monospace;" transform="translate(410.346, 258.868)" >let vo_mid = VP/2</text>
<text fill="#cccccc"  xml:space="preserve" font-size="11.5806" style="font-family:Monospace;" transform="translate(410.346, 272.151)" >let dvout = deriv(v(v_out))</text>
<text fill="#cccccc"  xml:space="preserve" font-size="11.5806" style="font-family:Monospace;" transform="translate(410.346, 285.434)" >meas DC VSW find v(v_in) when v(v_out)=vo_mid</text>
<text fill="#cccccc"  xml:space="preserve" font-size="11.5806" style="font-family:Monospace;" transform="translate(410.346, 298.717)" >meas DC VIL find v(v_in) WHEN dvout=-1 CROSS=1</text>
<text fill="#cccccc"  xml:space="preserve" font-size="11.5806" style="font-family:Monospace;" transform="translate(410.346, 312)" >meas DC VIH find v(v_in) WHEN dvout=-1 CROSS=2</text>
<text fill="#cccccc"  xml:space="preserve" font-size="11.5806" style="font-family:Monospace;" transform="translate(410.346, 325.283)" >meas DC VOL find v(v_out) WHEN dvout=-1 CROSS=2</text>
<text fill="#cccccc"  xml:space="preserve" font-size="11.5806" style="font-family:Monospace;" transform="translate(410.346, 338.566)" >meas DC VOH find v(v_out) WHEN dvout=-1 CROSS=1</text>
<text fill="#cccccc"  xml:space="preserve" font-size="11.5806" style="font-family:Monospace;" transform="translate(410.346, 351.849)" >echo VTC measurements</text>
<text fill="#cccccc"  xml:space="preserve" font-size="11.5806" style="font-family:Monospace;" transform="translate(410.346, 365.132)" >print VSW</text>
<text fill="#cccccc"  xml:space="preserve" font-size="11.5806" style="font-family:Monospace;" transform="translate(410.346, 378.415)" >print VIL</text>
<text fill="#cccccc"  xml:space="preserve" font-size="11.5806" style="font-family:Monospace;" transform="translate(410.346, 391.698)" >print VIH</text>
<text fill="#cccccc"  xml:space="preserve" font-size="11.5806" style="font-family:Monospace;" transform="translate(410.346, 404.981)" >print VOH</text>
<text fill="#cccccc"  xml:space="preserve" font-size="11.5806" style="font-family:Monospace;" transform="translate(410.346, 418.264)" >print VOL</text>
<text fill="#cccccc"  xml:space="preserve" font-size="11.5806" style="font-family:Monospace;" transform="translate(410.346, 431.547)" >echo </text>
<text fill="#cccccc"  xml:space="preserve" font-size="11.5806" style="font-family:Monospace;" transform="translate(410.346, 444.83)" >*set filetype=binary</text>
<text fill="#cccccc"  xml:space="preserve" font-size="11.5806" style="font-family:Monospace;" transform="translate(410.346, 458.113)" >*write ./Analog_Inverter/simulations/tb_inv_dc.raw</text>
<text fill="#cccccc"  xml:space="preserve" font-size="11.5806" style="font-family:Monospace;" transform="translate(410.346, 471.396)" >             </text>
<text fill="#cccccc"  xml:space="preserve" font-size="11.5806" style="font-family:Monospace;" transform="translate(410.346, 484.679)" >plot v(v_out)                  </text>
<text fill="#cccccc"  xml:space="preserve" font-size="11.5806" style="font-family:Monospace;" transform="translate(410.346, 524.527)" >.endc</text>
<text fill="#cccccc"  xml:space="preserve" font-size="11.5806" style="font-family:Monospace;" transform="translate(410.346, 537.81)" >.end</text>
<text fill="#cccccc"  xml:space="preserve" font-size="11.5806" transform="translate(402.922, 579.454)" >MODEL1</text>
<text fill="#cccccc"  xml:space="preserve" font-size="11.5806" style="font-family:Monospace;" transform="translate(410.346, 598.013)" >.lib cornerMOSlv.lib mos_tt</text>
<text fill="#cccccc"  xml:space="preserve" font-size="7.72041" transform="translate(169.083, 435.831)" >Vin</text>
<text fill="#cccccc"  xml:space="preserve" font-size="7.72041" transform="translate(169.083, 454.39)" >dc 0 pulse(0 1.5 0 1n 1n 4n 10n)</text>
<text fill="#cccccc"  xml:space="preserve" font-size="15.4408" transform="translate(298.994, 749.987)" >         /foss/designs/Thesis/workspace/thesis_hp/Designs/Analog_Inverter/Schematics/Analog_Inverter/testbenches_Analog_Inverter/tb_Analog_Inverter_dc.sch</text>
<text fill="#cccccc"  xml:space="preserve" font-size="15.4408" transform="translate(298.994, 727.717)" >(c) 2024 Hrishikesh, @HSB</text>
<text fill="#cccccc"  xml:space="preserve" font-size="15.4408" transform="translate(709.736, 727.717)" >2025-05-03  18:31:02</text>
<text fill="#cccccc"  xml:space="preserve" font-size="38.602" transform="translate(128.254, 748.747)" >SCHEM</text>
<text fill="#cccccc"  xml:space="preserve" font-size="7.72041" transform="translate(195.065, 529.923)" >x1</text>
<text fill="#cccccc"  xml:space="preserve" font-size="7.72041" transform="translate(142.948, 535.862)" >vdd</text>
<text fill="#cccccc"  xml:space="preserve" font-size="7.72041" transform="translate(113.407, 565.556)" >vin</text>
<text fill="#cccccc"  xml:space="preserve" font-size="7.72041" transform="translate(191.912, 572.98)" >vout</text>
<text fill="#cccccc"  xml:space="preserve" font-size="7.72041" transform="translate(144.948, 595.25)" >vss</text>
<path class="l4" d="M29.893 426.037L33.6047 426.037"/>
<path class="l4" d="M31.7489 424.181L31.7489 427.893"/>
<path class="l4" d="M28.0371 420.469L28.0371 465.01"/>
<circle class="l4" cx="28.0371" cy="442.74" r="11.1352" style="fill:none;" />
<path class="l4" d="M89.2808 426.037L92.9925 426.037"/>
<path class="l4" d="M91.1366 424.181L91.1366 427.893"/>
<path class="l4" d="M87.4249 420.469L87.4249 465.01"/>
<circle class="l4" cx="87.4249" cy="442.74" r="11.1352" style="fill:none;" />
<path class="l4" d="M399.211 138.378L451.175 138.378"/>
<path class="l4" d="M399.211 138.378L399.211 153.225"/>
<path class="l4" d="M399.211 583.786L451.175 583.786"/>
<path class="l4" d="M399.211 583.786L399.211 598.633"/>
<path class="l4" d="M28.0371 465.01L28.0371 474.29"/>
<path class="l4" d="M24.3254 474.29L31.7489 474.29"/>
<path class="l4" d="M28.0371 478.001L31.7489 474.29"/>
<path class="l4" d="M24.3254 474.29L28.0371 478.001"/>
<path class="l4" d="M87.4249 465.01L87.4249 474.29"/>
<path class="l4" d="M83.7132 474.29L91.1366 474.29"/>
<path class="l4" d="M87.4249 478.001L91.1366 474.29"/>
<path class="l4" d="M83.7132 474.29L87.4249 478.001"/>
<path class="l4" d="M156.092 426.037L159.804 426.037"/>
<path class="l4" d="M157.948 424.181L157.948 427.893"/>
<path class="l4" d="M154.236 420.469L154.236 465.01"/>
<circle class="l4" cx="154.236" cy="442.74" r="11.1352" style="fill:none;" />
<path class="l4" d="M154.236 465.01L154.236 474.29"/>
<path class="l4" d="M150.524 474.29L157.948 474.29"/>
<path class="l4" d="M154.236 478.001L157.948 474.29"/>
<path class="l4" d="M150.524 474.29L154.236 478.001"/>
<path class="l4" d="M94.8484 561.515L109.695 561.515"/>
<path class="l4" d="M183.93 561.515L198.777 561.515"/>
<path class="l4" style="fill:none;" d="M183.93 561.515L109.695 539.245L109.695 583.786L183.93 561.515L183.93 561.515"/>
<path class="l5" d="M197.849 560.587L199.705 560.587L199.705 562.443L197.849 562.443L197.849 560.587z"/>
<path class="l5" d="M26.1813 418.614L29.893 418.614L29.893 422.325L26.1813 422.325L26.1813 418.614z"/>
<path class="l5" d="M26.1813 463.154L29.893 463.154L29.893 466.866L26.1813 466.866L26.1813 463.154z"/>
<path class="l5" d="M85.569 418.614L89.2808 418.614L89.2808 422.325L85.569 422.325L85.569 418.614z"/>
<path class="l5" d="M85.569 463.154L89.2808 463.154L89.2808 466.866L85.569 466.866L85.569 463.154z"/>
<path class="l5" d="M27.1092 419.541L28.9651 419.541L28.9651 421.397L27.1092 421.397L27.1092 419.541z"/>
<path class="l5" d="M86.497 419.541L88.3528 419.541L88.3528 421.397L86.497 421.397L86.497 419.541z"/>
<path class="l5" d="M160.732 538.317L162.588 538.317L162.588 540.173L160.732 540.173L160.732 538.317z"/>
<path class="l5" d="M160.732 582.858L162.588 582.858L162.588 584.714L160.732 584.714L160.732 582.858z"/>
<path class="l5" d="M93.9204 560.587L95.7763 560.587L95.7763 562.443L93.9204 562.443L93.9204 560.587z"/>
<path class="l5" d="M26.1813 463.154L29.893 463.154L29.893 466.866L26.1813 466.866L26.1813 463.154z"/>
<path class="l5" d="M85.569 463.154L89.2808 463.154L89.2808 466.866L85.569 466.866L85.569 463.154z"/>
<path class="l5" d="M152.38 418.614L156.092 418.614L156.092 422.325L152.38 422.325L152.38 418.614z"/>
<path class="l5" d="M152.38 463.154L156.092 463.154L156.092 466.866L152.38 466.866L152.38 463.154z"/>
<path class="l5" d="M153.308 419.541L155.164 419.541L155.164 421.397L153.308 421.397L153.308 419.541z"/>
<path class="l5" d="M152.38 463.154L156.092 463.154L156.092 466.866L152.38 466.866L152.38 463.154z"/>
<path class="l5" d="M117.119 721.12L116.887 721.352L116.655 721.584L116.423 721.816L116.191 722.048L115.959 722.28L115.727 722.512L115.495 722.744L115.263 722.976L115.031 723.208L114.799 723.44L114.567 723.672L114.335 723.904L114.103 724.136L113.871 724.368L113.639 724.6L113.407 724.832L113.175 725.064L112.943 725.296L112.711 725.528L112.479 725.76L112.247 725.992L112.015 726.224L111.783 726.456L111.551 726.688L111.319 726.92L111.087 727.151L110.855 727.383L110.623 727.615L110.391 727.847L110.159 728.079L109.927 728.311L109.695 728.543L109.695 728.543L109.471 728.775L109.26 729.007L109.065 729.239L108.883 729.471L108.717 729.703L108.564 729.935L108.427 730.167L108.303 730.399L108.195 730.631L108.1 730.863L108.021 731.095L107.955 731.327L107.905 731.559L107.868 731.791L107.847 732.023L107.839 732.255L107.847 732.487L107.868 732.719L107.905 732.951L107.955 733.183L108.021 733.415L108.1 733.647L108.195 733.879L108.303 734.111L108.427 734.343L108.564 734.575L108.717 734.807L108.883 735.039L109.065 735.271L109.26 735.503L109.471 735.735L109.695 735.967L109.695 735.967L109.928 736.2L110.163 736.434L110.399 736.671L110.638 736.909L110.878 737.149L111.12 737.391L111.364 737.635L111.609 737.881L111.857 738.128L112.106 738.377L112.357 738.628L112.61 738.881L112.864 739.136L113.121 739.392L113.379 739.651L113.639 739.911L113.901 740.172L114.165 740.436L114.43 740.702L114.697 740.969L114.967 741.238L115.238 741.509L115.51 741.782L115.785 742.056L116.061 742.333L116.339 742.611L116.619 742.891L116.901 743.173L117.185 743.456L117.47 743.742L117.758 744.029L118.047 744.318L118.047 744.318L118.335 744.606L118.619 744.891L118.9 745.172L119.178 745.449L119.451 745.723L119.721 745.993L119.988 746.259L120.251 746.522L120.51 746.781L120.765 747.037L121.017 747.289L121.265 747.537L121.51 747.782L121.751 748.023L121.989 748.26L122.222 748.494L122.453 748.724L122.679 748.951L122.902 749.174L123.121 749.393L123.337 749.609L123.549 749.821L123.757 750.029L123.962 750.234L124.163 750.435L124.361 750.633L124.555 750.826L124.745 751.017L124.932 751.203L125.115 751.387L125.294 751.566L125.47 751.742L125.47 751.742L125.639 751.913L125.796 752.079L125.943 752.239L126.079 752.394L126.204 752.544L126.318 752.688L126.422 752.826L126.514 752.96L126.596 753.087L126.666 753.21L126.726 753.327L126.775 753.438L126.813 753.544L126.84 753.645L126.857 753.74L126.862 753.83L126.857 753.914L126.84 753.993L126.813 754.066L126.775 754.134L126.726 754.197L126.666 754.254L126.596 754.305L126.514 754.352L126.422 754.392L126.318 754.428L126.204 754.458L126.079 754.482L125.943 754.501L125.796 754.515L125.639 754.523L125.47 754.526L125.47 754.526L125.296 754.526L125.122 754.526L124.948 754.526L124.774 754.526L124.6 754.526L124.426 754.526L124.252 754.526L124.078 754.526L123.904 754.526L123.73 754.526L123.556 754.526L123.382 754.526L123.208 754.526L123.034 754.526L122.86 754.526L122.686 754.526L122.512 754.526L122.338 754.526L122.164 754.526L121.99 754.526L121.816 754.526L121.642 754.526L121.468 754.526L121.294 754.526L121.12 754.526L120.946 754.526L120.773 754.526L120.599 754.526L120.425 754.526L120.251 754.526L120.077 754.526L119.903 754.526L119.903 754.526L119.729 754.526L119.558 754.526L119.389 754.526L119.221 754.526L119.055 754.526L118.891 754.526L118.729 754.526L118.569 754.526L118.41 754.526L118.253 754.526L118.098 754.526L117.945 754.526L117.794 754.526L117.644 754.526L117.497 754.526L117.351 754.526L117.207 754.526L117.064 754.526L116.924 754.526L116.785 754.526L116.648 754.526L116.513 754.526L116.38 754.526L116.249 754.526L116.119 754.526L115.991 754.526L115.866 754.526L115.741 754.526L115.619 754.526L115.499 754.526L115.38 754.526L115.263 754.526L115.263 754.526L115.147 754.524L115.031 754.518L114.915 754.509L114.799 754.497L114.683 754.48L114.567 754.46L114.451 754.437L114.335 754.41L114.219 754.379L114.103 754.344L113.987 754.306L113.871 754.265L113.755 754.219L113.639 754.17L113.523 754.118L113.407 754.062L113.291 754.002L113.175 753.938L113.059 753.871L112.943 753.801L112.827 753.726L112.711 753.648L112.595 753.567L112.479 753.482L112.363 753.393L112.247 753.3L112.131 753.204L112.015 753.105L111.899 753.001L111.783 752.894L111.667 752.784L111.551 752.67L111.551 752.67L111.435 752.554L111.319 752.438L111.203 752.322L111.087 752.206L110.971 752.09L110.855 751.974L110.739 751.858L110.623 751.742L110.507 751.626L110.391 751.51L110.275 751.394L110.159 751.278L110.043 751.162L109.927 751.046L109.811 750.93L109.695 750.814L109.579 750.698L109.463 750.582L109.347 750.466L109.231 750.35L109.115 750.234L108.999 750.118L108.883 750.002L108.767 749.886L108.651 749.77L108.535 749.654L108.419 749.538L108.303 749.422L108.187 749.306L108.071 749.19L107.955 749.074L107.839 748.958L107.839 748.958L107.722 748.84L107.6 748.719L107.475 748.594L107.346 748.465L107.214 748.333L107.078 748.197L106.939 748.057L106.796 747.914L106.649 747.767L106.498 747.617L106.344 747.463L106.187 747.305L106.025 747.144L105.86 746.979L105.692 746.81L105.52 746.638L105.344 746.462L105.164 746.283L104.981 746.1L104.795 745.913L104.604 745.723L104.41 745.529L104.213 745.331L104.012 745.13L103.807 744.925L103.598 744.717L103.386 744.505L103.171 744.289L102.951 744.07L102.729 743.847L102.502 743.621L102.272 743.39L102.272 743.39L102.04 743.166L101.808 742.955L101.576 742.76L101.344 742.578L101.112 742.412L100.88 742.259L100.648 742.122L100.416 741.998L100.184 741.89L99.952 741.795L99.72 741.716L99.488 741.65L99.256 741.6L99.0241 741.563L98.7921 741.542L98.5601 741.534L98.3281 741.542L98.0961 741.563L97.8641 741.6L97.6322 741.65L97.4002 741.716L97.1682 741.795L96.9362 741.89L96.7042 741.998L96.4722 742.122L96.2403 742.259L96.0083 742.412L95.7763 742.578L95.5443 742.76L95.3123 742.955L95.0803 743.166L94.8484 743.39L94.8484 743.39L94.6182 743.621L94.3916 743.847L94.1687 744.07L93.9494 744.289L93.7338 744.505L93.5217 744.717L93.3133 744.925L93.1085 745.13L92.9073 745.331L92.7098 745.529L92.5158 745.723L92.3255 745.913L92.1389 746.1L91.9558 746.283L91.7764 746.462L91.6006 746.638L91.4284 746.81L91.2599 746.979L91.0949 747.144L90.9336 747.305L90.776 747.463L90.6219 747.617L90.4715 747.767L90.3247 747.914L90.1815 748.057L90.042 748.197L89.906 748.333L89.7737 748.465L89.645 748.594L89.52 748.719L89.3986 748.84L89.2808 748.958L89.2808 748.958L89.1648 749.074L89.0488 749.19L88.9328 749.306L88.8168 749.422L88.7008 749.538L88.5848 749.654L88.4688 749.77L88.3528 749.886L88.2368 750.002L88.1208 750.118L88.0049 750.234L87.8889 750.35L87.7729 750.466L87.6569 750.582L87.5409 750.698L87.4249 750.814L87.3089 750.93L87.1929 751.046L87.0769 751.162L86.9609 751.278L86.8449 751.394L86.7289 751.51L86.613 751.626L86.497 751.742L86.381 751.858L86.265 751.974L86.149 752.09L86.033 752.206L85.917 752.322L85.801 752.438L85.685 752.554L85.569 752.67L85.569 752.67L85.453 752.784L85.337 752.894L85.221 753.001L85.1051 753.105L84.9891 753.204L84.8731 753.3L84.7571 753.393L84.6411 753.482L84.5251 753.567L84.4091 753.648L84.2931 753.726L84.1771 753.801L84.0611 753.871L83.9451 753.938L83.8291 754.002L83.7132 754.062L83.5972 754.118L83.4812 754.17L83.3652 754.219L83.2492 754.265L83.1332 754.306L83.0172 754.344L82.9012 754.379L82.7852 754.41L82.6692 754.437L82.5532 754.46L82.4372 754.48L82.3213 754.497L82.2053 754.509L82.0893 754.518L81.9733 754.524L81.8573 754.526L81.8573 754.526L81.7404 754.526L81.6217 754.526L81.5012 754.526L81.3788 754.526L81.2547 754.526L81.1287 754.526L81.0009 754.526L80.8714 754.526L80.74 754.526L80.6068 754.526L80.4717 754.526L80.3349 754.526L80.1963 754.526L80.0558 754.526L79.9135 754.526L79.7694 754.526L79.6235 754.526L79.4758 754.526L79.3263 754.526L79.175 754.526L79.0218 754.526L78.8669 754.526L78.7101 754.526L78.5515 754.526L78.3911 754.526L78.2289 754.526L78.0649 754.526L77.8991 754.526L77.7314 754.526L77.562 754.526L77.3907 754.526L77.2176 754.526L77.2176 754.526L77.0436 754.526L76.8696 754.526L76.6957 754.526L76.5217 754.526L76.3477 754.526L76.1737 754.526L75.9997 754.526L75.8257 754.526L75.6517 754.526L75.4777 754.526L75.3038 754.526L75.1298 754.526L74.9558 754.526L74.7818 754.526L74.6078 754.526L74.4338 754.526L74.2598 754.526L74.0858 754.526L73.9119 754.526L73.7379 754.526L73.5639 754.526L73.3899 754.526L73.2159 754.526L73.0419 754.526L72.8679 754.526L72.6939 754.526L72.52 754.526L72.346 754.526L72.172 754.526L71.998 754.526L71.824 754.526L71.65 754.526L71.65 754.526L71.4815 754.523L71.3238 754.515L71.177 754.501L71.0411 754.482L70.916 754.458L70.8018 754.428L70.6985 754.392L70.6061 754.352L70.5245 754.305L70.4539 754.254L70.394 754.197L70.3451 754.134L70.3071 754.066L70.2799 753.993L70.2636 753.914L70.2581 753.83L70.2636 753.74L70.2799 753.645L70.3071 753.544L70.3451 753.438L70.394 753.327L70.4539 753.21L70.5245 753.087L70.6061 752.96L70.6985 752.826L70.8018 752.688L70.916 752.544L71.0411 752.394L71.177 752.239L71.3238 752.079L71.4815 751.913L71.65 751.742L71.65 751.742L71.8258 751.566L72.0052 751.387L72.1883 751.203L72.375 751.017L72.5653 750.826L72.7592 750.633L72.9567 750.435L73.1579 750.234L73.3627 750.029L73.5711 749.821L73.7832 749.609L73.9989 749.393L74.2181 749.174L74.4411 748.951L74.6676 748.724L74.8978 748.494L75.1316 748.26L75.369 748.023L75.61 747.782L75.8547 747.537L76.103 747.289L76.3549 747.037L76.6105 746.781L76.8696 746.522L77.1324 746.259L77.3989 745.993L77.6689 745.723L77.9426 745.449L78.2199 745.172L78.5008 744.891L78.7853 744.606L79.0735 744.318L79.0735 744.318L79.3626 744.029L79.6498 743.742L79.9353 743.456L80.2189 743.173L80.5007 742.891L80.7807 742.611L81.0589 742.333L81.3353 742.056L81.6099 741.782L81.8827 741.509L82.1536 741.238L82.4227 740.969L82.6901 740.702L82.9556 740.436L83.2193 740.172L83.4812 739.911L83.7412 739.651L83.9995 739.392L84.256 739.136L84.5106 738.881L84.7634 738.628L85.0144 738.377L85.2636 738.128L85.511 737.881L85.7566 737.635L86.0004 737.391L86.2423 737.149L86.4825 736.909L86.7208 736.671L86.9573 736.434L87.192 736.2L87.4249 735.967L87.4249 735.967L87.6496 735.735L87.8599 735.503L88.0556 735.271L88.2368 735.039L88.4036 734.807L88.5558 734.575L88.6936 734.343L88.8168 734.111L88.9255 733.879L89.0198 733.647L89.0995 733.415L89.1648 733.183L89.2155 732.951L89.2518 732.719L89.2735 732.487L89.2808 732.255L89.2735 732.023L89.2518 731.791L89.2155 731.559L89.1648 731.327L89.0995 731.095L89.0198 730.863L88.9255 730.631L88.8168 730.399L88.6936 730.167L88.5558 729.935L88.4036 729.703L88.2368 729.471L88.0556 729.239L87.8599 729.007L87.6496 728.775L87.4249 728.543L87.4249 728.543L87.192 728.311L86.9573 728.076L86.7208 727.839L86.4825 727.601L86.2423 727.361L86.0004 727.119L85.7566 726.875L85.511 726.63L85.2636 726.382L85.0144 726.133L84.7634 725.882L84.5106 725.629L84.256 725.374L83.9995 725.118L83.7412 724.86L83.4812 724.6L83.2193 724.338L82.9556 724.074L82.6901 723.809L82.4227 723.541L82.1536 723.272L81.8827 723.001L81.6099 722.728L81.3353 722.454L81.0589 722.177L80.7807 721.899L80.5007 721.619L80.2189 721.337L79.9353 721.054L79.6498 720.768L79.3626 720.481L79.0735 720.192L79.0735 720.192L78.7853 719.904L78.5008 719.619L78.2199 719.338L77.9426 719.061L77.6689 718.787L77.3989 718.517L77.1324 718.251L76.8696 717.988L76.6105 717.729L76.3549 717.473L76.103 717.222L75.8547 716.973L75.61 716.729L75.369 716.488L75.1316 716.25L74.8978 716.016L74.6676 715.786L74.4411 715.56L74.2181 715.337L73.9989 715.117L73.7832 714.902L73.5711 714.69L73.3627 714.481L73.1579 714.276L72.9567 714.075L72.7592 713.878L72.5653 713.684L72.375 713.493L72.1883 713.307L72.0052 713.124L71.8258 712.944L71.65 712.769L71.65 712.769L71.4815 712.597L71.3238 712.431L71.177 712.271L71.0411 712.116L70.916 711.967L70.8018 711.822L70.6985 711.684L70.6061 711.551L70.5245 711.423L70.4539 711.3L70.394 711.184L70.3451 711.072L70.3071 710.966L70.2799 710.866L70.2636 710.77L70.2581 710.681L70.2636 710.596L70.2799 710.518L70.3071 710.444L70.3451 710.376L70.394 710.314L70.4539 710.257L70.5245 710.205L70.6061 710.159L70.6985 710.118L70.8018 710.083L70.916 710.053L71.0411 710.028L71.177 710.009L71.3238 709.996L71.4815 709.987L71.65 709.985L71.65 709.985L71.824 709.985L71.998 709.985L72.172 709.985L72.346 709.985L72.52 709.985L72.6939 709.985L72.8679 709.985L73.0419 709.985L73.2159 709.985L73.3899 709.985L73.5639 709.985L73.7379 709.985L73.9119 709.985L74.0858 709.985L74.2598 709.985L74.4338 709.985L74.6078 709.985L74.7818 709.985L74.9558 709.985L75.1298 709.985L75.3038 709.985L75.4777 709.985L75.6517 709.985L75.8257 709.985L75.9997 709.985L76.1737 709.985L76.3477 709.985L76.5217 709.985L76.6957 709.985L76.8696 709.985L77.0436 709.985L77.2176 709.985L77.2176 709.985L77.3907 709.985L77.562 709.985L77.7314 709.985L77.8991 709.985L78.0649 709.985L78.2289 709.985L78.3911 709.985L78.5515 709.985L78.7101 709.985L78.8669 709.985L79.0218 709.985L79.175 709.985L79.3263 709.985L79.4758 709.985L79.6235 709.985L79.7694 709.985L79.9135 709.985L80.0558 709.985L80.1963 709.985L80.3349 709.985L80.4717 709.985L80.6068 709.985L80.74 709.985L80.8714 709.985L81.0009 709.985L81.1287 709.985L81.2547 709.985L81.3788 709.985L81.5012 709.985L81.6217 709.985L81.7404 709.985L81.8573 709.985L81.8573 709.985L81.9733 709.987L82.0893 709.992L82.2053 710.001L82.3213 710.014L82.4372 710.03L82.5532 710.05L82.6692 710.074L82.7852 710.101L82.9012 710.132L83.0172 710.166L83.1332 710.204L83.2492 710.246L83.3652 710.291L83.4812 710.34L83.5972 710.393L83.7132 710.449L83.8291 710.508L83.9451 710.572L84.0611 710.639L84.1771 710.71L84.2931 710.784L84.4091 710.862L84.5251 710.943L84.6411 711.029L84.7571 711.117L84.8731 711.21L84.9891 711.306L85.1051 711.406L85.221 711.509L85.337 711.616L85.453 711.726L85.569 711.841L85.569 711.841L85.685 711.957L85.801 712.073L85.917 712.189L86.033 712.305L86.149 712.421L86.265 712.537L86.381 712.653L86.497 712.769L86.613 712.885L86.7289 713.001L86.8449 713.116L86.9609 713.232L87.0769 713.348L87.1929 713.464L87.3089 713.58L87.4249 713.696L87.5409 713.812L87.6569 713.928L87.7729 714.044L87.8889 714.16L88.0049 714.276L88.1208 714.392L88.2368 714.508L88.3528 714.624L88.4688 714.74L88.5848 714.856L88.7008 714.972L88.8168 715.088L88.9328 715.204L89.0488 715.32L89.1648 715.436L89.2808 715.552L89.2808 715.552L89.3986 715.67L89.52 715.792L89.645 715.917L89.7737 716.045L89.906 716.178L90.042 716.314L90.1815 716.453L90.3247 716.596L90.4715 716.743L90.6219 716.893L90.776 717.048L90.9336 717.205L91.0949 717.367L91.2599 717.531L91.4284 717.7L91.6006 717.872L91.7764 718.048L91.9558 718.227L92.1389 718.41L92.3255 718.597L92.5158 718.787L92.7098 718.981L92.9073 719.179L93.1085 719.38L93.3133 719.585L93.5217 719.793L93.7338 720.005L93.9494 720.221L94.1687 720.44L94.3916 720.663L94.6182 720.89L94.8484 721.12L94.8484 721.12L95.0803 721.345L95.3123 721.555L95.5443 721.751L95.7763 721.932L96.0083 722.099L96.2403 722.251L96.4722 722.389L96.7042 722.512L96.9362 722.621L97.1682 722.715L97.4002 722.795L97.6322 722.86L97.8641 722.911L98.0961 722.947L98.3281 722.969L98.5601 722.976L98.7921 722.969L99.0241 722.947L99.256 722.911L99.488 722.86L99.72 722.795L99.952 722.715L100.184 722.621L100.416 722.512L100.648 722.389L100.88 722.251L101.112 722.099L101.344 721.932L101.576 721.751L101.808 721.555L102.04 721.345L102.272 721.12L102.272 721.12L102.502 720.89L102.729 720.663L102.951 720.44L103.171 720.221L103.386 720.005L103.598 719.793L103.807 719.585L104.012 719.38L104.213 719.179L104.41 718.981L104.604 718.787L104.795 718.597L104.981 718.41L105.164 718.227L105.344 718.048L105.52 717.872L105.692 717.7L105.86 717.531L106.025 717.367L106.187 717.205L106.344 717.048L106.498 716.893L106.649 716.743L106.796 716.596L106.939 716.453L107.078 716.314L107.214 716.178L107.346 716.045L107.475 715.917L107.6 715.792L107.722 715.67L107.839 715.552L107.839 715.552L107.955 715.436L108.071 715.32L108.187 715.204L108.303 715.088L108.419 714.972L108.535 714.856L108.651 714.74L108.767 714.624L108.883 714.508L108.999 714.392L109.115 714.276L109.231 714.16L109.347 714.044L109.463 713.928L109.579 713.812L109.695 713.696L109.811 713.58L109.927 713.464L110.043 713.348L110.159 713.232L110.275 713.116L110.391 713.001L110.507 712.885L110.623 712.769L110.739 712.653L110.855 712.537L110.971 712.421L111.087 712.305L111.203 712.189L111.319 712.073L111.435 711.957L111.551 711.841L111.551 711.841L111.667 711.726L111.783 711.616L111.899 711.509L112.015 711.406L112.131 711.306L112.247 711.21L112.363 711.117L112.479 711.029L112.595 710.943L112.711 710.862L112.827 710.784L112.943 710.71L113.059 710.639L113.175 710.572L113.291 710.508L113.407 710.449L113.523 710.393L113.639 710.34L113.755 710.291L113.871 710.246L113.987 710.204L114.103 710.166L114.219 710.132L114.335 710.101L114.451 710.074L114.567 710.05L114.683 710.03L114.799 710.014L114.915 710.001L115.031 709.992L115.147 709.987L115.263 709.985L115.263 709.985L115.38 709.985L115.499 709.985L115.619 709.985L115.741 709.985L115.866 709.985L115.991 709.985L116.119 709.985L116.249 709.985L116.38 709.985L116.513 709.985L116.648 709.985L116.785 709.985L116.924 709.985L117.064 709.985L117.207 709.985L117.351 709.985L117.497 709.985L117.644 709.985L117.794 709.985L117.945 709.985L118.098 709.985L118.253 709.985L118.41 709.985L118.569 709.985L118.729 709.985L118.891 709.985L119.055 709.985L119.221 709.985L119.389 709.985L119.558 709.985L119.729 709.985L119.903 709.985L119.903 709.985L120.077 709.985L120.251 709.985L120.425 709.985L120.599 709.985L120.773 709.985L120.946 709.985L121.12 709.985L121.294 709.985L121.468 709.985L121.642 709.985L121.816 709.985L121.99 709.985L122.164 709.985L122.338 709.985L122.512 709.985L122.686 709.985L122.86 709.985L123.034 709.985L123.208 709.985L123.382 709.985L123.556 709.985L123.73 709.985L123.904 709.985L124.078 709.985L124.252 709.985L124.426 709.985L124.6 709.985L124.774 709.985L124.948 709.985L125.122 709.985L125.296 709.985L125.47 709.985L125.47 709.985L125.639 709.987L125.796 709.996L125.943 710.009L126.079 710.028L126.204 710.053L126.318 710.083L126.422 710.118L126.514 710.159L126.596 710.205L126.666 710.257L126.726 710.314L126.775 710.376L126.813 710.444L126.84 710.518L126.857 710.596L126.862 710.681L126.857 710.77L126.84 710.866L126.813 710.966L126.775 711.072L126.726 711.184L126.666 711.3L126.596 711.423L126.514 711.551L126.422 711.684L126.318 711.822L126.204 711.967L126.079 712.116L125.943 712.271L125.796 712.431L125.639 712.597L125.47 712.769L125.47 712.769L125.293 712.945L125.111 713.127L124.924 713.315L124.731 713.508L124.532 713.706L124.328 713.91L124.119 714.12L123.904 714.334L123.684 714.555L123.458 714.78L123.227 715.011L122.991 715.248L122.749 715.49L122.502 715.737L122.249 715.99L121.99 716.248L121.727 716.512L121.458 716.781L121.183 717.056L120.903 717.336L120.618 717.621L120.327 717.912L120.03 718.208L119.729 718.51L119.421 718.817L119.109 719.13L118.791 719.448L118.467 719.772L118.138 720.1L117.804 720.435L117.464 720.775L117.119 721.12"/>
<path class="l5" d="M159.804 537.389L163.515 537.389L163.515 541.101L159.804 541.101L159.804 537.389z"/>
<path class="l5" d="M92.9925 559.659L96.7042 559.659L96.7042 563.371L92.9925 563.371L92.9925 559.659z"/>
<path class="l5" d="M196.921 559.659L200.633 559.659L200.633 563.371L196.921 563.371L196.921 559.659z"/>
<path class="l5" d="M159.804 581.93L163.515 581.93L163.515 585.642L159.804 585.642L159.804 581.93z"/>
<path class="l6" d="M291.57 732.255L881.736 732.255"/>
<path class="l6" d="M5.76673 732.255L54.0193 732.255"/>
<path class="l7" d="M161.66 539.245L161.66 554.092"/>
<path class="l7" d="M161.66 568.939L161.66 583.786"/>
</svg>
