<?xml version="1.0" standalone="no"?>
 <!DOCTYPE svg PUBLIC "-//W3C//DTD SVG 1.1//EN" 
 "http://www.w3.org/Graphics/SVG/1.1/DTD/svg11.dtd"> 
<svg
  xmlns:svg="http://www.w3.org/2000/svg"
  xmlns="http://www.w3.org/2000/svg"
  xmlns:xlink="http://www.w3.org/1999/xlink"
  version="1.1"
  width="297.002200mm" height="210.007200mm" viewBox="53 15 20 35">
<title>SVG Image created as Biquad filter-texas-B_Cu.svg date 2025/07/15 14:32:17 </title>
  <desc>Image generated by PCBNEW </desc>
<g style="fill:#000000; fill-opacity:1.000000;stroke:#000000; stroke-opacity:1.000000;
stroke-linecap:round; stroke-linejoin:round;"
 transform="translate(0 0) scale(1 1)">
<path style="fill:#4D7FC4; fill-opacity:1.000000; stroke:none;fill-rule:evenodd;"
d="M 45.400000,31.560000
45.400000,29.860000
47.100000,29.860000
47.100000,31.560000
Z" /> 
</g>
<g style="fill:#4D7FC4; fill-opacity:1.000000; stroke:none;">
<circle cx="46.250000" cy="33.250000" r="0.850000" /> 
<path style="fill:#4D7FC4; fill-opacity:1.000000; stroke:none;fill-rule:evenodd;"
d="M 51.145000,35.390000
51.164030,35.294329
51.218223,35.213223
51.299329,35.159030
51.395000,35.140000
52.495000,35.140000
52.590671,35.159030
52.671777,35.213223
52.725970,35.294329
52.745000,35.390000
52.745000,36.490000
52.725970,36.585671
52.671777,36.666777
52.590671,36.720970
52.495000,36.740000
51.395000,36.740000
51.299329,36.720970
51.218223,36.666777
51.164030,36.585671
51.145000,36.490000
Z" /> 
</g>
<g style="fill:#4D7FC4; fill-opacity:1.000000; stroke:none;">
<circle cx="51.945000" cy="38.480000" r="0.800000" /> 
</g>
<g style="fill:#4D7FC4; fill-opacity:1.000000; stroke:none;">
<circle cx="51.945000" cy="41.020000" r="0.800000" /> 
</g>
<g style="fill:#4D7FC4; fill-opacity:1.000000; stroke:none;">
<circle cx="51.945000" cy="43.560000" r="0.800000" /> 
</g>
<g style="fill:#4D7FC4; fill-opacity:1.000000; stroke:none;">
<circle cx="59.565000" cy="43.560000" r="0.800000" /> 
</g>
<g style="fill:#4D7FC4; fill-opacity:1.000000; stroke:none;">
<circle cx="59.565000" cy="41.020000" r="0.800000" /> 
</g>
<g style="fill:#4D7FC4; fill-opacity:1.000000; stroke:none;">
<circle cx="59.565000" cy="38.480000" r="0.800000" /> 
</g>
<g style="fill:#4D7FC4; fill-opacity:1.000000; stroke:none;">
<circle cx="59.565000" cy="35.940000" r="0.800000" /> 
<path style="fill:#4D7FC4; fill-opacity:1.000000; stroke:none;fill-rule:evenodd;"
d="M 72.645000,34.975000
72.664030,34.879329
72.718223,34.798223
72.799329,34.744030
72.895000,34.725000
73.995000,34.725000
74.090671,34.744030
74.171777,34.798223
74.225970,34.879329
74.245000,34.975000
74.245000,36.075000
74.225970,36.170671
74.171777,36.251777
74.090671,36.305970
73.995000,36.325000
72.895000,36.325000
72.799329,36.305970
72.718223,36.251777
72.664030,36.170671
72.645000,36.075000
Z" /> 
</g>
<g style="fill:#4D7FC4; fill-opacity:1.000000; stroke:none;">
<circle cx="73.445000" cy="38.065000" r="0.800000" /> 
</g>
<g style="fill:#4D7FC4; fill-opacity:1.000000; stroke:none;">
<circle cx="73.445000" cy="40.605000" r="0.800000" /> 
</g>
<g style="fill:#4D7FC4; fill-opacity:1.000000; stroke:none;">
<circle cx="73.445000" cy="43.145000" r="0.800000" /> 
</g>
<g style="fill:#4D7FC4; fill-opacity:1.000000; stroke:none;">
<circle cx="81.065000" cy="43.145000" r="0.800000" /> 
</g>
<g style="fill:#4D7FC4; fill-opacity:1.000000; stroke:none;">
<circle cx="81.065000" cy="40.605000" r="0.800000" /> 
</g>
<g style="fill:#4D7FC4; fill-opacity:1.000000; stroke:none;">
<circle cx="81.065000" cy="38.065000" r="0.800000" /> 
</g>
<g style="fill:#4D7FC4; fill-opacity:1.000000; stroke:none;">
<circle cx="81.065000" cy="35.525000" r="0.800000" /> 
<path style="fill:#4D7FC4; fill-opacity:1.000000; stroke:none;fill-rule:evenodd;"
d="M 47.100000,38.900000
47.100000,40.600000
45.400000,40.600000
45.400000,38.900000
Z" /> 
</g>
<g style="fill:#4D7FC4; fill-opacity:1.000000; stroke:none;">
<circle cx="46.250000" cy="37.210000" r="0.850000" /> 
<path style="fill:#4D7FC4; fill-opacity:1.000000; stroke:none;fill-rule:evenodd;"
d="M 62.250000,27.485000
60.550000,27.485000
60.550000,25.785000
62.250000,25.785000
Z" /> 
</g>
<g style="fill:#4D7FC4; fill-opacity:1.000000; stroke:none;">
<circle cx="63.940000" cy="26.635000" r="0.850000" /> 
</g>
<g style="fill:#4D7FC4; fill-opacity:1.000000; stroke:none;">
<circle cx="66.480000" cy="26.635000" r="0.850000" /> 
</g>
<g style="fill:#4D7FC4; fill-opacity:1.000000; stroke:none;">
<circle cx="69.020000" cy="26.635000" r="0.850000" /> 
</g>
<g style="fill:#4D7FC4; fill-opacity:1.000000; stroke:none;">
<circle cx="71.560000" cy="26.635000" r="0.850000" /> 
</g>
<g style="fill:#4D7FC4; fill-opacity:1.000000; stroke:none;">
<circle cx="74.100000" cy="26.635000" r="0.850000" /> 
<path style="fill:#4D7FC4; fill-opacity:1.000000; stroke:none;fill-rule:evenodd;"
d="M 47.100000,45.940000
47.100000,47.640000
45.400000,47.640000
45.400000,45.940000
Z" /> 
</g>
<g style="fill:#4D7FC4; fill-opacity:1.000000; stroke:none;">
<circle cx="46.250000" cy="44.250000" r="0.850000" /> 
</g>
<g style="fill:#4D7FC4; fill-opacity:1.000000; stroke:none;">
<circle cx="55.750000" cy="39.250000" r="0.500000" /> 
</g>
<g style="fill:none; 
stroke:#4D7FC4; stroke-width:0.635000; stroke-opacity:1; 
stroke-linecap:round; stroke-linejoin:round;">
<path d="M77.034218 25.216500
L70.438500 25.216500
" />
<path d="M70.438500 25.216500
L69.020000 26.635000
" />
<path d="M77.250000 31.720000
L77.280000 31.720000
" />
<path d="M73.445000 35.525000
L77.250000 31.720000
" />
<path d="M78.250000 30.750000
L78.250000 26.432282
" />
<path d="M78.250000 26.432282
L77.034218 25.216500
" />
<path d="M77.280000 31.720000
L78.250000 30.750000
" />
<path d="M60.883500 37.161500
L59.565000 38.480000
" />
<path d="M60.883500 29.691500
L60.883500 37.161500
" />
<path d="M63.940000 26.635000
L60.883500 29.691500
" />
<path d="M79.250000 26.250000
L77.250000 24.250000
" />
<path d="M63.785000 24.250000
L61.400000 26.635000
" />
<path d="M81.065000 38.065000
L79.250000 36.250000
" />
<path d="M79.250000 36.250000
L79.250000 26.250000
" />
<path d="M77.250000 24.250000
L63.785000 24.250000
" />
<path d="M54.335000 30.710000
L46.250000 30.710000
" />
<path d="M81.065000 35.525000
L81.065000 26.882718
" />
<path d="M59.565000 35.940000
L54.335000 30.710000
" />
<path d="M81.065000 26.882718
L76.932282 22.750000
" />
<path d="M54.210000 22.750000
L46.250000 30.710000
" />
<path d="M76.932282 22.750000
L54.210000 22.750000
" />
<path d="M48.135000 39.750000
L51.945000 43.560000
" />
<path d="M73.445000 43.145000
L71.661500 44.928500
" />
<path d="M46.250000 39.750000
L48.135000 39.750000
" />
<path d="M71.661500 44.928500
L53.313500 44.928500
" />
<path d="M51.945000 43.560000
L53.313500 44.928500
" />
<path d="M72.076500 28.658500
L72.076500 39.236500
" />
<path d="M44.831500 42.831500
L46.250000 44.250000
" />
<path d="M70.490000 43.560000
L73.445000 40.605000
" />
<path d="M71.560000 26.635000
L74.100000 26.635000
" />
<path d="M46.250000 33.250000
L46.250000 37.210000
" />
<path d="M72.076500 39.236500
L73.445000 40.605000
" />
<path d="M46.250000 37.210000
L48.135000 37.210000
" />
<path d="M52.020000 41.020000
L54.560000 43.560000
" />
<path d="M48.135000 37.210000
L51.945000 41.020000
" />
<path d="M46.250000 37.210000
L44.831500 38.628500
" />
<path d="M74.100000 26.635000
L72.076500 28.658500
" />
<path d="M54.560000 43.560000
L59.565000 43.560000
" />
<path d="M59.565000 43.560000
L70.490000 43.560000
" />
<path d="M51.945000 41.020000
L52.020000 41.020000
" />
<path d="M44.831500 38.628500
L44.831500 42.831500
" />
<path d="M73.445000 40.605000
L81.065000 40.605000
" />
<path style="fill:#4D7FC4; fill-opacity:1.000000; stroke:none;fill-rule:evenodd;"
d="M 53.570349,22.020185
53.616104,22.072989
53.626048,22.142147
53.597023,22.205703
53.590991,22.212181
46.479990,29.323181
46.418667,29.356666
46.392309,29.359500
45.352129,29.359500
45.352123,29.359501
45.292516,29.365908
45.157671,29.416202
45.157664,29.416206
45.042455,29.502452
45.042452,29.502455
44.956206,29.617664
44.956202,29.617671
44.905908,29.752517
44.899501,29.812116
44.899500,29.812135
44.899500,31.607870
44.899501,31.607876
44.905908,31.667483
44.956202,31.802328
44.956206,31.802335
45.042452,31.917544
45.042455,31.917547
45.157664,32.003793
45.157671,32.003797
45.188628,32.015343
45.292517,32.054091
45.352127,32.060500
45.362685,32.060499
45.429723,32.080179
45.450372,32.096818
46.120591,32.767037
46.057007,32.784075
45.942993,32.849901
45.849901,32.942993
45.784075,33.057007
45.767037,33.120591
45.134728,32.488282
45.134727,32.488282
45.095380,32.542439
44.998904,32.731782
44.933242,32.933869
44.933242,32.933872
44.900000,33.143753
44.900000,33.356246
44.933242,33.566127
44.933242,33.566130
44.998904,33.768217
45.095375,33.957550
45.134728,34.011716
45.767037,33.379408
45.784075,33.442993
45.849901,33.557007
45.942993,33.650099
46.057007,33.715925
46.120590,33.732962
45.488282,34.365269
45.488282,34.365270
45.542449,34.404624
45.731782,34.501095
45.933870,34.566757
46.143754,34.600000
46.356246,34.600000
46.566127,34.566757
46.566130,34.566757
46.768217,34.501095
46.957554,34.404622
47.011716,34.365270
47.011717,34.365270
46.379408,33.732962
46.442993,33.715925
46.557007,33.650099
46.650099,33.557007
46.715925,33.442993
46.732962,33.379409
47.365270,34.011717
47.365270,34.011716
47.404622,33.957554
47.501095,33.768217
47.566757,33.566130
47.566757,33.566127
47.600000,33.356246
47.600000,33.143753
47.566757,32.933872
47.566757,32.933869
47.501095,32.731782
47.404624,32.542449
47.365270,32.488282
47.365269,32.488282
46.732962,33.120590
46.715925,33.057007
46.650099,32.942993
46.557007,32.849901
46.442993,32.784075
46.379409,32.767037
47.049627,32.096818
47.110950,32.063333
47.137307,32.060499
47.147872,32.060499
47.207483,32.054091
47.342331,32.003796
47.457546,31.917546
47.543796,31.802331
47.594091,31.667483
47.597181,31.638745
47.623919,31.574194
47.681311,31.534345
47.720470,31.528000
53.944811,31.528000
54.011850,31.547685
54.032492,31.564319
58.228181,35.760008
58.261666,35.821331
58.264500,35.847689
58.264500,36.042352
58.268878,36.069995
58.296522,36.244534
58.359781,36.439223
58.452715,36.621613
58.573028,36.787213
58.717786,36.931971
58.872749,37.044556
58.883390,37.052287
58.974840,37.098883
58.976080,37.099515
59.026876,37.147490
59.043671,37.215311
59.021134,37.281446
58.976080,37.320485
58.883386,37.367715
58.717786,37.488028
58.573028,37.632786
58.452715,37.798386
58.359781,37.980776
58.296522,38.175465
58.264500,38.377648
58.264500,38.582351
58.296522,38.784534
58.359781,38.979223
58.452715,39.161613
58.573028,39.327213
58.717786,39.471971
58.872749,39.584556
58.883390,39.592287
58.974840,39.638883
58.976080,39.639515
59.026876,39.687490
59.043671,39.755311
59.021134,39.821446
58.976080,39.860485
58.883386,39.907715
58.717786,40.028028
58.573028,40.172786
58.452715,40.338386
58.359781,40.520776
58.296522,40.715465
58.264500,40.917648
58.264500,41.122351
58.296522,41.324534
58.359781,41.519223
58.452715,41.701613
58.573028,41.867213
58.717786,42.011971
58.883385,42.132284
58.883387,42.132285
58.883390,42.132287
58.975529,42.179234
58.976630,42.179795
59.027426,42.227770
59.044221,42.295591
59.021684,42.361725
58.976630,42.400765
58.883644,42.448143
58.839077,42.480523
58.839077,42.480524
59.518554,43.160000
59.512339,43.160000
59.410606,43.187259
59.319394,43.239920
59.244920,43.314394
59.192259,43.405606
59.165000,43.507339
59.165000,43.513553
58.485524,42.834077
58.485523,42.834077
58.453143,42.878644
58.360244,43.060968
58.297009,43.255582
58.265000,43.457682
58.265000,43.662317
58.297009,43.864417
58.324227,43.948181
58.326222,44.018022
58.290142,44.077855
58.227442,44.108684
58.206296,44.110500
53.703689,44.110500
53.636650,44.090815
53.616008,44.074181
53.281819,43.739992
53.248334,43.678669
53.245500,43.652311
53.245500,43.457648
53.213477,43.255465
53.174247,43.134728
53.150220,43.060781
53.150218,43.060778
53.150218,43.060776
53.116503,42.994607
53.057287,42.878390
53.025092,42.834077
52.936971,42.712786
52.792213,42.568028
52.626611,42.447713
52.533369,42.400203
52.482574,42.352229
52.465779,42.284407
52.488317,42.218273
52.533371,42.179234
52.626346,42.131861
52.626347,42.131861
52.670921,42.099474
51.991446,41.420000
51.997661,41.420000
52.099394,41.392741
52.190606,41.340080
52.265080,41.265606
52.317741,41.174394
52.345000,41.072661
52.345000,41.066448
53.024474,41.745922
53.024474,41.745921
53.056859,41.701349
53.149755,41.519031
53.212990,41.324417
53.245000,41.122317
53.245000,40.917682
53.212990,40.715582
53.149755,40.520968
53.056859,40.338650
53.024474,40.294077
53.024474,40.294076
52.345000,40.973551
52.345000,40.967339
52.317741,40.865606
52.265080,40.774394
52.190606,40.699920
52.099394,40.647259
51.997661,40.620000
51.991446,40.620000
52.670922,39.940524
52.670921,39.940523
52.626359,39.908147
52.626350,39.908141
52.533369,39.860765
52.482573,39.812790
52.465778,39.744969
52.488315,39.678835
52.533370,39.639795
52.533920,39.639515
52.626610,39.592287
52.763066,39.493147
52.792213,39.471971
52.792215,39.471968
52.792219,39.471966
52.936966,39.327219
52.936968,39.327215
52.936971,39.327213
53.011381,39.224795
53.057287,39.161610
53.150220,38.979219
53.213477,38.784534
53.245500,38.582352
53.245500,38.377648
53.213477,38.175466
53.210840,38.167351
53.150218,37.980776
53.101421,37.885008
53.057287,37.798390
53.006304,37.728217
52.936971,37.632786
52.792219,37.488034
52.792211,37.488028
52.698547,37.419978
52.655882,37.364649
52.649903,37.295036
52.682508,37.233240
52.732426,37.201955
52.814334,37.174814
52.963656,37.082712
53.087712,36.958656
53.179814,36.809334
53.234999,36.642797
53.245500,36.540009
53.245499,35.339992
53.234999,35.237203
53.179814,35.070666
53.087712,34.921344
52.963656,34.797288
52.814334,34.705186
52.647797,34.650001
52.647795,34.650000
52.545010,34.639500
51.344998,34.639500
51.344981,34.639501
51.242203,34.650000
51.242200,34.650001
51.075668,34.705185
51.075663,34.705187
50.926342,34.797289
50.802289,34.921342
50.710187,35.070663
50.710186,35.070666
50.655001,35.237203
50.655001,35.237204
50.655000,35.237204
50.644500,35.339983
50.644500,36.540001
50.644501,36.540018
50.655000,36.642796
50.655001,36.642799
50.710185,36.809331
50.710187,36.809336
50.720157,36.825500
50.802288,36.958656
50.926344,37.082712
51.075666,37.174814
51.157570,37.201954
51.215015,37.241727
51.241838,37.306243
51.229523,37.375018
51.191451,37.419978
51.097787,37.488028
51.097782,37.488032
50.953028,37.632786
50.832715,37.798386
50.739781,37.980776
50.676522,38.175465
50.644500,38.377648
50.644500,38.582351
50.676522,38.784534
50.739781,38.979223
50.832715,39.161613
50.953028,39.327213
51.097786,39.471971
51.263385,39.592284
51.263387,39.592285
51.263390,39.592287
51.356080,39.639515
51.356630,39.639795
51.407426,39.687770
51.424221,39.755591
51.401684,39.821725
51.356630,39.860765
51.263644,39.908143
51.219077,39.940523
51.219077,39.940524
51.898554,40.620000
51.892339,40.620000
51.790606,40.647259
51.699394,40.699920
51.624920,40.774394
51.572259,40.865606
51.545000,40.967339
51.545000,40.973553
50.865524,40.294077
50.865523,40.294077
50.833143,40.338644
50.740244,40.520968
50.677010,40.715581
50.657708,40.837445
50.627778,40.900579
50.568466,40.937510
50.498604,40.936512
50.447554,40.905727
48.656448,39.114620
48.656444,39.114617
48.522474,39.025100
48.522461,39.025093
48.373606,38.963436
48.373594,38.963433
48.215570,38.932000
48.215566,38.932000
47.720470,38.932000
47.653431,38.912315
47.607676,38.859511
47.597180,38.821253
47.594091,38.792516
47.543797,38.657671
47.543793,38.657664
47.457547,38.542455
47.457544,38.542452
47.342335,38.456206
47.342328,38.456202
47.207482,38.405908
47.207483,38.405908
47.147883,38.399501
47.147881,38.399500
47.147873,38.399500
47.147865,38.399500
47.137309,38.399500
47.070270,38.379815
47.049628,38.363181
46.379408,37.692962
46.442993,37.675925
46.557007,37.610099
46.650099,37.517007
46.715925,37.402993
46.732962,37.339409
47.365270,37.971717
47.365270,37.971716
47.404622,37.917554
47.501095,37.728217
47.566757,37.526130
47.566757,37.526127
47.600000,37.316246
47.600000,37.103753
47.566757,36.893872
47.566757,36.893869
47.501095,36.691782
47.404624,36.502449
47.365270,36.448282
47.365269,36.448282
46.732962,37.080590
46.715925,37.017007
46.650099,36.902993
46.557007,36.809901
46.442993,36.744075
46.379409,36.727037
47.011716,36.094728
46.957550,36.055375
46.768217,35.958904
46.566129,35.893242
46.356246,35.860000
46.143754,35.860000
45.933872,35.893242
45.933869,35.893242
45.731782,35.958904
45.542439,36.055380
45.488282,36.094727
45.488282,36.094728
46.120591,36.727037
46.057007,36.744075
45.942993,36.809901
45.849901,36.902993
45.784075,37.017007
45.767037,37.080591
45.134728,36.448282
45.134727,36.448282
45.095380,36.502439
44.998904,36.691782
44.933242,36.893869
44.933242,36.893872
44.900000,37.103753
44.900000,37.316246
44.933242,37.526127
44.933242,37.526130
44.998904,37.728217
45.095375,37.917550
45.134728,37.971716
45.767037,37.339408
45.784075,37.402993
45.849901,37.517007
45.942993,37.610099
46.057007,37.675925
46.120590,37.692962
45.450370,38.363181
45.389047,38.396666
45.362698,38.399500
45.352134,38.399500
45.352123,38.399501
45.292516,38.405908
45.157671,38.456202
45.157664,38.456206
45.042455,38.542452
45.042452,38.542455
44.956206,38.657664
44.956202,38.657671
44.905908,38.792517
44.899501,38.852116
44.899500,38.852135
44.899500,40.647870
44.899501,40.647876
44.905908,40.707483
44.956202,40.842328
44.956206,40.842335
45.042452,40.957544
45.042455,40.957547
45.157664,41.043793
45.157671,41.043797
45.292517,41.094091
45.292516,41.094091
45.299444,41.094835
45.352127,41.100500
47.147872,41.100499
47.207483,41.094091
47.342331,41.043796
47.457546,40.957546
47.543796,40.842331
47.594091,40.707483
47.597181,40.678745
47.598058,40.676625
47.597732,40.674353
47.611369,40.644490
47.623919,40.614194
47.625803,40.612885
47.626757,40.610797
47.654362,40.593056
47.681311,40.574345
47.684208,40.573875
47.685535,40.573023
47.720470,40.568000
47.744811,40.568000
47.811850,40.587685
47.832492,40.604319
50.608181,43.380008
50.641666,43.441331
50.644500,43.467689
50.644500,43.662352
50.647084,43.678669
50.676522,43.864534
50.739781,44.059223
50.832715,44.241613
50.953028,44.407213
51.097786,44.551971
51.252749,44.664556
51.263390,44.672287
51.379607,44.731503
51.445776,44.765218
51.445778,44.765218
51.445781,44.765220
51.550137,44.799127
51.640465,44.828477
51.741557,44.844488
51.842648,44.860500
51.842649,44.860500
52.037311,44.860500
52.104350,44.880185
52.124992,44.896819
52.792051,45.563879
52.792054,45.563882
52.819851,45.582455
52.926031,45.653402
52.946711,45.661968
52.969624,45.671459
52.969629,45.671460
52.969633,45.671462
53.074898,45.715065
53.232929,45.746499
53.232933,45.746500
53.232934,45.746500
71.742067,45.746500
71.742068,45.746499
71.900102,45.715065
71.974535,45.684233
72.048968,45.653403
72.182945,45.563882
73.265007,44.481818
73.326330,44.448334
73.352688,44.445500
73.547351,44.445500
73.547352,44.445500
73.749534,44.413477
73.944219,44.350220
74.126610,44.257287
74.227242,44.184174
74.292213,44.136971
74.292215,44.136968
74.292219,44.136966
74.436966,43.992219
74.436968,43.992215
74.436971,43.992213
74.489732,43.919590
74.557287,43.826610
74.650220,43.644219
74.713477,43.449534
74.745500,43.247352
74.745500,43.042648
74.728172,42.933242
74.713477,42.840465
74.671991,42.712786
74.650220,42.645781
74.650218,42.645778
74.650218,42.645776
74.610603,42.568028
74.557287,42.463390
74.546212,42.448147
74.436971,42.297786
74.292213,42.153028
74.126611,42.032713
74.033369,41.985203
73.982574,41.937229
73.965779,41.869407
73.988317,41.803273
74.033371,41.764234
74.126346,41.716861
74.126347,41.716861
74.170921,41.684474
73.491447,41.005000
73.497661,41.005000
73.599394,40.977741
73.690606,40.925080
73.765080,40.850606
73.817741,40.759394
73.845000,40.657661
73.845000,40.651448
74.524474,41.330922
74.524474,41.330921
74.556859,41.286349
74.649755,41.104031
74.712990,40.909417
74.745000,40.707317
74.745000,40.502682
74.712990,40.300582
74.649755,40.105968
74.556859,39.923650
74.524474,39.879077
74.524474,39.879076
73.845000,40.558551
73.845000,40.552339
73.817741,40.450606
73.765080,40.359394
73.690606,40.284920
73.599394,40.232259
73.497661,40.205000
73.491446,40.205000
74.170922,39.525524
74.170921,39.525523
74.126359,39.493147
74.126350,39.493141
74.033369,39.445765
73.982573,39.397790
73.965778,39.329969
73.988315,39.263835
74.033370,39.224795
74.126610,39.177287
74.176144,39.141298
74.292213,39.056971
74.292215,39.056968
74.292219,39.056966
74.436966,38.912219
74.436968,38.912215
74.436971,38.912213
74.503056,38.821253
74.557287,38.746610
74.650220,38.564219
74.713477,38.369534
74.745500,38.167352
74.745500,37.962648
74.713477,37.760466
74.650220,37.565781
74.650218,37.565778
74.650218,37.565776
74.610603,37.488028
74.557287,37.383390
74.543671,37.364649
74.436971,37.217786
74.292219,37.073034
74.263659,37.052284
74.198547,37.004978
74.155882,36.949649
74.149903,36.880036
74.182508,36.818240
74.232426,36.786955
74.314334,36.759814
74.463656,36.667712
74.587712,36.543656
74.679814,36.394334
74.734999,36.227797
74.745500,36.125009
74.745499,35.432687
74.765183,35.365649
74.781813,35.345012
77.702398,32.424426
77.721177,32.409014
77.801445,32.355382
78.220319,31.936508
78.281642,31.903023
78.351333,31.908007
78.407267,31.949878
78.431684,32.015343
78.432000,32.024189
78.432000,36.330570
78.463433,36.488594
78.463436,36.488606
78.525093,36.637461
78.525100,36.637474
78.614617,36.771444
78.614620,36.771448
79.728181,37.885008
79.761666,37.946331
79.764500,37.972689
79.764500,38.167351
79.796522,38.369534
79.859781,38.564223
79.952715,38.746613
80.073028,38.912213
80.217786,39.056971
80.383385,39.177284
80.383387,39.177285
80.383390,39.177287
80.476630,39.224795
80.527426,39.272770
80.544221,39.340591
80.521684,39.406725
80.476630,39.445765
80.383644,39.493143
80.339077,39.525523
80.339077,39.525524
81.018554,40.205000
81.012339,40.205000
80.910606,40.232259
80.819394,40.284920
80.744920,40.359394
80.692259,40.450606
80.665000,40.552339
80.665000,40.558553
79.985524,39.879077
79.985523,39.879077
79.953143,39.923644
79.860244,40.105968
79.797009,40.300582
79.765000,40.502682
79.765000,40.707317
79.797009,40.909417
79.860244,41.104031
79.953141,41.286350
79.953147,41.286359
79.985523,41.330921
79.985524,41.330922
80.665000,40.651446
80.665000,40.657661
80.692259,40.759394
80.744920,40.850606
80.819394,40.925080
80.910606,40.977741
81.012339,41.005000
81.018553,41.005000
80.339076,41.684474
80.383652,41.716861
80.476628,41.764234
80.527425,41.812208
80.544220,41.880029
80.521683,41.946164
80.476630,41.985203
80.383388,42.032713
80.217786,42.153028
80.073028,42.297786
79.952715,42.463386
79.859781,42.645776
79.796522,42.840465
79.764500,43.042648
79.764500,43.247351
79.796522,43.449534
79.859781,43.644223
79.952715,43.826613
80.073028,43.992213
80.217786,44.136971
80.361812,44.241610
80.383390,44.257287
80.498279,44.315826
80.565776,44.350218
80.565778,44.350218
80.565781,44.350220
80.670137,44.384127
80.760465,44.413477
80.861557,44.429488
80.962648,44.445500
80.962649,44.445500
81.167351,44.445500
81.167352,44.445500
81.369534,44.413477
81.564219,44.350220
81.746610,44.257287
81.847242,44.184174
81.912213,44.136971
81.912215,44.136968
81.912219,44.136966
82.056966,43.992219
82.056968,43.992215
82.056971,43.992213
82.109732,43.919590
82.177287,43.826610
82.270220,43.644219
82.333477,43.449534
82.365500,43.247352
82.365500,43.042648
82.348172,42.933242
82.333477,42.840465
82.291991,42.712786
82.270220,42.645781
82.270218,42.645778
82.270218,42.645776
82.230603,42.568028
82.177287,42.463390
82.166212,42.448147
82.056971,42.297786
81.912213,42.153028
81.746611,42.032713
81.653369,41.985203
81.602574,41.937229
81.585779,41.869407
81.608317,41.803273
81.653371,41.764234
81.746346,41.716861
81.746347,41.716861
81.790921,41.684474
81.111447,41.005000
81.117661,41.005000
81.219394,40.977741
81.310606,40.925080
81.385080,40.850606
81.437741,40.759394
81.465000,40.657661
81.465000,40.651447
82.144474,41.330921
82.176859,41.286349
82.269755,41.104031
82.332990,40.909417
82.365000,40.707317
82.365000,40.502682
82.332990,40.300582
82.269755,40.105968
82.176859,39.923650
82.144474,39.879077
82.144474,39.879076
81.465000,40.558551
81.465000,40.552339
81.437741,40.450606
81.385080,40.359394
81.310606,40.284920
81.219394,40.232259
81.117661,40.205000
81.111446,40.205000
81.790922,39.525524
81.790921,39.525523
81.746359,39.493147
81.746350,39.493141
81.653369,39.445765
81.602573,39.397790
81.585778,39.329969
81.608315,39.263835
81.653370,39.224795
81.746610,39.177287
81.796144,39.141298
81.912213,39.056971
81.912215,39.056968
81.912219,39.056966
82.056966,38.912219
82.056968,38.912215
82.056971,38.912213
82.123056,38.821253
82.177287,38.746610
82.270220,38.564219
82.333477,38.369534
82.365500,38.167352
82.365500,37.962648
82.333477,37.760466
82.270220,37.565781
82.270218,37.565778
82.270218,37.565776
82.230603,37.488028
82.177287,37.383390
82.163671,37.364649
82.056971,37.217786
81.912213,37.073028
81.746614,36.952715
81.740006,36.949348
81.653917,36.905483
81.603123,36.857511
81.586328,36.789690
81.608865,36.723555
81.653917,36.684516
81.746610,36.637287
81.875482,36.543657
81.912213,36.516971
81.912215,36.516968
81.912219,36.516966
82.056966,36.372219
82.056968,36.372215
82.056971,36.372213
82.109732,36.299590
82.177287,36.206610
82.270220,36.024219
82.333477,35.829534
82.365500,35.627352
82.365500,35.422648
82.336128,35.237203
82.333477,35.220465
82.304127,35.130137
82.270220,35.025781
82.270218,35.025778
82.270218,35.025776
82.218865,34.924991
82.177287,34.843390
82.143793,34.797289
82.056971,34.677786
81.919319,34.540134
81.885834,34.478811
81.883000,34.452453
81.883000,26.802151
81.882999,26.802147
81.851566,26.644123
81.851565,26.644116
81.806972,26.536459
81.789903,26.495250
81.736238,26.414937
81.700382,26.361273
81.586445,26.247336
81.586444,26.247335
81.582114,26.243005
81.582103,26.242995
77.551291,22.212181
77.517806,22.150858
77.522790,22.081166
77.564662,22.025233
77.630126,22.000816
77.638972,22.000500
85.625500,22.000500
85.692539,22.020185
85.738294,22.072989
85.749500,22.124500
85.749500,48.375500
85.729815,48.442539
85.677011,48.488294
85.625500,48.499500
44.374500,48.499500
44.307461,48.479815
44.261706,48.427011
44.250500,48.375500
44.250500,45.892135
44.899500,45.892135
44.899500,47.687870
44.899501,47.687876
44.905908,47.747483
44.956202,47.882328
44.956206,47.882335
45.042452,47.997544
45.042455,47.997547
45.157664,48.083793
45.157671,48.083797
45.292517,48.134091
45.292516,48.134091
45.299444,48.134835
45.352127,48.140500
47.147872,48.140499
47.207483,48.134091
47.342331,48.083796
47.457546,47.997546
47.543796,47.882331
47.594091,47.747483
47.600500,47.687873
47.600499,45.892128
47.594091,45.832517
47.562008,45.746499
47.543797,45.697671
47.543793,45.697664
47.457547,45.582455
47.457544,45.582452
47.342335,45.496206
47.342328,45.496202
47.207482,45.445908
47.207483,45.445908
47.147883,45.439501
47.147881,45.439500
47.147873,45.439500
47.147865,45.439500
47.137309,45.439500
47.070270,45.419815
47.049628,45.403181
46.379408,44.732962
46.442993,44.715925
46.557007,44.650099
46.650099,44.557007
46.715925,44.442993
46.732962,44.379409
47.365270,45.011717
47.365270,45.011716
47.404622,44.957554
47.501095,44.768217
47.566757,44.566130
47.566757,44.566127
47.600000,44.356246
47.600000,44.143753
47.566757,43.933872
47.566757,43.933869
47.501095,43.731782
47.404624,43.542449
47.365270,43.488282
47.365269,43.488282
46.732962,44.120590
46.715925,44.057007
46.650099,43.942993
46.557007,43.849901
46.442993,43.784075
46.379409,43.767037
47.011716,43.134728
46.957550,43.095375
46.768217,42.998904
46.566129,42.933242
46.356246,42.900000
46.143754,42.900000
45.933872,42.933242
45.933869,42.933242
45.731782,42.998904
45.542439,43.095380
45.488282,43.134727
45.488282,43.134728
46.120591,43.767037
46.057007,43.784075
45.942993,43.849901
45.849901,43.942993
45.784075,44.057007
45.767037,44.120591
45.134728,43.488282
45.134727,43.488282
45.095380,43.542439
44.998904,43.731782
44.933242,43.933869
44.933242,43.933872
44.900000,44.143753
44.900000,44.356246
44.933242,44.566127
44.933242,44.566130
44.998904,44.768217
45.095375,44.957550
45.134728,45.011716
45.767037,44.379408
45.784075,44.442993
45.849901,44.557007
45.942993,44.650099
46.057007,44.715925
46.120590,44.732962
45.450370,45.403181
45.389047,45.436666
45.362698,45.439500
45.352134,45.439500
45.352123,45.439501
45.292516,45.445908
45.157671,45.496202
45.157664,45.496206
45.042455,45.582452
45.042452,45.582455
44.956206,45.697664
44.956202,45.697671
44.905908,45.832517
44.899501,45.892116
44.899501,45.892123
44.899500,45.892135
44.250500,45.892135
44.250500,22.124500
44.270185,22.057461
44.322989,22.011706
44.374500,22.000500
53.503310,22.000500
Z" /> 
<path style="fill:#4D7FC4; fill-opacity:1.000000; stroke:none;fill-rule:evenodd;"
d="M 76.711068,26.054185
76.731710,26.070819
77.395681,26.734790
77.429166,26.796113
77.432000,26.822471
77.432000,30.359810
77.412315,30.426849
77.395681,30.447491
76.827602,31.015569
76.808817,31.030987
76.782222,31.048759
76.782217,31.048762
76.728556,31.084616
76.671587,31.141585
76.614618,31.198555
76.614616,31.198557
73.624990,34.188181
73.563667,34.221666
73.537309,34.224500
72.844998,34.224500
72.844980,34.224501
72.742203,34.235000
72.742200,34.235001
72.575668,34.290185
72.575663,34.290187
72.426342,34.382289
72.302289,34.506342
72.210187,34.655663
72.210185,34.655668
72.204931,34.671524
72.155001,34.822203
72.155001,34.822204
72.155000,34.822204
72.144500,34.924983
72.144500,36.125001
72.144501,36.125018
72.155000,36.227796
72.155001,36.227799
72.202856,36.372213
72.210186,36.394334
72.302288,36.543656
72.426344,36.667712
72.575666,36.759814
72.657570,36.786954
72.715015,36.826727
72.741838,36.891243
72.729523,36.960018
72.691451,37.004978
72.597787,37.073028
72.597782,37.073032
72.453028,37.217786
72.332715,37.383386
72.239781,37.565776
72.176522,37.760465
72.144500,37.962648
72.144500,38.167351
72.176522,38.369534
72.239781,38.564223
72.332715,38.746613
72.453028,38.912213
72.597786,39.056971
72.763385,39.177284
72.763387,39.177285
72.763390,39.177287
72.856630,39.224795
72.907426,39.272770
72.924221,39.340591
72.901684,39.406725
72.856630,39.445765
72.763644,39.493143
72.719077,39.525523
72.719077,39.525524
73.398554,40.205000
73.392339,40.205000
73.290606,40.232259
73.199394,40.284920
73.124920,40.359394
73.072259,40.450606
73.045000,40.552339
73.045000,40.558553
72.365524,39.879077
72.365523,39.879077
72.333143,39.923644
72.240244,40.105968
72.177009,40.300582
72.145000,40.502682
72.145000,40.707317
72.177009,40.909417
72.240244,41.104031
72.333141,41.286350
72.333147,41.286359
72.365523,41.330921
72.365524,41.330922
73.045000,40.651446
73.045000,40.657661
73.072259,40.759394
73.124920,40.850606
73.199394,40.925080
73.290606,40.977741
73.392339,41.005000
73.398553,41.005000
72.719076,41.684474
72.763652,41.716861
72.856628,41.764234
72.907425,41.812208
72.924220,41.880029
72.901683,41.946164
72.856630,41.985203
72.763388,42.032713
72.597786,42.153028
72.453028,42.297786
72.332715,42.463386
72.239781,42.645776
72.176522,42.840465
72.144500,43.042648
72.144500,43.237310
72.124815,43.304349
72.108181,43.324991
71.358992,44.074181
71.297669,44.107666
71.271311,44.110500
60.923704,44.110500
60.856665,44.090815
60.810910,44.038011
60.800966,43.968853
60.805773,43.948181
60.832990,43.864417
60.865000,43.662317
60.865000,43.457682
60.832990,43.255582
60.769755,43.060968
60.676859,42.878650
60.644474,42.834077
60.644474,42.834076
59.965000,43.513551
59.965000,43.507339
59.937741,43.405606
59.885080,43.314394
59.810606,43.239920
59.719394,43.187259
59.617661,43.160000
59.611446,43.160000
60.290922,42.480524
60.290921,42.480523
60.246359,42.448147
60.246350,42.448141
60.153369,42.400765
60.102573,42.352790
60.085778,42.284969
60.108315,42.218835
60.153370,42.179795
60.154471,42.179234
60.246610,42.132287
60.296144,42.096298
60.412213,42.011971
60.412215,42.011968
60.412219,42.011966
60.556966,41.867219
60.556968,41.867215
60.556971,41.867213
60.631788,41.764234
60.677287,41.701610
60.770220,41.519219
60.833477,41.324534
60.865500,41.122352
60.865500,40.917648
60.863612,40.905727
60.833477,40.715465
60.802458,40.620000
60.770220,40.520781
60.677287,40.338390
60.645092,40.294077
60.556971,40.172786
60.412213,40.028028
60.246614,39.907715
60.240006,39.904348
60.153917,39.860483
60.103123,39.812511
60.086328,39.744690
60.108865,39.678555
60.153917,39.639516
60.246610,39.592287
60.267770,39.576913
60.412213,39.471971
60.412215,39.471968
60.412219,39.471966
60.556966,39.327219
60.556968,39.327215
60.556971,39.327213
60.631381,39.224795
60.677287,39.161610
60.770220,38.979219
60.833477,38.784534
60.865500,38.582352
60.865500,38.387687
60.885185,38.320648
60.901815,38.300010
61.394735,37.807089
61.394740,37.807086
61.404943,37.796882
61.404945,37.796882
61.518882,37.682945
61.523572,37.675925
61.554736,37.629284
61.554738,37.629280
61.597168,37.565781
61.608403,37.548968
61.670065,37.400102
61.693668,37.281446
61.701501,37.242067
61.701501,37.075824
61.701500,37.075798
61.701500,30.081687
61.721185,30.014648
61.737814,29.994011
63.713599,28.018225
63.774920,27.984742
63.820675,27.983435
63.833713,27.985500
63.833714,27.985500
64.046286,27.985500
64.046287,27.985500
64.256243,27.952246
64.458412,27.886557
64.647816,27.790051
64.734138,27.727335
64.819786,27.665109
64.819788,27.665106
64.819792,27.665104
64.970104,27.514792
64.970106,27.514788
64.970109,27.514786
65.095048,27.342820
65.095047,27.342820
65.095051,27.342816
65.099514,27.334054
65.147488,27.283259
65.215308,27.266463
65.281444,27.288999
65.320486,27.334056
65.324951,27.342820
65.449890,27.514786
65.600213,27.665109
65.772179,27.790048
65.772181,27.790049
65.772184,27.790051
65.961588,27.886557
66.163757,27.952246
66.373713,27.985500
66.373714,27.985500
66.586286,27.985500
66.586287,27.985500
66.796243,27.952246
66.998412,27.886557
67.187816,27.790051
67.274138,27.727335
67.359786,27.665109
67.359788,27.665106
67.359792,27.665104
67.510104,27.514792
67.510106,27.514788
67.510109,27.514786
67.635048,27.342820
67.635047,27.342820
67.635051,27.342816
67.639514,27.334054
67.687488,27.283259
67.755308,27.266463
67.821444,27.288999
67.860486,27.334056
67.864951,27.342820
67.989890,27.514786
68.140213,27.665109
68.312179,27.790048
68.312181,27.790049
68.312184,27.790051
68.501588,27.886557
68.703757,27.952246
68.913713,27.985500
68.913714,27.985500
69.126286,27.985500
69.126287,27.985500
69.336243,27.952246
69.538412,27.886557
69.727816,27.790051
69.814138,27.727335
69.899786,27.665109
69.899788,27.665106
69.899792,27.665104
70.050104,27.514792
70.050106,27.514788
70.050109,27.514786
70.135890,27.396717
70.175051,27.342816
70.179793,27.333508
70.227763,27.282711
70.295583,27.265911
70.361719,27.288445
70.400763,27.333500
70.405373,27.342547
70.444728,27.396716
71.077036,26.764407
71.094075,26.827993
71.159901,26.942007
71.252993,27.035099
71.367007,27.100925
71.430590,27.117962
70.798282,27.750269
70.798282,27.750270
70.852449,27.789624
71.041782,27.886095
71.243870,27.951757
71.453754,27.985000
71.666246,27.985000
71.876127,27.951757
71.876130,27.951757
72.078217,27.886095
72.267554,27.789622
72.321716,27.750270
72.321717,27.750270
71.689408,27.117962
71.752993,27.100925
71.867007,27.035099
71.960099,26.942007
72.025925,26.827993
72.042962,26.764409
72.675270,27.396717
72.675270,27.396716
72.714622,27.342554
72.719514,27.332954
72.767488,27.282157
72.835308,27.265361
72.901444,27.287897
72.940486,27.332954
72.945375,27.342550
72.984728,27.396716
73.617036,26.764407
73.634075,26.827993
73.699901,26.942007
73.792993,27.035099
73.907007,27.100925
73.970590,27.117962
73.338282,27.750269
73.338282,27.750270
73.392449,27.789624
73.581782,27.886095
73.783870,27.951757
73.993754,27.985000
74.206246,27.985000
74.416127,27.951757
74.416130,27.951757
74.618217,27.886095
74.807554,27.789622
74.861716,27.750270
74.861717,27.750270
74.229408,27.117962
74.292993,27.100925
74.407007,27.035099
74.500099,26.942007
74.565925,26.827993
74.582962,26.764409
75.215270,27.396717
75.215270,27.396716
75.254622,27.342554
75.351095,27.153217
75.416757,26.951130
75.416757,26.951127
75.450000,26.741246
75.450000,26.528753
75.416757,26.318872
75.416757,26.318869
75.377100,26.196818
75.375105,26.126977
75.411185,26.067144
75.473886,26.036316
75.495031,26.034500
76.644029,26.034500
Z" /> 
</g>
<g style="fill:#FFFFFF; fill-opacity:1.000000; stroke:none;">
<circle cx="55.750000" cy="39.250000" r="0.300000" /> 
</g>
<g style="fill:#FFFFFF; fill-opacity:1.000000; stroke:none;">
<circle cx="46.250000" cy="30.710000" r="0.500000" /> 
</g>
<g style="fill:#FFFFFF; fill-opacity:1.000000; stroke:none;">
<circle cx="46.250000" cy="33.250000" r="0.500000" /> 
</g>
<g style="fill:#FFFFFF; fill-opacity:1.000000; stroke:none;">
<circle cx="51.945000" cy="35.940000" r="0.400000" /> 
</g>
<g style="fill:#FFFFFF; fill-opacity:1.000000; stroke:none;">
<circle cx="51.945000" cy="38.480000" r="0.400000" /> 
</g>
<g style="fill:#FFFFFF; fill-opacity:1.000000; stroke:none;">
<circle cx="51.945000" cy="41.020000" r="0.400000" /> 
</g>
<g style="fill:#FFFFFF; fill-opacity:1.000000; stroke:none;">
<circle cx="51.945000" cy="43.560000" r="0.400000" /> 
</g>
<g style="fill:#FFFFFF; fill-opacity:1.000000; stroke:none;">
<circle cx="59.565000" cy="43.560000" r="0.400000" /> 
</g>
<g style="fill:#FFFFFF; fill-opacity:1.000000; stroke:none;">
<circle cx="59.565000" cy="41.020000" r="0.400000" /> 
</g>
<g style="fill:#FFFFFF; fill-opacity:1.000000; stroke:none;">
<circle cx="59.565000" cy="38.480000" r="0.400000" /> 
</g>
<g style="fill:#FFFFFF; fill-opacity:1.000000; stroke:none;">
<circle cx="59.565000" cy="35.940000" r="0.400000" /> 
</g>
<g style="fill:#FFFFFF; fill-opacity:1.000000; stroke:none;">
<circle cx="73.445000" cy="35.525000" r="0.400000" /> 
</g>
<g style="fill:#FFFFFF; fill-opacity:1.000000; stroke:none;">
<circle cx="73.445000" cy="38.065000" r="0.400000" /> 
</g>
<g style="fill:#FFFFFF; fill-opacity:1.000000; stroke:none;">
<circle cx="73.445000" cy="40.605000" r="0.400000" /> 
</g>
<g style="fill:#FFFFFF; fill-opacity:1.000000; stroke:none;">
<circle cx="73.445000" cy="43.145000" r="0.400000" /> 
</g>
<g style="fill:#FFFFFF; fill-opacity:1.000000; stroke:none;">
<circle cx="81.065000" cy="43.145000" r="0.400000" /> 
</g>
<g style="fill:#FFFFFF; fill-opacity:1.000000; stroke:none;">
<circle cx="81.065000" cy="40.605000" r="0.400000" /> 
</g>
<g style="fill:#FFFFFF; fill-opacity:1.000000; stroke:none;">
<circle cx="81.065000" cy="38.065000" r="0.400000" /> 
</g>
<g style="fill:#FFFFFF; fill-opacity:1.000000; stroke:none;">
<circle cx="81.065000" cy="35.525000" r="0.400000" /> 
</g>
<g style="fill:#FFFFFF; fill-opacity:1.000000; stroke:none;">
<circle cx="46.250000" cy="39.750000" r="0.500000" /> 
</g>
<g style="fill:#FFFFFF; fill-opacity:1.000000; stroke:none;">
<circle cx="46.250000" cy="37.210000" r="0.500000" /> 
</g>
<g style="fill:#FFFFFF; fill-opacity:1.000000; stroke:none;">
<circle cx="61.400000" cy="26.635000" r="0.500000" /> 
</g>
<g style="fill:#FFFFFF; fill-opacity:1.000000; stroke:none;">
<circle cx="63.940000" cy="26.635000" r="0.500000" /> 
</g>
<g style="fill:#FFFFFF; fill-opacity:1.000000; stroke:none;">
<circle cx="66.480000" cy="26.635000" r="0.500000" /> 
</g>
<g style="fill:#FFFFFF; fill-opacity:1.000000; stroke:none;">
<circle cx="69.020000" cy="26.635000" r="0.500000" /> 
</g>
<g style="fill:#FFFFFF; fill-opacity:1.000000; stroke:none;">
<circle cx="71.560000" cy="26.635000" r="0.500000" /> 
</g>
<g style="fill:#FFFFFF; fill-opacity:1.000000; stroke:none;">
<circle cx="74.100000" cy="26.635000" r="0.500000" /> 
</g>
<g style="fill:#FFFFFF; fill-opacity:1.000000; stroke:none;">
<circle cx="46.250000" cy="46.790000" r="0.500000" /> 
</g>
<g style="fill:#FFFFFF; fill-opacity:1.000000; stroke:none;">
<circle cx="46.250000" cy="44.250000" r="0.500000" /> 
<path style="fill:none; 
stroke:#D0D2CD; stroke-width:0.050000; stroke-opacity:1; 
stroke-linecap:round; stroke-linejoin:round;fill:none"
d="M 43.750000,21.500000
86.250000,21.500000
86.250000,49.000000
43.750000,49.000000
Z" /> 
</g>
<g style="fill:#D0D2CD; fill-opacity:1.000000; stroke:none;">
<circle cx="46.250000" cy="30.710000" r="0.500000" /> 
</g>
<g style="fill:#D0D2CD; fill-opacity:1.000000; stroke:none;">
<circle cx="46.250000" cy="33.250000" r="0.500000" /> 
</g>
<g style="fill:#D0D2CD; fill-opacity:1.000000; stroke:none;">
<circle cx="51.945000" cy="35.940000" r="0.400000" /> 
</g>
<g style="fill:#D0D2CD; fill-opacity:1.000000; stroke:none;">
<circle cx="51.945000" cy="38.480000" r="0.400000" /> 
</g>
<g style="fill:#D0D2CD; fill-opacity:1.000000; stroke:none;">
<circle cx="51.945000" cy="41.020000" r="0.400000" /> 
</g>
<g style="fill:#D0D2CD; fill-opacity:1.000000; stroke:none;">
<circle cx="51.945000" cy="43.560000" r="0.400000" /> 
</g>
<g style="fill:#D0D2CD; fill-opacity:1.000000; stroke:none;">
<circle cx="59.565000" cy="43.560000" r="0.400000" /> 
</g>
<g style="fill:#D0D2CD; fill-opacity:1.000000; stroke:none;">
<circle cx="59.565000" cy="41.020000" r="0.400000" /> 
</g>
<g style="fill:#D0D2CD; fill-opacity:1.000000; stroke:none;">
<circle cx="59.565000" cy="38.480000" r="0.400000" /> 
</g>
<g style="fill:#D0D2CD; fill-opacity:1.000000; stroke:none;">
<circle cx="59.565000" cy="35.940000" r="0.400000" /> 
</g>
<g style="fill:#D0D2CD; fill-opacity:1.000000; stroke:none;">
<circle cx="73.445000" cy="35.525000" r="0.400000" /> 
</g>
<g style="fill:#D0D2CD; fill-opacity:1.000000; stroke:none;">
<circle cx="73.445000" cy="38.065000" r="0.400000" /> 
</g>
<g style="fill:#D0D2CD; fill-opacity:1.000000; stroke:none;">
<circle cx="73.445000" cy="40.605000" r="0.400000" /> 
</g>
<g style="fill:#D0D2CD; fill-opacity:1.000000; stroke:none;">
<circle cx="73.445000" cy="43.145000" r="0.400000" /> 
</g>
<g style="fill:#D0D2CD; fill-opacity:1.000000; stroke:none;">
<circle cx="81.065000" cy="43.145000" r="0.400000" /> 
</g>
<g style="fill:#D0D2CD; fill-opacity:1.000000; stroke:none;">
<circle cx="81.065000" cy="40.605000" r="0.400000" /> 
</g>
<g style="fill:#D0D2CD; fill-opacity:1.000000; stroke:none;">
<circle cx="81.065000" cy="38.065000" r="0.400000" /> 
</g>
<g style="fill:#D0D2CD; fill-opacity:1.000000; stroke:none;">
<circle cx="81.065000" cy="35.525000" r="0.400000" /> 
</g>
<g style="fill:#D0D2CD; fill-opacity:1.000000; stroke:none;">
<circle cx="46.250000" cy="39.750000" r="0.500000" /> 
</g>
<g style="fill:#D0D2CD; fill-opacity:1.000000; stroke:none;">
<circle cx="46.250000" cy="37.210000" r="0.500000" /> 
</g>
<g style="fill:#D0D2CD; fill-opacity:1.000000; stroke:none;">
<circle cx="61.400000" cy="26.635000" r="0.500000" /> 
</g>
<g style="fill:#D0D2CD; fill-opacity:1.000000; stroke:none;">
<circle cx="63.940000" cy="26.635000" r="0.500000" /> 
</g>
<g style="fill:#D0D2CD; fill-opacity:1.000000; stroke:none;">
<circle cx="66.480000" cy="26.635000" r="0.500000" /> 
</g>
<g style="fill:#D0D2CD; fill-opacity:1.000000; stroke:none;">
<circle cx="69.020000" cy="26.635000" r="0.500000" /> 
</g>
<g style="fill:#D0D2CD; fill-opacity:1.000000; stroke:none;">
<circle cx="71.560000" cy="26.635000" r="0.500000" /> 
</g>
<g style="fill:#D0D2CD; fill-opacity:1.000000; stroke:none;">
<circle cx="74.100000" cy="26.635000" r="0.500000" /> 
</g>
<g style="fill:#D0D2CD; fill-opacity:1.000000; stroke:none;">
<circle cx="46.250000" cy="46.790000" r="0.500000" /> 
</g>
<g style="fill:#D0D2CD; fill-opacity:1.000000; stroke:none;">
<circle cx="46.250000" cy="44.250000" r="0.500000" /> 
</g>
<g style="fill:#FFFFFF; fill-opacity:1.000000; stroke:none;">
<circle cx="46.250000" cy="30.710000" r="0.500000" /> 
</g>
<g style="fill:#FFFFFF; fill-opacity:1.000000; stroke:none;">
<circle cx="46.250000" cy="33.250000" r="0.500000" /> 
</g>
<g style="fill:#FFFFFF; fill-opacity:1.000000; stroke:none;">
<circle cx="51.945000" cy="35.940000" r="0.400000" /> 
</g>
<g style="fill:#FFFFFF; fill-opacity:1.000000; stroke:none;">
<circle cx="51.945000" cy="38.480000" r="0.400000" /> 
</g>
<g style="fill:#FFFFFF; fill-opacity:1.000000; stroke:none;">
<circle cx="51.945000" cy="41.020000" r="0.400000" /> 
</g>
<g style="fill:#FFFFFF; fill-opacity:1.000000; stroke:none;">
<circle cx="51.945000" cy="43.560000" r="0.400000" /> 
</g>
<g style="fill:#FFFFFF; fill-opacity:1.000000; stroke:none;">
<circle cx="59.565000" cy="43.560000" r="0.400000" /> 
</g>
<g style="fill:#FFFFFF; fill-opacity:1.000000; stroke:none;">
<circle cx="59.565000" cy="41.020000" r="0.400000" /> 
</g>
<g style="fill:#FFFFFF; fill-opacity:1.000000; stroke:none;">
<circle cx="59.565000" cy="38.480000" r="0.400000" /> 
</g>
<g style="fill:#FFFFFF; fill-opacity:1.000000; stroke:none;">
<circle cx="59.565000" cy="35.940000" r="0.400000" /> 
</g>
<g style="fill:#FFFFFF; fill-opacity:1.000000; stroke:none;">
<circle cx="73.445000" cy="35.525000" r="0.400000" /> 
</g>
<g style="fill:#FFFFFF; fill-opacity:1.000000; stroke:none;">
<circle cx="73.445000" cy="38.065000" r="0.400000" /> 
</g>
<g style="fill:#FFFFFF; fill-opacity:1.000000; stroke:none;">
<circle cx="73.445000" cy="40.605000" r="0.400000" /> 
</g>
<g style="fill:#FFFFFF; fill-opacity:1.000000; stroke:none;">
<circle cx="73.445000" cy="43.145000" r="0.400000" /> 
</g>
<g style="fill:#FFFFFF; fill-opacity:1.000000; stroke:none;">
<circle cx="81.065000" cy="43.145000" r="0.400000" /> 
</g>
<g style="fill:#FFFFFF; fill-opacity:1.000000; stroke:none;">
<circle cx="81.065000" cy="40.605000" r="0.400000" /> 
</g>
<g style="fill:#FFFFFF; fill-opacity:1.000000; stroke:none;">
<circle cx="81.065000" cy="38.065000" r="0.400000" /> 
</g>
<g style="fill:#FFFFFF; fill-opacity:1.000000; stroke:none;">
<circle cx="81.065000" cy="35.525000" r="0.400000" /> 
</g>
<g style="fill:#FFFFFF; fill-opacity:1.000000; stroke:none;">
<circle cx="46.250000" cy="39.750000" r="0.500000" /> 
</g>
<g style="fill:#FFFFFF; fill-opacity:1.000000; stroke:none;">
<circle cx="46.250000" cy="37.210000" r="0.500000" /> 
</g>
<g style="fill:#FFFFFF; fill-opacity:1.000000; stroke:none;">
<circle cx="61.400000" cy="26.635000" r="0.500000" /> 
</g>
<g style="fill:#FFFFFF; fill-opacity:1.000000; stroke:none;">
<circle cx="63.940000" cy="26.635000" r="0.500000" /> 
</g>
<g style="fill:#FFFFFF; fill-opacity:1.000000; stroke:none;">
<circle cx="66.480000" cy="26.635000" r="0.500000" /> 
</g>
<g style="fill:#FFFFFF; fill-opacity:1.000000; stroke:none;">
<circle cx="69.020000" cy="26.635000" r="0.500000" /> 
</g>
<g style="fill:#FFFFFF; fill-opacity:1.000000; stroke:none;">
<circle cx="71.560000" cy="26.635000" r="0.500000" /> 
</g>
<g style="fill:#FFFFFF; fill-opacity:1.000000; stroke:none;">
<circle cx="74.100000" cy="26.635000" r="0.500000" /> 
</g>
<g style="fill:#FFFFFF; fill-opacity:1.000000; stroke:none;">
<circle cx="46.250000" cy="46.790000" r="0.500000" /> 
</g>
<g style="fill:#FFFFFF; fill-opacity:1.000000; stroke:none;">
<circle cx="46.250000" cy="44.250000" r="0.500000" /> 
</g> 
</svg>
