<?xml version="1.0" standalone="no"?>
 <!DOCTYPE svg PUBLIC "-//W3C//DTD SVG 1.1//EN" 
 "http://www.w3.org/Graphics/SVG/1.1/DTD/svg11.dtd"> 
<svg
  xmlns:svg="http://www.w3.org/2000/svg"
  xmlns="http://www.w3.org/2000/svg"
  xmlns:xlink="http://www.w3.org/1999/xlink"
  version="1.1"
  width="297.002200mm" height="210.007200mm" viewBox="53 15 20 35">
<title>SVG Image created as Biquad filter-texas-F_Cu.svg date 2025/07/15 14:32:07 </title>
  <desc>Image generated by PCBNEW </desc>
<g style="fill:#000000; fill-opacity:1.000000;stroke:#000000; stroke-opacity:1.000000;
stroke-linecap:round; stroke-linejoin:round;"
 transform="translate(0 0) scale(1 1)">
<path style="fill:#C83434; fill-opacity:1.000000; stroke:none;fill-rule:evenodd;"
d="M 71.650000,31.300000
71.669030,31.204329
71.723223,31.123223
71.804329,31.069030
71.900000,31.050000
72.600000,31.050000
72.695671,31.069030
72.776777,31.123223
72.830970,31.204329
72.850000,31.300000
72.850000,32.200000
72.830970,32.295671
72.776777,32.376777
72.695671,32.430970
72.600000,32.450000
71.900000,32.450000
71.804329,32.430970
71.723223,32.376777
71.669030,32.295671
71.650000,32.200000
Z" /> 
<path style="fill:#C83434; fill-opacity:1.000000; stroke:none;fill-rule:evenodd;"
d="M 73.650000,31.300000
73.669030,31.204329
73.723223,31.123223
73.804329,31.069030
73.900000,31.050000
74.600000,31.050000
74.695671,31.069030
74.776777,31.123223
74.830970,31.204329
74.850000,31.300000
74.850000,32.200000
74.830970,32.295671
74.776777,32.376777
74.695671,32.430970
74.600000,32.450000
73.900000,32.450000
73.804329,32.430970
73.723223,32.376777
73.669030,32.295671
73.650000,32.200000
Z" /> 
<path style="fill:#C83434; fill-opacity:1.000000; stroke:none;fill-rule:evenodd;"
d="M 62.775000,42.337500
62.679329,42.318470
62.598223,42.264277
62.544030,42.183171
62.525000,42.087500
62.525000,41.412500
62.544030,41.316829
62.598223,41.235723
62.679329,41.181530
62.775000,41.162500
63.725000,41.162500
63.820671,41.181530
63.901777,41.235723
63.955970,41.316829
63.975000,41.412500
63.975000,42.087500
63.955970,42.183171
63.901777,42.264277
63.820671,42.318470
63.725000,42.337500
Z" /> 
<path style="fill:#C83434; fill-opacity:1.000000; stroke:none;fill-rule:evenodd;"
d="M 62.775000,40.262500
62.679329,40.243470
62.598223,40.189277
62.544030,40.108171
62.525000,40.012500
62.525000,39.337500
62.544030,39.241829
62.598223,39.160723
62.679329,39.106530
62.775000,39.087500
63.725000,39.087500
63.820671,39.106530
63.901777,39.160723
63.955970,39.241829
63.975000,39.337500
63.975000,40.012500
63.955970,40.108171
63.901777,40.189277
63.820671,40.243470
63.725000,40.262500
Z" /> 
<path style="fill:#C83434; fill-opacity:1.000000; stroke:none;fill-rule:evenodd;"
d="M 45.400000,31.560000
45.400000,29.860000
47.100000,29.860000
47.100000,31.560000
Z" /> 
</g>
<g style="fill:#C83434; fill-opacity:1.000000; stroke:none;">
<circle cx="46.250000" cy="33.250000" r="0.850000" /> 
<path style="fill:#C83434; fill-opacity:1.000000; stroke:none;fill-rule:evenodd;"
d="M 51.145000,35.390000
51.164030,35.294329
51.218223,35.213223
51.299329,35.159030
51.395000,35.140000
52.495000,35.140000
52.590671,35.159030
52.671777,35.213223
52.725970,35.294329
52.745000,35.390000
52.745000,36.490000
52.725970,36.585671
52.671777,36.666777
52.590671,36.720970
52.495000,36.740000
51.395000,36.740000
51.299329,36.720970
51.218223,36.666777
51.164030,36.585671
51.145000,36.490000
Z" /> 
</g>
<g style="fill:#C83434; fill-opacity:1.000000; stroke:none;">
<circle cx="51.945000" cy="38.480000" r="0.800000" /> 
</g>
<g style="fill:#C83434; fill-opacity:1.000000; stroke:none;">
<circle cx="51.945000" cy="41.020000" r="0.800000" /> 
</g>
<g style="fill:#C83434; fill-opacity:1.000000; stroke:none;">
<circle cx="51.945000" cy="43.560000" r="0.800000" /> 
</g>
<g style="fill:#C83434; fill-opacity:1.000000; stroke:none;">
<circle cx="59.565000" cy="43.560000" r="0.800000" /> 
</g>
<g style="fill:#C83434; fill-opacity:1.000000; stroke:none;">
<circle cx="59.565000" cy="41.020000" r="0.800000" /> 
</g>
<g style="fill:#C83434; fill-opacity:1.000000; stroke:none;">
<circle cx="59.565000" cy="38.480000" r="0.800000" /> 
</g>
<g style="fill:#C83434; fill-opacity:1.000000; stroke:none;">
<circle cx="59.565000" cy="35.940000" r="0.800000" /> 
<path style="fill:#C83434; fill-opacity:1.000000; stroke:none;fill-rule:evenodd;"
d="M 72.645000,34.975000
72.664030,34.879329
72.718223,34.798223
72.799329,34.744030
72.895000,34.725000
73.995000,34.725000
74.090671,34.744030
74.171777,34.798223
74.225970,34.879329
74.245000,34.975000
74.245000,36.075000
74.225970,36.170671
74.171777,36.251777
74.090671,36.305970
73.995000,36.325000
72.895000,36.325000
72.799329,36.305970
72.718223,36.251777
72.664030,36.170671
72.645000,36.075000
Z" /> 
</g>
<g style="fill:#C83434; fill-opacity:1.000000; stroke:none;">
<circle cx="73.445000" cy="38.065000" r="0.800000" /> 
</g>
<g style="fill:#C83434; fill-opacity:1.000000; stroke:none;">
<circle cx="73.445000" cy="40.605000" r="0.800000" /> 
</g>
<g style="fill:#C83434; fill-opacity:1.000000; stroke:none;">
<circle cx="73.445000" cy="43.145000" r="0.800000" /> 
</g>
<g style="fill:#C83434; fill-opacity:1.000000; stroke:none;">
<circle cx="81.065000" cy="43.145000" r="0.800000" /> 
</g>
<g style="fill:#C83434; fill-opacity:1.000000; stroke:none;">
<circle cx="81.065000" cy="40.605000" r="0.800000" /> 
</g>
<g style="fill:#C83434; fill-opacity:1.000000; stroke:none;">
<circle cx="81.065000" cy="38.065000" r="0.800000" /> 
</g>
<g style="fill:#C83434; fill-opacity:1.000000; stroke:none;">
<circle cx="81.065000" cy="35.525000" r="0.800000" /> 
<path style="fill:#C83434; fill-opacity:1.000000; stroke:none;fill-rule:evenodd;"
d="M 47.100000,38.900000
47.100000,40.600000
45.400000,40.600000
45.400000,38.900000
Z" /> 
</g>
<g style="fill:#C83434; fill-opacity:1.000000; stroke:none;">
<circle cx="46.250000" cy="37.210000" r="0.850000" /> 
<path style="fill:#C83434; fill-opacity:1.000000; stroke:none;fill-rule:evenodd;"
d="M 62.250000,27.485000
60.550000,27.485000
60.550000,25.785000
62.250000,25.785000
Z" /> 
</g>
<g style="fill:#C83434; fill-opacity:1.000000; stroke:none;">
<circle cx="63.940000" cy="26.635000" r="0.850000" /> 
</g>
<g style="fill:#C83434; fill-opacity:1.000000; stroke:none;">
<circle cx="66.480000" cy="26.635000" r="0.850000" /> 
</g>
<g style="fill:#C83434; fill-opacity:1.000000; stroke:none;">
<circle cx="69.020000" cy="26.635000" r="0.850000" /> 
</g>
<g style="fill:#C83434; fill-opacity:1.000000; stroke:none;">
<circle cx="71.560000" cy="26.635000" r="0.850000" /> 
</g>
<g style="fill:#C83434; fill-opacity:1.000000; stroke:none;">
<circle cx="74.100000" cy="26.635000" r="0.850000" /> 
<path style="fill:#C83434; fill-opacity:1.000000; stroke:none;fill-rule:evenodd;"
d="M 64.850000,32.200000
64.830970,32.295671
64.776777,32.376777
64.695671,32.430970
64.600000,32.450000
63.900000,32.450000
63.804329,32.430970
63.723223,32.376777
63.669030,32.295671
63.650000,32.200000
63.650000,31.300000
63.669030,31.204329
63.723223,31.123223
63.804329,31.069030
63.900000,31.050000
64.600000,31.050000
64.695671,31.069030
64.776777,31.123223
64.830970,31.204329
64.850000,31.300000
Z" /> 
<path style="fill:#C83434; fill-opacity:1.000000; stroke:none;fill-rule:evenodd;"
d="M 62.850000,32.200000
62.830970,32.295671
62.776777,32.376777
62.695671,32.430970
62.600000,32.450000
61.900000,32.450000
61.804329,32.430970
61.723223,32.376777
61.669030,32.295671
61.650000,32.200000
61.650000,31.300000
61.669030,31.204329
61.723223,31.123223
61.804329,31.069030
61.900000,31.050000
62.600000,31.050000
62.695671,31.069030
62.776777,31.123223
62.830970,31.204329
62.850000,31.300000
Z" /> 
<path style="fill:#C83434; fill-opacity:1.000000; stroke:none;fill-rule:evenodd;"
d="M 79.850000,32.135000
79.830970,32.230671
79.776777,32.311777
79.695671,32.365970
79.600000,32.385000
78.900000,32.385000
78.804329,32.365970
78.723223,32.311777
78.669030,32.230671
78.650000,32.135000
78.650000,31.235000
78.669030,31.139329
78.723223,31.058223
78.804329,31.004030
78.900000,30.985000
79.600000,30.985000
79.695671,31.004030
79.776777,31.058223
79.830970,31.139329
79.850000,31.235000
Z" /> 
<path style="fill:#C83434; fill-opacity:1.000000; stroke:none;fill-rule:evenodd;"
d="M 77.850000,32.135000
77.830970,32.230671
77.776777,32.311777
77.695671,32.365970
77.600000,32.385000
76.900000,32.385000
76.804329,32.365970
76.723223,32.311777
76.669030,32.230671
76.650000,32.135000
76.650000,31.235000
76.669030,31.139329
76.723223,31.058223
76.804329,31.004030
76.900000,30.985000
77.600000,30.985000
77.695671,31.004030
77.776777,31.058223
77.830970,31.139329
77.850000,31.235000
Z" /> 
<path style="fill:#C83434; fill-opacity:1.000000; stroke:none;fill-rule:evenodd;"
d="M 47.100000,45.940000
47.100000,47.640000
45.400000,47.640000
45.400000,45.940000
Z" /> 
</g>
<g style="fill:#C83434; fill-opacity:1.000000; stroke:none;">
<circle cx="46.250000" cy="44.250000" r="0.850000" /> 
<path style="fill:#C83434; fill-opacity:1.000000; stroke:none;fill-rule:evenodd;"
d="M 51.650000,31.300000
51.669030,31.204329
51.723223,31.123223
51.804329,31.069030
51.900000,31.050000
52.600000,31.050000
52.695671,31.069030
52.776777,31.123223
52.830970,31.204329
52.850000,31.300000
52.850000,32.200000
52.830970,32.295671
52.776777,32.376777
52.695671,32.430970
52.600000,32.450000
51.900000,32.450000
51.804329,32.430970
51.723223,32.376777
51.669030,32.295671
51.650000,32.200000
Z" /> 
<path style="fill:#C83434; fill-opacity:1.000000; stroke:none;fill-rule:evenodd;"
d="M 53.650000,31.300000
53.669030,31.204329
53.723223,31.123223
53.804329,31.069030
53.900000,31.050000
54.600000,31.050000
54.695671,31.069030
54.776777,31.123223
54.830970,31.204329
54.850000,31.300000
54.850000,32.200000
54.830970,32.295671
54.776777,32.376777
54.695671,32.430970
54.600000,32.450000
53.900000,32.450000
53.804329,32.430970
53.723223,32.376777
53.669030,32.295671
53.650000,32.200000
Z" /> 
<path style="fill:#C83434; fill-opacity:1.000000; stroke:none;fill-rule:evenodd;"
d="M 84.350000,32.135000
84.330970,32.230671
84.276777,32.311777
84.195671,32.365970
84.100000,32.385000
83.400000,32.385000
83.304329,32.365970
83.223223,32.311777
83.169030,32.230671
83.150000,32.135000
83.150000,31.235000
83.169030,31.139329
83.223223,31.058223
83.304329,31.004030
83.400000,30.985000
84.100000,30.985000
84.195671,31.004030
84.276777,31.058223
84.330970,31.139329
84.350000,31.235000
Z" /> 
<path style="fill:#C83434; fill-opacity:1.000000; stroke:none;fill-rule:evenodd;"
d="M 82.350000,32.135000
82.330970,32.230671
82.276777,32.311777
82.195671,32.365970
82.100000,32.385000
81.400000,32.385000
81.304329,32.365970
81.223223,32.311777
81.169030,32.230671
81.150000,32.135000
81.150000,31.235000
81.169030,31.139329
81.223223,31.058223
81.304329,31.004030
81.400000,30.985000
82.100000,30.985000
82.195671,31.004030
82.276777,31.058223
82.330970,31.139329
82.350000,31.235000
Z" /> 
<path style="fill:#C83434; fill-opacity:1.000000; stroke:none;fill-rule:evenodd;"
d="M 62.800000,37.850000
62.704329,37.830970
62.623223,37.776777
62.569030,37.695671
62.550000,37.600000
62.550000,36.900000
62.569030,36.804329
62.623223,36.723223
62.704329,36.669030
62.800000,36.650000
63.700000,36.650000
63.795671,36.669030
63.876777,36.723223
63.930970,36.804329
63.950000,36.900000
63.950000,37.600000
63.930970,37.695671
63.876777,37.776777
63.795671,37.830970
63.700000,37.850000
Z" /> 
<path style="fill:#C83434; fill-opacity:1.000000; stroke:none;fill-rule:evenodd;"
d="M 62.800000,35.850000
62.704329,35.830970
62.623223,35.776777
62.569030,35.695671
62.550000,35.600000
62.550000,34.900000
62.569030,34.804329
62.623223,34.723223
62.704329,34.669030
62.800000,34.650000
63.700000,34.650000
63.795671,34.669030
63.876777,34.723223
63.930970,34.804329
63.950000,34.900000
63.950000,35.600000
63.930970,35.695671
63.876777,35.776777
63.795671,35.830970
63.700000,35.850000
Z" /> 
<path style="fill:#C83434; fill-opacity:1.000000; stroke:none;fill-rule:evenodd;"
d="M 59.875000,32.225000
59.855970,32.320671
59.801777,32.401777
59.720671,32.455970
59.625000,32.475000
58.950000,32.475000
58.854329,32.455970
58.773223,32.401777
58.719030,32.320671
58.700000,32.225000
58.700000,31.275000
58.719030,31.179329
58.773223,31.098223
58.854329,31.044030
58.950000,31.025000
59.625000,31.025000
59.720671,31.044030
59.801777,31.098223
59.855970,31.179329
59.875000,31.275000
Z" /> 
<path style="fill:#C83434; fill-opacity:1.000000; stroke:none;fill-rule:evenodd;"
d="M 57.800000,32.225000
57.780970,32.320671
57.726777,32.401777
57.645671,32.455970
57.550000,32.475000
56.875000,32.475000
56.779329,32.455970
56.698223,32.401777
56.644030,32.320671
56.625000,32.225000
56.625000,31.275000
56.644030,31.179329
56.698223,31.098223
56.779329,31.044030
56.875000,31.025000
57.550000,31.025000
57.645671,31.044030
57.726777,31.098223
57.780970,31.179329
57.800000,31.275000
Z" /> 
<path style="fill:#C83434; fill-opacity:1.000000; stroke:none;fill-rule:evenodd;"
d="M 69.350000,32.200000
69.330970,32.295671
69.276777,32.376777
69.195671,32.430970
69.100000,32.450000
68.400000,32.450000
68.304329,32.430970
68.223223,32.376777
68.169030,32.295671
68.150000,32.200000
68.150000,31.300000
68.169030,31.204329
68.223223,31.123223
68.304329,31.069030
68.400000,31.050000
69.100000,31.050000
69.195671,31.069030
69.276777,31.123223
69.330970,31.204329
69.350000,31.300000
Z" /> 
<path style="fill:#C83434; fill-opacity:1.000000; stroke:none;fill-rule:evenodd;"
d="M 67.350000,32.200000
67.330970,32.295671
67.276777,32.376777
67.195671,32.430970
67.100000,32.450000
66.400000,32.450000
66.304329,32.430970
66.223223,32.376777
66.169030,32.295671
66.150000,32.200000
66.150000,31.300000
66.169030,31.204329
66.223223,31.123223
66.304329,31.069030
66.400000,31.050000
67.100000,31.050000
67.195671,31.069030
67.276777,31.123223
67.330970,31.204329
67.350000,31.300000
Z" /> 
<path style="fill:#C83434; fill-opacity:1.000000; stroke:none;fill-rule:evenodd;"
d="M 68.700000,35.650000
68.795671,35.669030
68.876777,35.723223
68.930970,35.804329
68.950000,35.900000
68.950000,36.600000
68.930970,36.695671
68.876777,36.776777
68.795671,36.830970
68.700000,36.850000
67.800000,36.850000
67.704329,36.830970
67.623223,36.776777
67.569030,36.695671
67.550000,36.600000
67.550000,35.900000
67.569030,35.804329
67.623223,35.723223
67.704329,35.669030
67.800000,35.650000
Z" /> 
<path style="fill:#C83434; fill-opacity:1.000000; stroke:none;fill-rule:evenodd;"
d="M 68.700000,37.650000
68.795671,37.669030
68.876777,37.723223
68.930970,37.804329
68.950000,37.900000
68.950000,38.600000
68.930970,38.695671
68.876777,38.776777
68.795671,38.830970
68.700000,38.850000
67.800000,38.850000
67.704329,38.830970
67.623223,38.776777
67.569030,38.695671
67.550000,38.600000
67.550000,37.900000
67.569030,37.804329
67.623223,37.723223
67.704329,37.669030
67.800000,37.650000
Z" /> 
</g>
<g style="fill:#C83434; fill-opacity:1.000000; stroke:none;">
<circle cx="55.750000" cy="39.250000" r="0.500000" /> 
</g>
<g style="fill:none; 
stroke:#C83434; stroke-width:0.635000; stroke-opacity:1; 
stroke-linecap:round; stroke-linejoin:round;">
<path d="M66.750000 28.905000
L69.020000 26.635000
" />
<path d="M66.750000 31.750000
L66.750000 28.905000
" />
<path d="M66.750000 31.750000
L64.250000 31.750000
" />
<path d="M51.945000 38.480000
L52.557500 38.480000
" />
<path d="M52.557500 38.480000
L59.287500 31.750000
" />
<path d="M62.250000 31.750000
L59.287500 31.750000
" />
<path d="M52.785500 44.878500
L51.398859 44.878500
" />
<path d="M50.576500 44.056141
L50.576500 31.529750
" />
<path d="M51.398859 44.878500
L50.576500 44.056141
" />
<path d="M50.576500 31.529750
L51.574750 30.531500
" />
<path d="M56.644000 41.020000
L52.785500 44.878500
" />
<path d="M53.031500 30.531500
L54.250000 31.750000
" />
<path d="M60.295000 41.750000
L59.565000 41.020000
" />
<path d="M59.565000 41.020000
L56.644000 41.020000
" />
<path d="M51.574750 30.531500
L53.031500 30.531500
" />
<path d="M63.250000 41.750000
L60.295000 41.750000
" />
<path d="M57.212500 31.750000
L55.994000 32.968500
" />
<path d="M67.898500 25.216500
L66.480000 26.635000
" />
<path d="M52.250000 31.750000
L52.250000 35.635000
" />
<path d="M52.250000 35.635000
L51.945000 35.940000
" />
<path d="M74.687562 25.216500
L67.898500 25.216500
" />
<path d="M55.994000 32.968500
L53.468500 32.968500
" />
<path d="M60.712500 28.250000
L57.212500 31.750000
" />
<path d="M79.250000 29.778938
L74.687562 25.216500
" />
<path d="M66.480000 26.635000
L64.865000 28.250000
" />
<path d="M79.250000 31.685000
L79.250000 29.778938
" />
<path d="M64.865000 28.250000
L60.712500 28.250000
" />
<path d="M53.468500 32.968500
L52.250000 31.750000
" />
<path d="M73.445000 38.065000
L68.435000 38.065000
" />
<path d="M68.250000 38.250000
L65.250000 35.250000
" />
<path d="M63.250000 35.250000
L65.250000 35.250000
" />
<path d="M65.250000 35.250000
L68.750000 31.750000
" />
<path d="M68.435000 38.065000
L68.250000 38.250000
" />
<path d="M63.250000 40.212500
L63.250000 37.250000
" />
<path d="M60.835000 39.750000
L63.175000 39.750000
" />
<path d="M59.565000 38.480000
L60.835000 39.750000
" />
<path d="M63.175000 39.750000
L63.250000 39.675000
" />
<path d="M63.250000 39.675000
L63.250000 37.250000
" />
<path d="M76.250000 33.835000
L74.250000 31.835000
" />
<path d="M82.383500 36.746500
L82.383500 33.968500
" />
<path d="M82.250000 33.835000
L76.250000 33.835000
" />
<path d="M81.065000 38.065000
L82.383500 36.746500
" />
<path d="M82.383500 33.968500
L82.250000 33.835000
" />
<path d="M69.835000 36.250000
L74.250000 31.835000
" />
<path d="M68.250000 36.250000
L69.835000 36.250000
" />
<path d="M83.810750 31.624250
L85.214782 31.624250
" />
<path d="M82.795000 46.790000
L46.250000 46.790000
" />
<path d="M85.250000 44.335000
L82.795000 46.790000
" />
<path d="M85.214782 31.624250
L85.250000 31.659468
" />
<path d="M85.250000 31.659468
L85.250000 44.335000
" />
<path d="M83.750000 31.685000
L83.810750 31.624250
" />
<path d="M83.750000 40.460000
L83.750000 33.685000
" />
<path d="M81.065000 43.145000
L83.750000 40.460000
" />
<path d="M73.468500 30.616500
L72.250000 31.835000
" />
<path d="M83.750000 33.685000
L81.750000 31.685000
" />
<path d="M76.181500 30.616500
L73.468500 30.616500
" />
<path d="M80.531500 32.903500
L78.468500 32.903500
" />
<path d="M77.250000 31.685000
L76.181500 30.616500
" />
<path d="M78.468500 32.903500
L77.250000 31.685000
" />
<path d="M81.750000 31.685000
L80.531500 32.903500
" />
<path style="fill:#C83434; fill-opacity:1.000000; stroke:none;fill-rule:evenodd;"
d="M 85.692539,22.020185
85.738294,22.072989
85.749500,22.124500
85.749500,30.774761
85.729815,30.841800
85.677011,30.887555
85.607853,30.897499
85.578049,30.889323
85.573781,30.887555
85.524156,30.867000
85.453384,30.837685
85.453376,30.837683
85.295352,30.806250
85.295348,30.806250
84.783980,30.806250
84.716941,30.786565
84.696299,30.769931
84.568657,30.642289
84.568656,30.642288
84.419334,30.550186
84.252797,30.495001
84.252795,30.495000
84.150010,30.484500
83.349998,30.484500
83.349980,30.484501
83.247203,30.495000
83.247200,30.495001
83.080668,30.550185
83.080663,30.550187
82.931342,30.642289
82.837681,30.735951
82.776358,30.769436
82.706666,30.764452
82.662319,30.735951
82.568657,30.642289
82.568656,30.642288
82.419334,30.550186
82.252797,30.495001
82.252795,30.495000
82.150010,30.484500
81.349998,30.484500
81.349980,30.484501
81.247203,30.495000
81.247200,30.495001
81.080668,30.550185
81.080663,30.550187
80.931342,30.642289
80.807289,30.766342
80.715187,30.915663
80.715185,30.915668
80.693648,30.980663
80.660001,31.082203
80.660001,31.082204
80.660000,31.082204
80.649500,31.184983
80.649500,31.577310
80.640855,31.606750
80.634332,31.636737
80.630577,31.641752
80.629815,31.644349
80.613181,31.664991
80.562180,31.715992
80.500857,31.749477
80.431165,31.744493
80.375232,31.702621
80.350815,31.637157
80.350499,31.628311
80.350499,31.184998
80.350498,31.184981
80.339999,31.082203
80.339998,31.082200
80.334518,31.065663
80.284814,30.915666
80.192712,30.766344
80.104319,30.677951
80.070834,30.616628
80.068000,30.590270
80.068000,29.698371
80.067999,29.698367
80.036567,29.540343
80.036564,29.540334
80.020874,29.502454
79.974905,29.391474
79.974904,29.391473
79.974903,29.391470
79.908751,29.292468
79.885382,29.257493
79.771445,29.143556
79.771442,29.143554
78.646115,28.018227
75.209010,24.581120
75.209006,24.581117
75.075036,24.491600
75.075023,24.491593
74.926168,24.429936
74.926156,24.429933
74.768132,24.398500
74.768128,24.398500
67.817934,24.398500
67.817929,24.398500
67.659905,24.429933
67.659893,24.429936
67.511038,24.491593
67.511025,24.491600
67.377055,24.581117
67.377051,24.581120
66.706400,25.251771
66.645077,25.285256
66.599325,25.286564
66.586291,25.284500
66.586287,25.284500
66.373713,25.284500
66.325042,25.292208
66.163760,25.317753
65.961585,25.383444
65.772179,25.479951
65.600213,25.604890
65.449890,25.755213
65.324949,25.927182
65.320484,25.935946
65.272509,25.986742
65.204688,26.003536
65.138553,25.980998
65.099516,25.935946
65.095050,25.927182
64.970109,25.755213
64.819786,25.604890
64.647820,25.479951
64.458414,25.383444
64.458413,25.383443
64.458412,25.383443
64.256243,25.317754
64.256241,25.317753
64.256240,25.317753
64.094957,25.292208
64.046287,25.284500
63.833713,25.284500
63.785042,25.292208
63.623760,25.317753
63.421585,25.383444
63.232179,25.479951
63.060215,25.604889
62.946673,25.718431
62.885350,25.751915
62.815658,25.746931
62.759725,25.705059
62.742810,25.674082
62.693797,25.542671
62.693793,25.542664
62.607547,25.427455
62.607544,25.427452
62.492335,25.341206
62.492328,25.341202
62.357482,25.290908
62.357483,25.290908
62.297883,25.284501
62.297881,25.284500
62.297873,25.284500
62.297864,25.284500
60.502129,25.284500
60.502123,25.284501
60.442516,25.290908
60.307671,25.341202
60.307664,25.341206
60.192455,25.427452
60.192452,25.427455
60.106206,25.542664
60.106202,25.542671
60.055908,25.677517
60.049501,25.737116
60.049500,25.737135
60.049500,27.532870
60.049501,27.532876
60.055909,27.592484
60.070786,27.632373
60.075770,27.702065
60.042285,27.763386
57.317490,30.488181
57.256167,30.521666
57.229809,30.524500
56.824998,30.524500
56.824980,30.524501
56.722203,30.535000
56.722200,30.535001
56.555668,30.590185
56.555663,30.590187
56.406342,30.682289
56.282289,30.806342
56.190187,30.955663
56.190186,30.955666
56.135001,31.122203
56.135001,31.122204
56.135000,31.122204
56.124500,31.224983
56.124500,31.629810
56.104815,31.696849
56.088181,31.717491
55.691492,32.114181
55.664564,32.128884
55.638746,32.145477
55.632545,32.146368
55.630169,32.147666
55.603811,32.150500
55.474500,32.150500
55.407461,32.130815
55.361706,32.078011
55.350500,32.026500
55.350499,31.249998
55.350498,31.249980
55.339999,31.147203
55.339998,31.147200
55.312979,31.065663
55.284814,30.980666
55.192712,30.831344
55.068656,30.707288
54.967672,30.645001
54.919336,30.615187
54.919331,30.615185
54.868016,30.598181
54.752797,30.560001
54.752795,30.560000
54.650016,30.549500
54.650009,30.549500
54.257689,30.549500
54.190650,30.529815
54.170008,30.513181
53.552948,29.896120
53.552944,29.896117
53.418974,29.806600
53.418961,29.806593
53.270106,29.744936
53.270094,29.744933
53.112070,29.713500
53.112066,29.713500
51.494184,29.713500
51.494183,29.713500
51.470304,29.718250
51.446424,29.723000
51.358082,29.740572
51.336147,29.744935
51.336146,29.744935
51.187286,29.806594
51.187285,29.806595
51.108102,29.859504
51.108101,29.859505
51.053304,29.896118
50.996336,29.953086
50.939368,30.010055
50.939366,30.010057
49.941120,31.008301
49.941117,31.008305
49.851598,31.142278
49.827848,31.199618
49.789935,31.291147
49.789933,31.291155
49.758500,31.449179
49.758500,44.136711
49.789933,44.294736
49.789935,44.294742
49.812915,44.350220
49.812914,44.350220
49.812915,44.350221
49.851597,44.443609
49.851598,44.443612
49.941117,44.577585
49.941120,44.577589
50.877413,45.513882
51.011384,45.603398
51.011390,45.603402
51.032070,45.611968
51.054983,45.621459
51.054988,45.621460
51.054992,45.621462
51.160257,45.665065
51.318288,45.696499
51.318292,45.696500
51.318293,45.696500
52.866067,45.696500
52.866068,45.696499
53.024102,45.665065
53.098535,45.634233
53.172968,45.603403
53.306945,45.513882
53.809111,45.011716
54.316294,44.504534
55.455692,43.365135
56.946508,41.874319
57.007831,41.840834
57.034189,41.838000
58.492453,41.838000
58.559492,41.857685
58.580134,41.874319
58.717786,42.011971
58.883385,42.132284
58.883387,42.132285
58.883390,42.132287
58.975529,42.179234
58.976630,42.179795
59.027426,42.227770
59.044221,42.295591
59.021684,42.361725
58.976630,42.400765
58.883644,42.448143
58.839077,42.480523
58.839077,42.480524
59.518554,43.160000
59.512339,43.160000
59.410606,43.187259
59.319394,43.239920
59.244920,43.314394
59.192259,43.405606
59.165000,43.507339
59.165000,43.513553
58.485524,42.834077
58.485523,42.834077
58.453143,42.878644
58.360244,43.060968
58.297009,43.255582
58.265000,43.457682
58.265000,43.662317
58.297009,43.864417
58.360244,44.059031
58.453141,44.241350
58.453147,44.241359
58.485523,44.285921
58.485524,44.285922
59.165000,43.606446
59.165000,43.612661
59.192259,43.714394
59.244920,43.805606
59.319394,43.880080
59.410606,43.932741
59.512339,43.960000
59.518553,43.960000
58.839076,44.639474
58.883650,44.671859
59.065968,44.764755
59.260582,44.827990
59.462683,44.860000
59.667317,44.860000
59.869417,44.827990
60.064031,44.764755
60.246349,44.671859
60.290921,44.639474
59.611447,43.960000
59.617661,43.960000
59.719394,43.932741
59.810606,43.880080
59.885080,43.805606
59.937741,43.714394
59.965000,43.612661
59.965000,43.606446
60.644474,44.285921
60.676859,44.241349
60.769755,44.059031
60.832990,43.864417
60.865000,43.662317
60.865000,43.457682
60.832990,43.255582
60.774670,43.076095
60.769755,43.060968
60.676859,42.878650
60.594204,42.764886
60.570724,42.699080
60.586549,42.631026
60.636655,42.582331
60.694522,42.568000
62.142770,42.568000
62.209809,42.587685
62.230451,42.604319
62.306344,42.680212
62.455666,42.772314
62.622203,42.827499
62.724991,42.838000
63.775008,42.837999
63.775016,42.837998
63.775019,42.837998
63.831302,42.832248
63.877797,42.827499
64.044334,42.772314
64.193656,42.680212
64.317712,42.556156
64.409814,42.406834
64.464999,42.240297
64.475500,42.137509
64.475499,41.362492
64.464999,41.259703
64.409814,41.093166
64.317712,40.943844
64.193656,40.819788
64.190819,40.818038
64.189283,40.816330
64.187989,40.815307
64.188163,40.815085
64.144096,40.766094
64.132872,40.697132
64.160713,40.633049
64.190817,40.606962
64.193656,40.605212
64.317712,40.481156
64.409814,40.331834
64.464999,40.165297
64.475500,40.062509
64.475499,39.287492
64.475225,39.284814
64.464999,39.184703
64.464998,39.184700
64.426545,39.068657
64.409814,39.018166
64.317712,38.868844
64.193656,38.744788
64.193655,38.744787
64.126902,38.703613
64.080178,38.651665
64.068000,38.598075
64.068000,38.324003
64.087685,38.256964
64.126902,38.218465
64.168656,38.192712
64.292712,38.068656
64.384814,37.919334
64.439999,37.752797
64.450500,37.650009
64.450499,36.849992
64.448122,36.826727
64.439999,36.747203
64.439998,36.747200
64.413658,36.667712
64.384814,36.580666
64.292712,36.431344
64.199049,36.337681
64.194710,36.329735
64.187463,36.324310
64.178228,36.299550
64.165564,36.276358
64.166209,36.267328
64.163046,36.258846
64.168662,36.233025
64.170548,36.206666
64.176366,36.197612
64.177898,36.190573
64.199049,36.162319
64.257049,36.104319
64.318372,36.070834
64.344730,36.068000
64.859811,36.068000
64.926850,36.087685
64.947492,36.104319
67.013181,38.170007
67.046666,38.231330
67.049500,38.257688
67.049500,38.650001
67.049501,38.650019
67.060000,38.752796
67.060001,38.752799
67.115185,38.919331
67.115187,38.919336
67.150069,38.975888
67.207288,39.068656
67.331344,39.192712
67.480666,39.284814
67.647203,39.339999
67.749991,39.350500
68.750008,39.350499
68.750016,39.350498
68.750019,39.350498
68.806302,39.344748
68.852797,39.339999
69.019334,39.284814
69.168656,39.192712
69.292712,39.068656
69.370893,38.941902
69.422841,38.895179
69.476432,38.883000
72.372453,38.883000
72.439492,38.902685
72.460134,38.919319
72.597786,39.056971
72.763385,39.177284
72.763387,39.177285
72.763390,39.177287
72.856630,39.224795
72.907426,39.272770
72.924221,39.340591
72.901684,39.406725
72.856630,39.445765
72.763644,39.493143
72.719077,39.525523
72.719077,39.525524
73.398554,40.205000
73.392339,40.205000
73.290606,40.232259
73.199394,40.284920
73.124920,40.359394
73.072259,40.450606
73.045000,40.552339
73.045000,40.558553
72.365524,39.879077
72.365523,39.879077
72.333143,39.923644
72.240244,40.105968
72.177009,40.300582
72.145000,40.502682
72.145000,40.707317
72.177009,40.909417
72.240244,41.104031
72.333141,41.286350
72.333147,41.286359
72.365523,41.330921
72.365524,41.330922
73.045000,40.651446
73.045000,40.657661
73.072259,40.759394
73.124920,40.850606
73.199394,40.925080
73.290606,40.977741
73.392339,41.005000
73.398553,41.005000
72.719076,41.684474
72.763652,41.716861
72.856628,41.764234
72.907425,41.812208
72.924220,41.880029
72.901683,41.946164
72.856630,41.985203
72.763388,42.032713
72.597786,42.153028
72.453028,42.297786
72.332715,42.463386
72.239781,42.645776
72.176522,42.840465
72.144500,43.042648
72.144500,43.247351
72.176522,43.449534
72.239781,43.644223
72.332715,43.826613
72.453028,43.992213
72.597786,44.136971
72.741453,44.241349
72.763390,44.257287
72.878279,44.315826
72.945776,44.350218
72.945778,44.350218
72.945781,44.350220
73.050137,44.384127
73.140465,44.413477
73.241557,44.429488
73.342648,44.445500
73.342649,44.445500
73.547351,44.445500
73.547352,44.445500
73.749534,44.413477
73.944219,44.350220
74.126610,44.257287
74.227242,44.184174
74.292213,44.136971
74.292215,44.136968
74.292219,44.136966
74.436966,43.992219
74.436968,43.992215
74.436971,43.992213
74.494120,43.913553
74.557287,43.826610
74.650220,43.644219
74.713477,43.449534
74.745500,43.247352
74.745500,43.042648
74.728172,42.933242
74.713477,42.840465
74.671991,42.712786
74.650220,42.645781
74.650218,42.645778
74.650218,42.645776
74.610603,42.568028
74.557287,42.463390
74.549556,42.452749
74.436971,42.297786
74.292213,42.153028
74.126611,42.032713
74.033369,41.985203
73.982574,41.937229
73.965779,41.869407
73.988317,41.803273
74.033371,41.764234
74.126346,41.716861
74.126347,41.716861
74.170921,41.684474
73.491447,41.005000
73.497661,41.005000
73.599394,40.977741
73.690606,40.925080
73.765080,40.850606
73.817741,40.759394
73.845000,40.657661
73.845000,40.651448
74.524474,41.330922
74.524474,41.330921
74.556859,41.286349
74.649755,41.104031
74.712990,40.909417
74.745000,40.707317
74.745000,40.502682
74.712990,40.300582
74.649755,40.105968
74.556859,39.923650
74.524474,39.879077
74.524474,39.879076
73.845000,40.558551
73.845000,40.552339
73.817741,40.450606
73.765080,40.359394
73.690606,40.284920
73.599394,40.232259
73.497661,40.205000
73.491446,40.205000
74.170922,39.525524
74.170921,39.525523
74.126359,39.493147
74.126350,39.493141
74.033369,39.445765
73.982573,39.397790
73.965778,39.329969
73.988315,39.263835
74.033370,39.224795
74.126610,39.177287
74.176144,39.141298
74.292213,39.056971
74.292215,39.056968
74.292219,39.056966
74.436966,38.912219
74.436968,38.912215
74.436971,38.912213
74.489732,38.839590
74.557287,38.746610
74.650220,38.564219
74.713477,38.369534
74.745500,38.167352
74.745500,37.962648
74.713477,37.760466
74.650220,37.565781
74.650218,37.565778
74.650218,37.565776
74.610603,37.488028
74.557287,37.383390
74.518026,37.329351
74.436971,37.217786
74.292219,37.073034
74.263659,37.052284
74.198547,37.004978
74.155882,36.949649
74.149903,36.880036
74.182508,36.818240
74.232426,36.786955
74.314334,36.759814
74.463656,36.667712
74.587712,36.543656
74.679814,36.394334
74.734999,36.227797
74.745500,36.125009
74.745499,34.924992
74.738269,34.854219
74.734999,34.822203
74.734998,34.822200
74.725868,34.794647
74.679814,34.655666
74.587712,34.506344
74.463656,34.382288
74.314334,34.290186
74.147797,34.235001
74.147795,34.235000
74.045016,34.224500
74.045009,34.224500
73.316687,34.224500
73.249648,34.204815
73.203893,34.152011
73.193949,34.082853
73.222974,34.019297
73.229006,34.012819
74.162318,33.079507
74.223641,33.046022
74.293333,33.051006
74.337680,33.079507
75.614617,34.356444
75.614618,34.356445
75.687339,34.429166
75.728554,34.470381
75.862533,34.559903
75.912660,34.580666
76.011398,34.621565
76.169429,34.652999
76.169433,34.653000
76.169434,34.653000
79.847966,34.653000
79.915005,34.672685
79.960760,34.725489
79.970704,34.794647
79.954720,34.838944
79.954925,34.839049
79.954094,34.840678
79.953694,34.841789
79.952714,34.843387
79.859781,35.025776
79.796522,35.220465
79.764500,35.422648
79.764500,35.627351
79.796522,35.829534
79.859781,36.024223
79.911135,36.125009
79.948128,36.197612
79.952715,36.206613
80.073028,36.372213
80.217786,36.516971
80.361812,36.621610
80.383390,36.637287
80.474840,36.683883
80.476080,36.684515
80.526876,36.732490
80.543671,36.800311
80.521134,36.866446
80.476080,36.905485
80.383386,36.952715
80.217786,37.073028
80.073028,37.217786
79.952715,37.383386
79.859781,37.565776
79.796522,37.760465
79.764500,37.962648
79.764500,38.167351
79.796522,38.369534
79.859781,38.564223
79.912294,38.667283
79.951784,38.744787
79.952715,38.746613
80.073028,38.912213
80.217786,39.056971
80.383385,39.177284
80.383387,39.177285
80.383390,39.177287
80.476630,39.224795
80.527426,39.272770
80.544221,39.340591
80.521684,39.406725
80.476630,39.445765
80.383644,39.493143
80.339077,39.525523
80.339077,39.525524
81.018554,40.205000
81.012339,40.205000
80.910606,40.232259
80.819394,40.284920
80.744920,40.359394
80.692259,40.450606
80.665000,40.552339
80.665000,40.558553
79.985524,39.879077
79.985523,39.879077
79.953143,39.923644
79.860244,40.105968
79.797009,40.300582
79.765000,40.502682
79.765000,40.707317
79.797009,40.909417
79.860244,41.104031
79.953141,41.286350
79.953147,41.286359
79.985523,41.330921
79.985524,41.330922
80.665000,40.651446
80.665000,40.657661
80.692259,40.759394
80.744920,40.850606
80.819394,40.925080
80.910606,40.977741
81.012339,41.005000
81.018553,41.005000
80.339076,41.684474
80.383652,41.716861
80.476628,41.764234
80.527425,41.812208
80.544220,41.880029
80.521683,41.946164
80.476630,41.985203
80.383388,42.032713
80.217786,42.153028
80.073028,42.297786
79.952715,42.463386
79.859781,42.645776
79.796522,42.840465
79.764500,43.042648
79.764500,43.247351
79.796522,43.449534
79.859781,43.644223
79.952715,43.826613
80.073028,43.992213
80.217786,44.136971
80.361453,44.241349
80.383390,44.257287
80.498279,44.315826
80.565776,44.350218
80.565778,44.350218
80.565781,44.350220
80.670137,44.384127
80.760465,44.413477
80.861557,44.429488
80.962648,44.445500
80.962649,44.445500
81.167351,44.445500
81.167352,44.445500
81.369534,44.413477
81.564219,44.350220
81.746610,44.257287
81.847242,44.184174
81.912213,44.136971
81.912215,44.136968
81.912219,44.136966
82.056966,43.992219
82.056968,43.992215
82.056971,43.992213
82.114120,43.913553
82.177287,43.826610
82.270220,43.644219
82.333477,43.449534
82.365500,43.247352
82.365500,43.052688
82.385185,42.985649
82.401819,42.965007
84.220319,41.146508
84.281642,41.113023
84.351334,41.118007
84.407267,41.159879
84.431684,41.225343
84.432000,41.234189
84.432000,43.944811
84.412315,44.011850
84.395681,44.032492
82.492492,45.935681
82.431169,45.969166
82.404811,45.972000
47.720470,45.972000
47.653431,45.952315
47.607676,45.899511
47.597180,45.861253
47.594091,45.832516
47.543797,45.697671
47.543793,45.697664
47.457547,45.582455
47.457544,45.582452
47.342335,45.496206
47.342328,45.496202
47.207482,45.445908
47.207483,45.445908
47.147883,45.439501
47.147881,45.439500
47.147873,45.439500
47.147865,45.439500
47.137309,45.439500
47.070270,45.419815
47.049628,45.403181
46.379408,44.732962
46.442993,44.715925
46.557007,44.650099
46.650099,44.557007
46.715925,44.442993
46.732962,44.379409
47.365270,45.011717
47.365270,45.011716
47.404622,44.957554
47.501095,44.768217
47.566757,44.566130
47.566757,44.566127
47.600000,44.356246
47.600000,44.143753
47.566757,43.933872
47.566757,43.933869
47.501095,43.731782
47.404624,43.542449
47.365270,43.488282
47.365269,43.488282
46.732962,44.120590
46.715925,44.057007
46.650099,43.942993
46.557007,43.849901
46.442993,43.784075
46.379409,43.767037
47.011716,43.134728
46.957550,43.095375
46.768217,42.998904
46.566129,42.933242
46.356246,42.900000
46.143754,42.900000
45.933872,42.933242
45.933869,42.933242
45.731782,42.998904
45.542439,43.095380
45.488282,43.134727
45.488282,43.134728
46.120591,43.767037
46.057007,43.784075
45.942993,43.849901
45.849901,43.942993
45.784075,44.057007
45.767037,44.120591
45.134728,43.488282
45.134727,43.488282
45.095380,43.542439
44.998904,43.731782
44.933242,43.933869
44.933242,43.933872
44.900000,44.143753
44.900000,44.356246
44.933242,44.566127
44.933242,44.566130
44.998904,44.768217
45.095375,44.957550
45.134728,45.011716
45.767037,44.379408
45.784075,44.442993
45.849901,44.557007
45.942993,44.650099
46.057007,44.715925
46.120590,44.732962
45.450370,45.403181
45.389047,45.436666
45.362698,45.439500
45.352134,45.439500
45.352123,45.439501
45.292516,45.445908
45.157671,45.496202
45.157664,45.496206
45.042455,45.582452
45.042452,45.582455
44.956206,45.697664
44.956202,45.697671
44.905908,45.832517
44.899501,45.892116
44.899500,45.892135
44.899500,47.687870
44.899501,47.687876
44.905908,47.747483
44.956202,47.882328
44.956206,47.882335
45.042452,47.997544
45.042455,47.997547
45.157664,48.083793
45.157671,48.083797
45.292517,48.134091
45.292516,48.134091
45.299444,48.134835
45.352127,48.140500
47.147872,48.140499
47.207483,48.134091
47.342331,48.083796
47.457546,47.997546
47.543796,47.882331
47.594091,47.747483
47.597181,47.718745
47.623919,47.654194
47.681311,47.614345
47.720470,47.608000
82.875567,47.608000
82.875568,47.607999
83.033602,47.576565
83.108035,47.545733
83.182468,47.514903
83.316445,47.425382
85.537819,45.204008
85.599142,45.170523
85.668834,45.175507
85.724767,45.217379
85.749184,45.282843
85.749500,45.291689
85.749500,48.375500
85.729815,48.442539
85.677011,48.488294
85.625500,48.499500
44.374500,48.499500
44.307461,48.479815
44.261706,48.427011
44.250500,48.375500
44.250500,38.852135
44.899500,38.852135
44.899500,40.647870
44.899501,40.647876
44.905908,40.707483
44.956202,40.842328
44.956206,40.842335
45.042452,40.957544
45.042455,40.957547
45.157664,41.043793
45.157671,41.043797
45.292517,41.094091
45.292516,41.094091
45.299444,41.094835
45.352127,41.100500
47.147872,41.100499
47.207483,41.094091
47.342331,41.043796
47.457546,40.957546
47.543796,40.842331
47.594091,40.707483
47.600500,40.647873
47.600499,38.852128
47.594091,38.792517
47.579276,38.752797
47.543797,38.657671
47.543793,38.657664
47.457547,38.542455
47.457544,38.542452
47.342335,38.456206
47.342328,38.456202
47.207482,38.405908
47.207483,38.405908
47.147883,38.399501
47.147881,38.399500
47.147873,38.399500
47.147865,38.399500
47.137309,38.399500
47.070270,38.379815
47.049628,38.363181
46.379408,37.692962
46.442993,37.675925
46.557007,37.610099
46.650099,37.517007
46.715925,37.402993
46.732962,37.339409
47.365270,37.971717
47.365270,37.971716
47.404622,37.917554
47.501095,37.728217
47.566757,37.526130
47.566757,37.526127
47.600000,37.316246
47.600000,37.103753
47.566757,36.893872
47.566757,36.893869
47.501095,36.691782
47.404624,36.502449
47.365270,36.448282
47.365269,36.448282
46.732962,37.080590
46.715925,37.017007
46.650099,36.902993
46.557007,36.809901
46.442993,36.744075
46.379409,36.727037
47.011716,36.094728
46.957550,36.055375
46.768217,35.958904
46.566129,35.893242
46.356246,35.860000
46.143754,35.860000
45.933872,35.893242
45.933869,35.893242
45.731782,35.958904
45.542439,36.055380
45.488282,36.094727
45.488282,36.094728
46.120591,36.727037
46.057007,36.744075
45.942993,36.809901
45.849901,36.902993
45.784075,37.017007
45.767037,37.080591
45.134728,36.448282
45.134727,36.448282
45.095380,36.502439
44.998904,36.691782
44.933242,36.893869
44.933242,36.893872
44.900000,37.103753
44.900000,37.316246
44.933242,37.526127
44.933242,37.526130
44.998904,37.728217
45.095375,37.917550
45.134728,37.971716
45.767037,37.339408
45.784075,37.402993
45.849901,37.517007
45.942993,37.610099
46.057007,37.675925
46.120590,37.692962
45.450370,38.363181
45.389047,38.396666
45.362698,38.399500
45.352134,38.399500
45.352123,38.399501
45.292516,38.405908
45.157671,38.456202
45.157664,38.456206
45.042455,38.542452
45.042452,38.542455
44.956206,38.657664
44.956202,38.657671
44.905908,38.792517
44.899501,38.852116
44.899501,38.852123
44.899500,38.852135
44.250500,38.852135
44.250500,29.812135
44.899500,29.812135
44.899500,31.607870
44.899501,31.607876
44.905908,31.667483
44.956202,31.802328
44.956206,31.802335
45.042452,31.917544
45.042455,31.917547
45.157664,32.003793
45.157671,32.003797
45.202618,32.020561
45.292517,32.054091
45.352127,32.060500
45.362685,32.060499
45.429723,32.080179
45.450372,32.096818
46.120591,32.767037
46.057007,32.784075
45.942993,32.849901
45.849901,32.942993
45.784075,33.057007
45.767037,33.120591
45.134728,32.488282
45.134727,32.488282
45.095380,32.542439
44.998904,32.731782
44.933242,32.933869
44.933242,32.933872
44.900000,33.143753
44.900000,33.356246
44.933242,33.566127
44.933242,33.566130
44.998904,33.768217
45.095375,33.957550
45.134728,34.011716
45.767037,33.379408
45.784075,33.442993
45.849901,33.557007
45.942993,33.650099
46.057007,33.715925
46.120590,33.732962
45.488282,34.365269
45.488282,34.365270
45.542449,34.404624
45.731782,34.501095
45.933870,34.566757
46.143754,34.600000
46.356246,34.600000
46.566127,34.566757
46.566130,34.566757
46.768217,34.501095
46.957554,34.404622
47.011716,34.365270
47.011717,34.365270
46.379408,33.732962
46.442993,33.715925
46.557007,33.650099
46.650099,33.557007
46.715925,33.442993
46.732962,33.379409
47.365270,34.011717
47.365270,34.011716
47.404622,33.957554
47.501095,33.768217
47.566757,33.566130
47.566757,33.566127
47.600000,33.356246
47.600000,33.143753
47.566757,32.933872
47.566757,32.933869
47.501095,32.731782
47.404624,32.542449
47.365270,32.488282
47.365269,32.488282
46.732962,33.120590
46.715925,33.057007
46.650099,32.942993
46.557007,32.849901
46.442993,32.784075
46.379409,32.767037
47.049627,32.096818
47.110950,32.063333
47.137307,32.060499
47.147872,32.060499
47.207483,32.054091
47.342331,32.003796
47.457546,31.917546
47.543796,31.802331
47.594091,31.667483
47.600500,31.607873
47.600499,29.812128
47.594091,29.752517
47.591263,29.744936
47.543797,29.617671
47.543793,29.617664
47.457546,29.502454
47.457544,29.502452
47.342335,29.416206
47.342328,29.416202
47.207482,29.365908
47.207483,29.365908
47.147883,29.359501
47.147881,29.359500
47.147873,29.359500
47.147864,29.359500
45.352129,29.359500
45.352123,29.359501
45.292516,29.365908
45.157671,29.416202
45.157664,29.416206
45.042455,29.502452
45.042454,29.502454
44.956206,29.617664
44.956202,29.617671
44.905908,29.752517
44.900094,29.806600
44.899501,29.812123
44.899500,29.812135
44.250500,29.812135
44.250500,22.124500
44.270185,22.057461
44.322989,22.011706
44.374500,22.000500
85.625500,22.000500
Z" /> 
<path style="fill:#C83434; fill-opacity:1.000000; stroke:none;fill-rule:evenodd;"
d="M 61.243035,32.587685
61.281533,32.626901
61.307288,32.668656
61.431344,32.792712
61.580666,32.884814
61.747203,32.939999
61.849991,32.950500
62.650008,32.950499
62.650016,32.950498
62.650019,32.950498
62.723487,32.942993
62.752797,32.939999
62.919334,32.884814
63.068656,32.792712
63.162319,32.699049
63.223642,32.665564
63.293334,32.670548
63.337681,32.699049
63.431344,32.792712
63.580666,32.884814
63.747203,32.939999
63.849991,32.950500
64.650008,32.950499
64.650016,32.950498
64.650019,32.950498
64.723487,32.942993
64.752797,32.939999
64.919334,32.884814
65.068656,32.792712
65.192712,32.668656
65.218465,32.626902
65.270413,32.580179
65.324004,32.568000
65.675996,32.568000
65.743035,32.587685
65.781533,32.626901
65.807288,32.668656
65.931344,32.792712
66.080666,32.884814
66.173525,32.915584
66.230968,32.955355
66.257792,33.019871
66.245477,33.088647
66.222201,33.120970
64.947492,34.395681
64.886169,34.429166
64.859811,34.432000
64.344730,34.432000
64.277691,34.412315
64.257049,34.395681
64.168657,34.307289
64.168656,34.307288
64.075888,34.250069
64.019336,34.215187
64.019331,34.215185
63.988036,34.204815
63.852797,34.160001
63.852795,34.160000
63.750010,34.149500
62.749998,34.149500
62.749980,34.149501
62.647203,34.160000
62.647200,34.160001
62.480668,34.215185
62.480663,34.215187
62.331342,34.307289
62.207289,34.431342
62.115187,34.580663
62.115186,34.580666
62.060001,34.747203
62.060001,34.747204
62.060000,34.747204
62.049500,34.849983
62.049500,35.650001
62.049501,35.650019
62.060000,35.752796
62.060001,35.752799
62.106351,35.892673
62.115186,35.919334
62.206883,36.068000
62.207289,36.068657
62.300951,36.162319
62.334436,36.223642
62.329452,36.293334
62.300951,36.337681
62.207289,36.431342
62.115187,36.580663
62.115186,36.580666
62.060001,36.747203
62.060001,36.747204
62.060000,36.747204
62.049500,36.849983
62.049500,37.650001
62.049501,37.650019
62.060000,37.752796
62.060001,37.752799
62.115185,37.919331
62.115187,37.919336
62.141902,37.962648
62.207288,38.068656
62.331344,38.192712
62.373096,38.218464
62.419820,38.270410
62.432000,38.324003
62.432000,38.598075
62.412315,38.665114
62.373098,38.703613
62.306344,38.744787
62.182287,38.868844
62.179664,38.873098
62.127715,38.919822
62.074126,38.932000
61.225189,38.932000
61.158150,38.912315
61.137508,38.895681
60.901819,38.659992
60.868334,38.598669
60.865500,38.572311
60.865500,38.377648
60.833477,38.175465
60.770218,37.980776
60.721420,37.885006
60.677287,37.798390
60.649733,37.760465
60.556971,37.632786
60.412213,37.488028
60.246614,37.367715
60.171320,37.329351
60.153917,37.320483
60.103123,37.272511
60.086328,37.204690
60.108865,37.138555
60.153917,37.099516
60.246610,37.052287
60.310677,37.005740
60.412213,36.931971
60.412215,36.931968
60.412219,36.931966
60.556966,36.787219
60.556968,36.787215
60.556971,36.787213
60.643792,36.667712
60.677287,36.621610
60.770220,36.439219
60.833477,36.244534
60.865500,36.042352
60.865500,35.837648
60.851175,35.747203
60.833477,35.635465
60.770218,35.440776
60.718865,35.339992
60.677287,35.258390
60.649733,35.220465
60.556971,35.092786
60.412213,34.948028
60.246613,34.827715
60.246612,34.827714
60.246610,34.827713
60.189653,34.798691
60.064223,34.734781
59.869534,34.671522
59.694995,34.643878
59.667352,34.639500
59.462648,34.639500
59.438329,34.643351
59.260465,34.671522
59.065776,34.734781
58.883386,34.827715
58.717786,34.948028
58.573028,35.092786
58.452715,35.258386
58.359781,35.440776
58.296522,35.635465
58.277148,35.757793
58.264500,35.837648
58.264500,36.042352
58.268562,36.068000
58.296522,36.244534
58.359781,36.439223
58.411135,36.540009
58.431849,36.580663
58.452715,36.621613
58.573028,36.787213
58.717786,36.931971
58.858521,37.034219
58.883390,37.052287
58.967437,37.095111
58.976080,37.099515
59.026876,37.147490
59.043671,37.215311
59.021134,37.281446
58.976080,37.320485
58.883386,37.367715
58.717786,37.488028
58.573028,37.632786
58.452715,37.798386
58.359781,37.980776
58.296522,38.175465
58.264500,38.377648
58.264500,38.582351
58.296522,38.784534
58.359781,38.979223
58.405350,39.068656
58.452710,39.161605
58.452715,39.161613
58.573028,39.327213
58.717786,39.471971
58.872749,39.584556
58.883390,39.592287
58.974840,39.638883
58.976080,39.639515
59.026876,39.687490
59.043671,39.755311
59.021134,39.821446
58.976080,39.860485
58.883386,39.907715
58.717786,40.028028
58.717782,40.028032
58.580134,40.165681
58.518811,40.199166
58.492453,40.202000
56.563429,40.202000
56.405405,40.233433
56.405393,40.233436
56.256538,40.295093
56.256525,40.295100
56.122555,40.384617
56.122551,40.384620
53.365934,43.141237
53.304611,43.174722
53.234919,43.169738
53.178986,43.127866
53.160322,43.091873
53.155195,43.076095
53.150220,43.060781
53.057287,42.878390
53.027942,42.838000
52.936971,42.712786
52.792213,42.568028
52.626611,42.447713
52.533369,42.400203
52.482574,42.352229
52.465779,42.284407
52.488317,42.218273
52.533371,42.179234
52.626346,42.131861
52.626347,42.131861
52.670921,42.099474
51.991447,41.420000
51.997661,41.420000
52.099394,41.392741
52.190606,41.340080
52.265080,41.265606
52.317741,41.174394
52.345000,41.072661
52.345000,41.066448
53.024474,41.745922
53.024474,41.745921
53.056859,41.701349
53.149755,41.519031
53.212990,41.324417
53.245000,41.122317
53.245000,40.917682
53.212990,40.715582
53.149755,40.520968
53.056859,40.338650
53.024474,40.294077
53.024474,40.294076
52.345000,40.973551
52.345000,40.967339
52.317741,40.865606
52.265080,40.774394
52.190606,40.699920
52.099394,40.647259
51.997661,40.620000
51.991446,40.620000
52.670922,39.940524
52.670921,39.940523
52.626359,39.908147
52.626350,39.908141
52.533369,39.860765
52.482573,39.812790
52.465778,39.744969
52.488315,39.678835
52.533370,39.639795
52.533920,39.639515
52.626610,39.592287
52.763066,39.493147
52.792213,39.471971
52.792215,39.471968
52.792219,39.471966
52.936966,39.327219
53.057287,39.161610
53.073894,39.129014
53.096696,39.097629
59.182508,33.011818
59.243831,32.978333
59.270189,32.975499
59.675002,32.975499
59.675008,32.975499
59.777797,32.964999
59.944334,32.909814
60.093656,32.817712
60.217712,32.693656
60.258886,32.626902
60.310833,32.580179
60.364424,32.568000
61.175996,32.568000
Z" /> 
<path style="fill:#C83434; fill-opacity:1.000000; stroke:none;fill-rule:evenodd;"
d="M 82.851334,37.538005
82.907267,37.579877
82.931684,37.645341
82.932000,37.654187
82.932000,40.069810
82.912315,40.136849
82.895681,40.157491
82.562445,40.490727
82.501122,40.524212
82.431430,40.519228
82.375497,40.477356
82.352291,40.422444
82.332990,40.300582
82.269755,40.105968
82.176859,39.923650
82.144474,39.879077
82.144474,39.879076
81.465000,40.558553
81.465000,40.552339
81.437741,40.450606
81.385080,40.359394
81.310606,40.284920
81.219394,40.232259
81.117661,40.205000
81.111446,40.205000
81.790922,39.525524
81.790921,39.525523
81.746359,39.493147
81.746350,39.493141
81.653369,39.445765
81.602573,39.397790
81.585778,39.329969
81.608315,39.263835
81.653370,39.224795
81.746610,39.177287
81.796144,39.141298
81.912213,39.056971
81.912215,39.056968
81.912219,39.056966
82.056966,38.912219
82.056968,38.912215
82.056971,38.912213
82.109732,38.839590
82.177287,38.746610
82.270220,38.564219
82.333477,38.369534
82.365500,38.167352
82.365500,37.972687
82.385185,37.905648
82.401815,37.885010
82.720319,37.566505
82.781642,37.533021
Z" /> 
<path style="fill:#C83434; fill-opacity:1.000000; stroke:none;fill-rule:evenodd;"
d="M 73.634075,26.827993
73.699901,26.942007
73.792993,27.035099
73.907007,27.100925
73.970590,27.117962
73.338282,27.750269
73.338282,27.750270
73.392449,27.789624
73.581782,27.886095
73.783870,27.951757
73.993754,27.985000
74.206246,27.985000
74.416127,27.951757
74.416130,27.951757
74.618217,27.886095
74.807554,27.789622
74.861716,27.750270
74.861717,27.750270
74.229408,27.117962
74.292993,27.100925
74.407007,27.035099
74.500099,26.942007
74.565925,26.827993
74.582962,26.764409
75.215270,27.396717
75.215270,27.396716
75.254624,27.342552
75.312887,27.228204
75.360861,27.177407
75.428682,27.160612
75.494817,27.183149
75.511048,27.196813
76.697791,28.383555
78.395681,30.081445
78.429166,30.142768
78.432000,30.169126
78.432000,30.590270
78.423355,30.619710
78.416832,30.649697
78.413077,30.654712
78.412315,30.657309
78.395681,30.677951
78.337681,30.735951
78.276358,30.769436
78.206666,30.764452
78.162319,30.735951
78.068657,30.642289
78.068656,30.642288
77.919334,30.550186
77.752797,30.495001
77.752795,30.495000
77.650016,30.484500
77.650009,30.484500
77.257689,30.484500
77.190650,30.464815
77.170008,30.448181
76.702948,29.981120
76.702944,29.981117
76.568971,29.891598
76.568968,29.891597
76.491487,29.859504
76.420102,29.829935
76.420094,29.829933
76.262070,29.798500
76.262066,29.798500
73.387934,29.798500
73.387929,29.798500
73.229905,29.829933
73.229893,29.829936
73.124632,29.873537
73.081033,29.891596
73.081028,29.891599
72.947059,29.981114
72.947051,29.981120
72.329990,30.598181
72.268667,30.631666
72.242309,30.634500
71.849998,30.634500
71.849980,30.634501
71.747203,30.645000
71.747200,30.645001
71.580668,30.700185
71.580663,30.700187
71.431342,30.792289
71.307289,30.916342
71.215187,31.065663
71.215186,31.065666
71.160001,31.232203
71.160001,31.232204
71.160000,31.232204
71.149500,31.334983
71.149500,32.335001
71.149501,32.335019
71.160000,32.437796
71.160001,32.437799
71.215185,32.604331
71.215187,32.604336
71.250069,32.660888
71.307288,32.753656
71.431344,32.877712
71.580666,32.969814
71.673525,33.000584
71.730968,33.040355
71.757792,33.104871
71.745477,33.173647
71.722201,33.205970
69.532492,35.395681
69.505564,35.410384
69.479746,35.426977
69.473545,35.427868
69.471169,35.429166
69.444811,35.432000
69.344730,35.432000
69.277691,35.412315
69.257049,35.395681
69.168657,35.307289
69.168656,35.307288
69.075777,35.250000
69.019336,35.215187
69.019331,35.215185
68.993619,35.206665
68.852797,35.160001
68.852795,35.160000
68.750010,35.149500
67.749998,35.149500
67.749980,35.149501
67.647203,35.160000
67.647200,35.160001
67.480668,35.215185
67.480663,35.215187
67.331342,35.307289
67.207289,35.431342
67.115187,35.580663
67.115186,35.580666
67.084415,35.673526
67.044642,35.730971
66.980125,35.757793
66.911350,35.745478
66.879030,35.722203
66.702263,35.545437
66.494507,35.337680
66.461022,35.276357
66.466006,35.206665
66.494505,35.162320
68.670008,32.986818
68.731331,32.953333
68.757689,32.950499
69.150002,32.950499
69.150008,32.950499
69.252797,32.939999
69.419334,32.884814
69.568656,32.792712
69.692712,32.668656
69.784814,32.519334
69.839999,32.352797
69.850500,32.250009
69.850499,31.249992
69.839999,31.147203
69.784814,30.980666
69.692712,30.831344
69.568656,30.707288
69.467672,30.645001
69.419336,30.615187
69.419331,30.615185
69.368016,30.598181
69.252797,30.560001
69.252795,30.560000
69.150010,30.549500
68.349998,30.549500
68.349980,30.549501
68.247203,30.560000
68.247200,30.560001
68.080668,30.615185
68.080663,30.615187
67.931342,30.707289
67.837681,30.800951
67.829735,30.805289
67.824310,30.812537
67.799550,30.821771
67.776358,30.834436
67.767328,30.833790
67.758846,30.836954
67.733025,30.831337
67.706666,30.829452
67.697612,30.823633
67.690573,30.822102
67.662319,30.800951
67.604319,30.742951
67.570834,30.681628
67.568000,30.655270
67.568000,29.295187
67.587685,29.228148
67.604314,29.207511
68.793599,28.018225
68.854920,27.984742
68.900675,27.983435
68.913713,27.985500
68.913714,27.985500
69.126286,27.985500
69.126287,27.985500
69.336243,27.952246
69.538412,27.886557
69.727816,27.790051
69.749789,27.774086
69.899786,27.665109
69.899788,27.665106
69.899792,27.665104
70.050104,27.514792
70.050106,27.514788
70.050109,27.514786
70.135890,27.396717
70.175051,27.342816
70.179793,27.333508
70.227763,27.282711
70.295583,27.265911
70.361719,27.288445
70.400763,27.333500
70.405373,27.342547
70.444728,27.396716
71.077036,26.764407
71.094075,26.827993
71.159901,26.942007
71.252993,27.035099
71.367007,27.100925
71.430590,27.117962
70.798282,27.750269
70.798282,27.750270
70.852449,27.789624
71.041782,27.886095
71.243870,27.951757
71.453754,27.985000
71.666246,27.985000
71.876127,27.951757
71.876130,27.951757
72.078217,27.886095
72.267554,27.789622
72.321716,27.750270
72.321717,27.750270
71.689408,27.117962
71.752993,27.100925
71.867007,27.035099
71.960099,26.942007
72.025925,26.827993
72.042962,26.764409
72.675270,27.396717
72.675270,27.396716
72.714622,27.342554
72.719514,27.332954
72.767488,27.282157
72.835308,27.265361
72.901444,27.287897
72.940486,27.332954
72.945375,27.342550
72.984728,27.396716
73.617036,26.764407
Z" /> 
</g>
<g style="fill:#FFFFFF; fill-opacity:1.000000; stroke:none;">
<circle cx="55.750000" cy="39.250000" r="0.300000" /> 
</g>
<g style="fill:#FFFFFF; fill-opacity:1.000000; stroke:none;">
<circle cx="46.250000" cy="30.710000" r="0.500000" /> 
</g>
<g style="fill:#FFFFFF; fill-opacity:1.000000; stroke:none;">
<circle cx="46.250000" cy="33.250000" r="0.500000" /> 
</g>
<g style="fill:#FFFFFF; fill-opacity:1.000000; stroke:none;">
<circle cx="51.945000" cy="35.940000" r="0.400000" /> 
</g>
<g style="fill:#FFFFFF; fill-opacity:1.000000; stroke:none;">
<circle cx="51.945000" cy="38.480000" r="0.400000" /> 
</g>
<g style="fill:#FFFFFF; fill-opacity:1.000000; stroke:none;">
<circle cx="51.945000" cy="41.020000" r="0.400000" /> 
</g>
<g style="fill:#FFFFFF; fill-opacity:1.000000; stroke:none;">
<circle cx="51.945000" cy="43.560000" r="0.400000" /> 
</g>
<g style="fill:#FFFFFF; fill-opacity:1.000000; stroke:none;">
<circle cx="59.565000" cy="43.560000" r="0.400000" /> 
</g>
<g style="fill:#FFFFFF; fill-opacity:1.000000; stroke:none;">
<circle cx="59.565000" cy="41.020000" r="0.400000" /> 
</g>
<g style="fill:#FFFFFF; fill-opacity:1.000000; stroke:none;">
<circle cx="59.565000" cy="38.480000" r="0.400000" /> 
</g>
<g style="fill:#FFFFFF; fill-opacity:1.000000; stroke:none;">
<circle cx="59.565000" cy="35.940000" r="0.400000" /> 
</g>
<g style="fill:#FFFFFF; fill-opacity:1.000000; stroke:none;">
<circle cx="73.445000" cy="35.525000" r="0.400000" /> 
</g>
<g style="fill:#FFFFFF; fill-opacity:1.000000; stroke:none;">
<circle cx="73.445000" cy="38.065000" r="0.400000" /> 
</g>
<g style="fill:#FFFFFF; fill-opacity:1.000000; stroke:none;">
<circle cx="73.445000" cy="40.605000" r="0.400000" /> 
</g>
<g style="fill:#FFFFFF; fill-opacity:1.000000; stroke:none;">
<circle cx="73.445000" cy="43.145000" r="0.400000" /> 
</g>
<g style="fill:#FFFFFF; fill-opacity:1.000000; stroke:none;">
<circle cx="81.065000" cy="43.145000" r="0.400000" /> 
</g>
<g style="fill:#FFFFFF; fill-opacity:1.000000; stroke:none;">
<circle cx="81.065000" cy="40.605000" r="0.400000" /> 
</g>
<g style="fill:#FFFFFF; fill-opacity:1.000000; stroke:none;">
<circle cx="81.065000" cy="38.065000" r="0.400000" /> 
</g>
<g style="fill:#FFFFFF; fill-opacity:1.000000; stroke:none;">
<circle cx="81.065000" cy="35.525000" r="0.400000" /> 
</g>
<g style="fill:#FFFFFF; fill-opacity:1.000000; stroke:none;">
<circle cx="46.250000" cy="39.750000" r="0.500000" /> 
</g>
<g style="fill:#FFFFFF; fill-opacity:1.000000; stroke:none;">
<circle cx="46.250000" cy="37.210000" r="0.500000" /> 
</g>
<g style="fill:#FFFFFF; fill-opacity:1.000000; stroke:none;">
<circle cx="61.400000" cy="26.635000" r="0.500000" /> 
</g>
<g style="fill:#FFFFFF; fill-opacity:1.000000; stroke:none;">
<circle cx="63.940000" cy="26.635000" r="0.500000" /> 
</g>
<g style="fill:#FFFFFF; fill-opacity:1.000000; stroke:none;">
<circle cx="66.480000" cy="26.635000" r="0.500000" /> 
</g>
<g style="fill:#FFFFFF; fill-opacity:1.000000; stroke:none;">
<circle cx="69.020000" cy="26.635000" r="0.500000" /> 
</g>
<g style="fill:#FFFFFF; fill-opacity:1.000000; stroke:none;">
<circle cx="71.560000" cy="26.635000" r="0.500000" /> 
</g>
<g style="fill:#FFFFFF; fill-opacity:1.000000; stroke:none;">
<circle cx="74.100000" cy="26.635000" r="0.500000" /> 
</g>
<g style="fill:#FFFFFF; fill-opacity:1.000000; stroke:none;">
<circle cx="46.250000" cy="46.790000" r="0.500000" /> 
</g>
<g style="fill:#FFFFFF; fill-opacity:1.000000; stroke:none;">
<circle cx="46.250000" cy="44.250000" r="0.500000" /> 
<path style="fill:none; 
stroke:#D0D2CD; stroke-width:0.050000; stroke-opacity:1; 
stroke-linecap:round; stroke-linejoin:round;fill:none"
d="M 43.750000,21.500000
86.250000,21.500000
86.250000,49.000000
43.750000,49.000000
Z" /> 
</g>
<g style="fill:#D0D2CD; fill-opacity:1.000000; stroke:none;">
<circle cx="46.250000" cy="30.710000" r="0.500000" /> 
</g>
<g style="fill:#D0D2CD; fill-opacity:1.000000; stroke:none;">
<circle cx="46.250000" cy="33.250000" r="0.500000" /> 
</g>
<g style="fill:#D0D2CD; fill-opacity:1.000000; stroke:none;">
<circle cx="51.945000" cy="35.940000" r="0.400000" /> 
</g>
<g style="fill:#D0D2CD; fill-opacity:1.000000; stroke:none;">
<circle cx="51.945000" cy="38.480000" r="0.400000" /> 
</g>
<g style="fill:#D0D2CD; fill-opacity:1.000000; stroke:none;">
<circle cx="51.945000" cy="41.020000" r="0.400000" /> 
</g>
<g style="fill:#D0D2CD; fill-opacity:1.000000; stroke:none;">
<circle cx="51.945000" cy="43.560000" r="0.400000" /> 
</g>
<g style="fill:#D0D2CD; fill-opacity:1.000000; stroke:none;">
<circle cx="59.565000" cy="43.560000" r="0.400000" /> 
</g>
<g style="fill:#D0D2CD; fill-opacity:1.000000; stroke:none;">
<circle cx="59.565000" cy="41.020000" r="0.400000" /> 
</g>
<g style="fill:#D0D2CD; fill-opacity:1.000000; stroke:none;">
<circle cx="59.565000" cy="38.480000" r="0.400000" /> 
</g>
<g style="fill:#D0D2CD; fill-opacity:1.000000; stroke:none;">
<circle cx="59.565000" cy="35.940000" r="0.400000" /> 
</g>
<g style="fill:#D0D2CD; fill-opacity:1.000000; stroke:none;">
<circle cx="73.445000" cy="35.525000" r="0.400000" /> 
</g>
<g style="fill:#D0D2CD; fill-opacity:1.000000; stroke:none;">
<circle cx="73.445000" cy="38.065000" r="0.400000" /> 
</g>
<g style="fill:#D0D2CD; fill-opacity:1.000000; stroke:none;">
<circle cx="73.445000" cy="40.605000" r="0.400000" /> 
</g>
<g style="fill:#D0D2CD; fill-opacity:1.000000; stroke:none;">
<circle cx="73.445000" cy="43.145000" r="0.400000" /> 
</g>
<g style="fill:#D0D2CD; fill-opacity:1.000000; stroke:none;">
<circle cx="81.065000" cy="43.145000" r="0.400000" /> 
</g>
<g style="fill:#D0D2CD; fill-opacity:1.000000; stroke:none;">
<circle cx="81.065000" cy="40.605000" r="0.400000" /> 
</g>
<g style="fill:#D0D2CD; fill-opacity:1.000000; stroke:none;">
<circle cx="81.065000" cy="38.065000" r="0.400000" /> 
</g>
<g style="fill:#D0D2CD; fill-opacity:1.000000; stroke:none;">
<circle cx="81.065000" cy="35.525000" r="0.400000" /> 
</g>
<g style="fill:#D0D2CD; fill-opacity:1.000000; stroke:none;">
<circle cx="46.250000" cy="39.750000" r="0.500000" /> 
</g>
<g style="fill:#D0D2CD; fill-opacity:1.000000; stroke:none;">
<circle cx="46.250000" cy="37.210000" r="0.500000" /> 
</g>
<g style="fill:#D0D2CD; fill-opacity:1.000000; stroke:none;">
<circle cx="61.400000" cy="26.635000" r="0.500000" /> 
</g>
<g style="fill:#D0D2CD; fill-opacity:1.000000; stroke:none;">
<circle cx="63.940000" cy="26.635000" r="0.500000" /> 
</g>
<g style="fill:#D0D2CD; fill-opacity:1.000000; stroke:none;">
<circle cx="66.480000" cy="26.635000" r="0.500000" /> 
</g>
<g style="fill:#D0D2CD; fill-opacity:1.000000; stroke:none;">
<circle cx="69.020000" cy="26.635000" r="0.500000" /> 
</g>
<g style="fill:#D0D2CD; fill-opacity:1.000000; stroke:none;">
<circle cx="71.560000" cy="26.635000" r="0.500000" /> 
</g>
<g style="fill:#D0D2CD; fill-opacity:1.000000; stroke:none;">
<circle cx="74.100000" cy="26.635000" r="0.500000" /> 
</g>
<g style="fill:#D0D2CD; fill-opacity:1.000000; stroke:none;">
<circle cx="46.250000" cy="46.790000" r="0.500000" /> 
</g>
<g style="fill:#D0D2CD; fill-opacity:1.000000; stroke:none;">
<circle cx="46.250000" cy="44.250000" r="0.500000" /> 
</g>
<g style="fill:#FFFFFF; fill-opacity:1.000000; stroke:none;">
<circle cx="46.250000" cy="30.710000" r="0.500000" /> 
</g>
<g style="fill:#FFFFFF; fill-opacity:1.000000; stroke:none;">
<circle cx="46.250000" cy="33.250000" r="0.500000" /> 
</g>
<g style="fill:#FFFFFF; fill-opacity:1.000000; stroke:none;">
<circle cx="51.945000" cy="35.940000" r="0.400000" /> 
</g>
<g style="fill:#FFFFFF; fill-opacity:1.000000; stroke:none;">
<circle cx="51.945000" cy="38.480000" r="0.400000" /> 
</g>
<g style="fill:#FFFFFF; fill-opacity:1.000000; stroke:none;">
<circle cx="51.945000" cy="41.020000" r="0.400000" /> 
</g>
<g style="fill:#FFFFFF; fill-opacity:1.000000; stroke:none;">
<circle cx="51.945000" cy="43.560000" r="0.400000" /> 
</g>
<g style="fill:#FFFFFF; fill-opacity:1.000000; stroke:none;">
<circle cx="59.565000" cy="43.560000" r="0.400000" /> 
</g>
<g style="fill:#FFFFFF; fill-opacity:1.000000; stroke:none;">
<circle cx="59.565000" cy="41.020000" r="0.400000" /> 
</g>
<g style="fill:#FFFFFF; fill-opacity:1.000000; stroke:none;">
<circle cx="59.565000" cy="38.480000" r="0.400000" /> 
</g>
<g style="fill:#FFFFFF; fill-opacity:1.000000; stroke:none;">
<circle cx="59.565000" cy="35.940000" r="0.400000" /> 
</g>
<g style="fill:#FFFFFF; fill-opacity:1.000000; stroke:none;">
<circle cx="73.445000" cy="35.525000" r="0.400000" /> 
</g>
<g style="fill:#FFFFFF; fill-opacity:1.000000; stroke:none;">
<circle cx="73.445000" cy="38.065000" r="0.400000" /> 
</g>
<g style="fill:#FFFFFF; fill-opacity:1.000000; stroke:none;">
<circle cx="73.445000" cy="40.605000" r="0.400000" /> 
</g>
<g style="fill:#FFFFFF; fill-opacity:1.000000; stroke:none;">
<circle cx="73.445000" cy="43.145000" r="0.400000" /> 
</g>
<g style="fill:#FFFFFF; fill-opacity:1.000000; stroke:none;">
<circle cx="81.065000" cy="43.145000" r="0.400000" /> 
</g>
<g style="fill:#FFFFFF; fill-opacity:1.000000; stroke:none;">
<circle cx="81.065000" cy="40.605000" r="0.400000" /> 
</g>
<g style="fill:#FFFFFF; fill-opacity:1.000000; stroke:none;">
<circle cx="81.065000" cy="38.065000" r="0.400000" /> 
</g>
<g style="fill:#FFFFFF; fill-opacity:1.000000; stroke:none;">
<circle cx="81.065000" cy="35.525000" r="0.400000" /> 
</g>
<g style="fill:#FFFFFF; fill-opacity:1.000000; stroke:none;">
<circle cx="46.250000" cy="39.750000" r="0.500000" /> 
</g>
<g style="fill:#FFFFFF; fill-opacity:1.000000; stroke:none;">
<circle cx="46.250000" cy="37.210000" r="0.500000" /> 
</g>
<g style="fill:#FFFFFF; fill-opacity:1.000000; stroke:none;">
<circle cx="61.400000" cy="26.635000" r="0.500000" /> 
</g>
<g style="fill:#FFFFFF; fill-opacity:1.000000; stroke:none;">
<circle cx="63.940000" cy="26.635000" r="0.500000" /> 
</g>
<g style="fill:#FFFFFF; fill-opacity:1.000000; stroke:none;">
<circle cx="66.480000" cy="26.635000" r="0.500000" /> 
</g>
<g style="fill:#FFFFFF; fill-opacity:1.000000; stroke:none;">
<circle cx="69.020000" cy="26.635000" r="0.500000" /> 
</g>
<g style="fill:#FFFFFF; fill-opacity:1.000000; stroke:none;">
<circle cx="71.560000" cy="26.635000" r="0.500000" /> 
</g>
<g style="fill:#FFFFFF; fill-opacity:1.000000; stroke:none;">
<circle cx="74.100000" cy="26.635000" r="0.500000" /> 
</g>
<g style="fill:#FFFFFF; fill-opacity:1.000000; stroke:none;">
<circle cx="46.250000" cy="46.790000" r="0.500000" /> 
</g>
<g style="fill:#FFFFFF; fill-opacity:1.000000; stroke:none;">
<circle cx="46.250000" cy="44.250000" r="0.500000" /> 
</g> 
</svg>
